<svg xmlns="http://www.w3.org/2000/svg" xmlns:oryx="http://oryx-editor.org" id="_7DD75116-C10B-406F-A104-087A0AFC17F4" width="743" height="354" xmlns:xlink="http://www.w3.org/1999/xlink" xmlns:svg="http://www.w3.org/2000/svg"><defs><marker id="_F15711C1-829B-426C-95EF-97E07EC4BD0Dstart" refX="1" refY="5" markerUnits="userSpaceOnUse" markerWidth="17" markerHeight="11" orient="auto" fill="#000000" stroke="#000000"> 	  		<path id="_F15711C1-829B-426C-95EF-97E07EC4BD0Dconditional" d="M 0 5 L 8 0 L 16 5 L 8 10 L 0 5" fill="white" stroke="#000000" stroke-width="1" display="none"/> 			<path id="_F15711C1-829B-426C-95EF-97E07EC4BD0Ddefault" d="M 5 0 L 11 10" fill="white" stroke="#000000" stroke-width="1" display="none"/> 	  	</marker><marker id="_F15711C1-829B-426C-95EF-97E07EC4BD0Dend" refX="15" refY="6" markerUnits="userSpaceOnUse" markerWidth="15" markerHeight="12" orient="auto" fill="#000000" stroke="#000000"> 	  		<path id="_F15711C1-829B-426C-95EF-97E07EC4BD0Dframe2" d="M 0 1 L 15 6 L 0 11z" fill="#000000" stroke="#000000" stroke-linejoin="round" stroke-width="2"/> 	  	</marker><marker id="_B3D745B3-E548-46ED-BF86-CDCC5F8E943Bstart" refX="1" refY="5" markerUnits="userSpaceOnUse" markerWidth="17" markerHeight="11" orient="auto" fill="#000000" stroke="#000000"> 	  		<path id="_B3D745B3-E548-46ED-BF86-CDCC5F8E943Bconditional" d="M 0 5 L 8 0 L 16 5 L 8 10 L 0 5" fill="white" stroke="#000000" stroke-width="1" display="none"/> 			<path id="_B3D745B3-E548-46ED-BF86-CDCC5F8E943Bdefault" d="M 5 0 L 11 10" fill="white" stroke="#000000" stroke-width="1" display="none"/> 	  	</marker><marker id="_B3D745B3-E548-46ED-BF86-CDCC5F8E943Bend" refX="15" refY="6" markerUnits="userSpaceOnUse" markerWidth="15" markerHeight="12" orient="auto" fill="#000000" stroke="#000000"> 	  		<path id="_B3D745B3-E548-46ED-BF86-CDCC5F8E943Bframe2" d="M 0 1 L 15 6 L 0 11z" fill="#000000" stroke="#000000" stroke-linejoin="round" stroke-width="2"/> 	  	</marker><marker id="_D91F10CD-67D7-4F7C-8610-FA2CB2F58596start" refX="1" refY="5" markerUnits="userSpaceOnUse" markerWidth="17" markerHeight="11" orient="auto" fill="#000000" stroke="#000000"> 	  		<path id="_D91F10CD-67D7-4F7C-8610-FA2CB2F58596conditional" d="M 0 5 L 8 0 L 16 5 L 8 10 L 0 5" fill="white" stroke="#000000" stroke-width="1" display="none"/> 			<path id="_D91F10CD-67D7-4F7C-8610-FA2CB2F58596default" d="M 5 0 L 11 10" fill="white" stroke="#000000" stroke-width="1" display="none"/> 	  	</marker><marker id="_D91F10CD-67D7-4F7C-8610-FA2CB2F58596end" refX="15" refY="6" markerUnits="userSpaceOnUse" markerWidth="15" markerHeight="12" orient="auto" fill="#000000" stroke="#000000"> 	  		<path id="_D91F10CD-67D7-4F7C-8610-FA2CB2F58596frame2" d="M 0 1 L 15 6 L 0 11z" fill="#000000" stroke="#000000" stroke-linejoin="round" stroke-width="2"/> 	  	</marker><marker id="_64894347-5BE4-42D1-8C42-BFD567678419start" refX="1" refY="5" markerUnits="userSpaceOnUse" markerWidth="17" markerHeight="11" orient="auto" fill="#000000" stroke="#000000"> 	  		<path id="_64894347-5BE4-42D1-8C42-BFD567678419conditional" d="M 0 5 L 8 0 L 16 5 L 8 10 L 0 5" fill="white" stroke="#000000" stroke-width="1" display="none"/> 			<path id="_64894347-5BE4-42D1-8C42-BFD567678419default" d="M 5 0 L 11 10" fill="white" stroke="#000000" stroke-width="1" display="none"/> 	  	</marker><marker id="_64894347-5BE4-42D1-8C42-BFD567678419end" refX="15" refY="6" markerUnits="userSpaceOnUse" markerWidth="15" markerHeight="12" orient="auto" fill="#000000" stroke="#000000"> 	  		<path id="_64894347-5BE4-42D1-8C42-BFD567678419frame2" d="M 0 1 L 15 6 L 0 11z" fill="#000000" stroke="#000000" stroke-linejoin="round" stroke-width="2"/> 	  	</marker><marker id="_256823D5-DA7B-4881-8974-BDF30C04139Fstart" refX="1" refY="5" markerUnits="userSpaceOnUse" markerWidth="17" markerHeight="11" orient="auto" fill="#000000" stroke="#000000"> 	  		<path id="_256823D5-DA7B-4881-8974-BDF30C04139Fconditional" d="M 0 5 L 8 0 L 16 5 L 8 10 L 0 5" fill="white" stroke="#000000" stroke-width="1" display="none"/> 			<path id="_256823D5-DA7B-4881-8974-BDF30C04139Fdefault" d="M 5 0 L 11 10" fill="white" stroke="#000000" stroke-width="1" display="none"/> 	  	</marker><marker id="_256823D5-DA7B-4881-8974-BDF30C04139Fend" refX="15" refY="6" markerUnits="userSpaceOnUse" markerWidth="15" markerHeight="12" orient="auto" fill="#000000" stroke="#000000"> 	  		<path id="_256823D5-DA7B-4881-8974-BDF30C04139Fframe2" d="M 0 1 L 15 6 L 0 11z" fill="#000000" stroke="#000000" stroke-linejoin="round" stroke-width="2"/> 	  	</marker></defs><g stroke="none" font-family="Verdana, sans-serif" font-size-adjust="none" font-style="normal" font-variant="normal" font-weight="normal" line-heigth="normal" font-size="12"><g class="stencils" transform="translate(15, 16)"><g class="me"/><g class="children"><g id="_E22CD0A7-C9CF-4881-9F27-C7A099E136A4" bpmn2nodeid="processStartEvent"><g class="stencils" transform="translate(120, 165)"><g class="me"><g pointer-events="fill" id="_E22CD0A7-C9CF-4881-9F27-C7A099E136A4">        <defs id="_E22CD0A7-C9CF-4881-9F27-C7A099E136A4__E22CD0A7-C9CF-4881-9F27-C7A099E136A4_5"> 		<radialGradient id="_E22CD0A7-C9CF-4881-9F27-C7A099E136A4background" cx="10%" cy="10%" r="100%" fx="10%" fy="10%"> 			<stop offset="0%" stop-color="#ffffff" stop-opacity="1" id="_E22CD0A7-C9CF-4881-9F27-C7A099E136A4__E22CD0A7-C9CF-4881-9F27-C7A099E136A4_6"/> 			<stop id="_E22CD0A7-C9CF-4881-9F27-C7A099E136A4fill_el" offset="100%" stop-color="#9acd32" stop-opacity="1"/> 		</radialGradient> 	</defs> 	     <circle id="_E22CD0A7-C9CF-4881-9F27-C7A099E136A4bg_frame" cx="15" cy="15" r="15" stroke="#000000" fill="url(#_E22CD0A7-C9CF-4881-9F27-C7A099E136A4background) white" stroke-width="1" style="stroke-dasharray: 5.5, 3"/>      <circle id="_E22CD0A7-C9CF-4881-9F27-C7A099E136A4frame" cx="15" cy="15" r="15" stroke="#000000" fill="none" stroke-width="1" display="inherit"/>  	<text font-size="11" id="_E22CD0A7-C9CF-4881-9F27-C7A099E136A4text_name" x="15" y="32" oryx:align="top center" stroke="black" stroke-width="0pt" letter-spacing="-0.01px" fill="#000000" text-anchor="middle" transform="rotate(0 15 32)" visibility="inherit" oryx:fontSize="11"/>   </g></g><g class="children" style="overflow:hidden"/><g class="edge"/></g><g class="controls"><g class="dockers"/><g class="magnets" transform="translate(120, 165)"><g pointer-events="all" display="none" transform="translate(7, 7)"><circle cx="8" cy="8" r="4" stroke="none" fill="red" fill-opacity="0.3"/></g></g></g></g><g id="_2FA97859-8DE2-4E76-8A26-AEF1BCC7629C" bpmn2nodeid="_4BDEEA2D-FEB5-44ED-B6EB-671AA6E5990F"><g class="stencils" transform="translate(225, 135)"><g class="me"><g pointer-events="fill" oryx:minimumSize="50 40" id="_2FA97859-8DE2-4E76-8A26-AEF1BCC7629C">   	<defs id="_2FA97859-8DE2-4E76-8A26-AEF1BCC7629C__2FA97859-8DE2-4E76-8A26-AEF1BCC7629C_17"> 		<radialGradient id="_2FA97859-8DE2-4E76-8A26-AEF1BCC7629Cbackground" cx="10%" cy="10%" r="100%" fx="10%" fy="10%"> 			<stop offset="0%" stop-color="#ffffff" stop-opacity="1" id="_2FA97859-8DE2-4E76-8A26-AEF1BCC7629C__2FA97859-8DE2-4E76-8A26-AEF1BCC7629C_18"/> 			<stop id="_2FA97859-8DE2-4E76-8A26-AEF1BCC7629Cfill_el" offset="100%" stop-color="#fafad2" stop-opacity="1"/> 		</radialGradient> 		<radialGradient id="_2FA97859-8DE2-4E76-8A26-AEF1BCC7629Cborderbackground" cx="10%" cy="10%" r="100%" fx="10%" fy="10%"> 			<stop offset="0%" stop-color="#ffffff" stop-opacity="1" id="_2FA97859-8DE2-4E76-8A26-AEF1BCC7629C__2FA97859-8DE2-4E76-8A26-AEF1BCC7629C_19"/> 			<stop id="_2FA97859-8DE2-4E76-8A26-AEF1BCC7629Cfill_border" offset="100%" stop-color="#000000" stop-opacity="1" stroke="#000000"/> 		</radialGradient> 	</defs> 	 	<rect id="_2FA97859-8DE2-4E76-8A26-AEF1BCC7629Ctext_frame" oryx:anchors="bottom top right left" x="1" y="1" width="94" height="79" rx="10" ry="10" stroke="none" stroke-width="0" fill="none"/> 	<rect id="_2FA97859-8DE2-4E76-8A26-AEF1BCC7629Cbg_frame" oryx:resize="vertical horizontal" x="0" y="0" width="100" height="80" rx="10" ry="10" stroke="#000000" stroke-width="1" fill="url(#_2FA97859-8DE2-4E76-8A26-AEF1BCC7629Cbackground) #ffffcc"/> 		<text font-size="12" id="_2FA97859-8DE2-4E76-8A26-AEF1BCC7629Ctext_name" x="50" y="40" oryx:align="middle center" oryx:fittoelem="text_frame" stroke="black" text-anchor="middle" stroke-width="0pt" letter-spacing="-0.01px" fill="#000000" transform="rotate(0 50 40)" visibility="inherit" oryx:fontSize="12"><tspan x="50" y="40" dy="5" id="ext-gen676">Initialize</tspan></text>     <g id="_2FA97859-8DE2-4E76-8A26-AEF1BCC7629CmanualTask" transform="scale(0.7,0.7) translate(8,8)" display="none">     	<path oryx:anchors="top left" id="_2FA97859-8DE2-4E76-8A26-AEF1BCC7629Cframe" style="opacity:1;fill:none;fill-opacity:1;stroke-width:1" d="M0.5,3.751l4.083-3.25c0,0,11.166,0.083,12.083,0.083s-2.417,2.917-1.5,2.917     s11.667,0,12.584,0c1.166,1.708-0.168,3.167-0.834,3.667s0.875,1.917-1,4.417c-0.75,0.25,0.75,1.875-1.333,3.333     c-1.167,0.583,0.583,1.542-1.25,2.833c-1.167,0-20.833,0.083-20.833,0.083l-2-1.333V3.751z" stroke="#000000"/> 		<path id="_2FA97859-8DE2-4E76-8A26-AEF1BCC7629Cframe2" oryx:anchors="top left" style="opacity:1;fill:none;stroke-width:2" d="M 13.5 7 L 27 7" stroke="#000000"/> 		<path id="_2FA97859-8DE2-4E76-8A26-AEF1BCC7629Cframe3" oryx:anchors="top left" style="opacity:1;fill:none;stroke-width:2" d="M 13.5 11 L 26 11" stroke="#000000"/> 		<path id="_2FA97859-8DE2-4E76-8A26-AEF1BCC7629Cframe4" oryx:anchors="top left" style="opacity:1;fill:none;stroke-width:1.5" d="M 14 14.5 L 25 14.5" stroke="#000000"/> 		<path id="_2FA97859-8DE2-4E76-8A26-AEF1BCC7629Cframe5" oryx:anchors="top left" style="opacity:1;fill:none;stroke-width:1.5" d="M 8.2 3.1 L 15 3.1" stroke="#000000"/> 	</g> 	 	<g id="_2FA97859-8DE2-4E76-8A26-AEF1BCC7629CbusinessRuleTask" transform="scale(0.7,0.7) translate(8,8)" display="inherit"> 		<rect id="_2FA97859-8DE2-4E76-8A26-AEF1BCC7629Cframe6" oryx:anchors="top left" x="0" y="0" width="22" height="4" style="opacity:1;fill:#B3B1B3;fill-opacity:1;" stroke="#000000"/> 		<rect id="_2FA97859-8DE2-4E76-8A26-AEF1BCC7629Cframe7" oryx:anchors="top left" x="0" y="4" style="opacity:1;fill:none;" width="22" height="12" stroke="#000000"/> 		<path id="_2FA97859-8DE2-4E76-8A26-AEF1BCC7629Cframe8" oryx:anchors="top left" style="opacity:1;fill:none;" d="M 0 10 L 22 10" stroke="#000000"/> 		<path id="_2FA97859-8DE2-4E76-8A26-AEF1BCC7629Cframe9" oryx:anchors="top left" style="opacity:1; fill:none;" d="M 7 4 L 7 16" stroke="#000000"/> 	</g> 	 	<g id="_2FA97859-8DE2-4E76-8A26-AEF1BCC7629CscriptTask" transform="scale(0.7,0.7) translate(8,8)" display="none"> 		<path oryx:anchors="top left" id="_2FA97859-8DE2-4E76-8A26-AEF1BCC7629Cframe10" style="opacity:1;fill:none;" stroke="#000000" d="M6.402,0.5h14.5c0,0-5.833,2.833-5.833,5.583s4.417,6,4.417,9.167    s-4.167,5.083-4.167,5.083H0.235c0,0,5-2.667,5-5s-4.583-6.75-4.583-9.25S6.402,0.5,6.402,0.5z"/> 		<path oryx:anchors="top left" id="_2FA97859-8DE2-4E76-8A26-AEF1BCC7629Cframe11" style="opacity:1;fill:none;stroke-width:1.5" d="M 3.5 4.5 L 13.5 4.5" stroke="#000000"/> 		<path oryx:anchors="top left" id="_2FA97859-8DE2-4E76-8A26-AEF1BCC7629Cframe12" style="opacity:1;fill:none;stroke-width:1.5" d="M 3.8 8.5 L 13.8 8.5" stroke="#000000"/> 		<path oryx:anchors="top left" id="_2FA97859-8DE2-4E76-8A26-AEF1BCC7629Cframe13" style="opacity:1;fill:none;stroke-width:1.5" d="M 6.3 12.5 L 16.3 12.5" stroke="#000000"/> 		<path oryx:anchors="top left" id="_2FA97859-8DE2-4E76-8A26-AEF1BCC7629Cframe14" style="opacity:1;fill:none;stroke-width:1.5" d="M 6.5 16.5 L 16.5 16.5" stroke="#000000"/> 	</g> 	 	<g id="_2FA97859-8DE2-4E76-8A26-AEF1BCC7629CuserTask" transform="scale(0.7,0.7) translate(8,8)" display="none"> 		<path id="_2FA97859-8DE2-4E76-8A26-AEF1BCC7629Cframe15" oryx:anchors="top left" style="opacity:1;fill:#F4F6F7" stroke="#000000" d="M0.585,24.167h24.083v-7.833c0,0-2.333-3.917-7.083-5.167h-9.25    c-4.417,1.333-7.833,5.75-7.833,5.75L0.585,24.167z"/> 		<path id="_2FA97859-8DE2-4E76-8A26-AEF1BCC7629Cframe16" oryx:anchors="top left" style="opacity:1;fill:none" d="M 6 20 L 6 24" stroke="#000000"/> 		<path id="_2FA97859-8DE2-4E76-8A26-AEF1BCC7629Cframe17" oryx:anchors="top left" style="opacity:1;fill:none" d="M 20 20 L 20 24" stroke="#000000"/> 		<circle id="_2FA97859-8DE2-4E76-8A26-AEF1BCC7629Cframe18" oryx:anchors="top left" fill="black" cx="13.002" cy="5.916" r="5.417" stroke="#000000"/> 		<path id="_2FA97859-8DE2-4E76-8A26-AEF1BCC7629Cframe19" oryx:anchors="top left" style="opacity:1;fill:#F0EFF0;" stroke="#000000" d="M8.043,7.083c0,0,2.814-2.426,5.376-1.807s4.624-0.693,4.624-0.693    c0.25,1.688,0.042,3.75-1.458,5.584c0,0,1.083,0.75,1.083,1.5s0.125,1.875-1,3s-5.5,1.25-6.75,0S8.668,12.834,8.668,12    s0.583-1.25,1.25-1.917C8.835,9.5,7.419,7.708,8.043,7.083z"/> 	</g> 	 	<g id="_2FA97859-8DE2-4E76-8A26-AEF1BCC7629CserviceTask" transform="scale(0.7,0.7) translate(8,8)" display="none"> 		<polygon oryx:anchors="top left" id="_2FA97859-8DE2-4E76-8A26-AEF1BCC7629Cframe20" style="opacity:1;fill:#ffffff" stroke="#000000" points="15.392,5.064 17.954,2.502 20.347,4.895 17.786,7.455     18.729,9.732 22.353,9.732 22.353,13.115 18.731,13.115 17.788,15.392 20.351,17.955 17.958,20.347 15.397,17.786 13.12,18.729     13.12,22.353 9.737,22.353 9.737,18.731 7.46,17.788 4.897,20.35 2.506,17.958 5.066,15.397 4.124,13.12 0.5,13.12 0.5,9.737     4.121,9.737 5.065,7.461 2.503,4.898 4.895,2.506 7.455,5.066 9.732,4.125 9.732,0.5 13.116,0.5 13.116,4.121 "/> 		<circle oryx:anchors="top left" id="_2FA97859-8DE2-4E76-8A26-AEF1BCC7629Cframe21" style="opacity:1;fill:none" stroke="#000000" cx="11.427" cy="11.426" r="3.714"/> 		<polygon oryx:anchors="top left" id="_2FA97859-8DE2-4E76-8A26-AEF1BCC7629Cframe22" style="opacity:1;fill:#ffffff" stroke="#000000" points="21.392,11.064 23.954,8.502 26.347,10.895 23.786,13.455     24.729,15.732 28.353,15.732 28.353,19.115 24.731,19.115 23.788,21.392 26.351,23.955 23.958,26.347 21.397,23.786 19.12,24.729     19.12,28.353 15.737,28.353 15.737,24.731 13.46,23.788 10.897,26.35 8.506,23.958 11.066,21.397 10.124,19.12 6.5,19.12     6.5,15.737 10.121,15.737 11.065,13.461 8.503,10.898 10.895,8.506 13.455,11.066 15.732,10.125 15.732,6.5 19.116,6.5     19.116,10.121 "/> 		<circle oryx:anchors="top left" id="_2FA97859-8DE2-4E76-8A26-AEF1BCC7629Cframe23" style="opacity:1;fill:none;" stroke="#000000" cx="17.427" cy="17.426" r="3.714"/> 	</g> 	 	<g id="_2FA97859-8DE2-4E76-8A26-AEF1BCC7629CsendTask" display="none"> 		<path id="_2FA97859-8DE2-4E76-8A26-AEF1BCC7629Cstframe24" oryx:anchors="left top" stroke="#FFFFFF" fill="black" stroke-width="1" d="M8,11 L8,21 L24,21 L24,11 L16,17z"/> 		<path id="_2FA97859-8DE2-4E76-8A26-AEF1BCC7629Cstframe25" oryx:anchors="left top" stroke="#FFFFFF" fill="black" stroke-width="1" d="M7,10 L16,17 L25 10z"/> 	</g> 	 	<g id="_2FA97859-8DE2-4E76-8A26-AEF1BCC7629CreceiveTask" display="none"> 		<path id="_2FA97859-8DE2-4E76-8A26-AEF1BCC7629Cframe26" oryx:anchors="left top" stroke="#000000" fill="none" stroke-width="1" d="M8,11 L8,21 L24,21 L24,11z M8,11 L16,17 L24,11"/> 	</g> 	 	<g id="_2FA97859-8DE2-4E76-8A26-AEF1BCC7629Cnone" display="inherit"/>  	<g id="_2FA97859-8DE2-4E76-8A26-AEF1BCC7629Csequential" display="none">         <path oryx:anchors="bottom" fill="none" stroke="#000000" stroke-width="2" d="M46,76h10M46,72h10 M46,68h10" id="_2FA97859-8DE2-4E76-8A26-AEF1BCC7629C__2FA97859-8DE2-4E76-8A26-AEF1BCC7629C_20"/>     </g>   </g></g><g class="children" style="overflow:hidden"/><g class="edge"/></g><g class="controls"><g class="dockers"/><g class="magnets" transform="translate(225, 135)"><g pointer-events="all" display="none" transform="translate(-7, 12)"><circle cx="8" cy="8" r="4" stroke="none" fill="red" fill-opacity="0.3"/></g><g pointer-events="all" display="none" transform="translate(-7, 32)"><circle cx="8" cy="8" r="4" stroke="none" fill="red" fill-opacity="0.3"/></g><g pointer-events="all" display="none" transform="translate(-7, 52)"><circle cx="8" cy="8" r="4" stroke="none" fill="red" fill-opacity="0.3"/></g><g pointer-events="all" display="none" transform="translate(17, 71)"><circle cx="8" cy="8" r="4" stroke="none" fill="red" fill-opacity="0.3"/></g><g pointer-events="all" display="none" transform="translate(42, 71)"><circle cx="8" cy="8" r="4" stroke="none" fill="red" fill-opacity="0.3"/></g><g pointer-events="all" display="none" transform="translate(67, 71)"><circle cx="8" cy="8" r="4" stroke="none" fill="red" fill-opacity="0.3"/></g><g pointer-events="all" display="none" transform="translate(91, 12)"><circle cx="8" cy="8" r="4" stroke="none" fill="red" fill-opacity="0.3"/></g><g pointer-events="all" display="none" transform="translate(91, 32)"><circle cx="8" cy="8" r="4" stroke="none" fill="red" fill-opacity="0.3"/></g><g pointer-events="all" display="none" transform="translate(91, 52)"><circle cx="8" cy="8" r="4" stroke="none" fill="red" fill-opacity="0.3"/></g><g pointer-events="all" display="none" transform="translate(17, -7)"><circle cx="8" cy="8" r="4" stroke="none" fill="red" fill-opacity="0.3"/></g><g pointer-events="all" display="none" transform="translate(42, -7)"><circle cx="8" cy="8" r="4" stroke="none" fill="red" fill-opacity="0.3"/></g><g pointer-events="all" display="none" transform="translate(67, -7)"><circle cx="8" cy="8" r="4" stroke="none" fill="red" fill-opacity="0.3"/></g><g pointer-events="all" display="none" transform="translate(42, 32)"><circle cx="8" cy="8" r="4" stroke="none" fill="red" fill-opacity="0.3"/></g></g></g></g><g id="_A7A80F2B-DB78-49D3-90E4-1ADEAA62DBBE" bpmn2nodeid="_8FED164F-8547-4754-9DF0-D61316C7CB06"><g class="stencils" transform="translate(571, 285)"><g class="me"><g pointer-events="fill" id="_A7A80F2B-DB78-49D3-90E4-1ADEAA62DBBE">      <defs id="_A7A80F2B-DB78-49D3-90E4-1ADEAA62DBBE__A7A80F2B-DB78-49D3-90E4-1ADEAA62DBBE_5"> 		<radialGradient id="_A7A80F2B-DB78-49D3-90E4-1ADEAA62DBBEbackground" cx="10%" cy="10%" r="100%" fx="10%" fy="10%"> 			<stop offset="0%" stop-color="#ffffff" stop-opacity="1" id="_A7A80F2B-DB78-49D3-90E4-1ADEAA62DBBE__A7A80F2B-DB78-49D3-90E4-1ADEAA62DBBE_6"/> 			<stop id="_A7A80F2B-DB78-49D3-90E4-1ADEAA62DBBEfill_el" offset="100%" stop-color="#ff6347" stop-opacity="1"/> 		</radialGradient> 	</defs> 	     <circle id="_A7A80F2B-DB78-49D3-90E4-1ADEAA62DBBEbg_frame" cx="14" cy="14" r="14" stroke="#000000" fill="url(#_A7A80F2B-DB78-49D3-90E4-1ADEAA62DBBEbackground) white" stroke-width="3"/> 	<text font-size="11" id="_A7A80F2B-DB78-49D3-90E4-1ADEAA62DBBEtext_name" x="14" y="30" oryx:align="top center" stroke="black" stroke-width="0pt" letter-spacing="-0.01px" fill="#000000" text-anchor="middle" transform="rotate(0 14 30)" visibility="inherit" oryx:fontSize="11"/>   </g></g><g class="children" style="overflow:hidden"/><g class="edge"/></g><g class="controls"><g class="dockers"/><g class="magnets" transform="translate(571, 285)"><g pointer-events="all" display="none" transform="translate(6, 6)"><circle cx="8" cy="8" r="4" stroke="none" fill="red" fill-opacity="0.3"/></g></g></g></g><g id="_4DA4FBE6-9D53-4707-B78B-D52396E98C59" bpmn2nodeid="_5DF14411-8123-4A74-B354-1019CD87CDA0"><g class="stencils" transform="translate(420, 140)"><g class="me"><g pointer-events="fill" oryx:minimumSize="50 40" id="_4DA4FBE6-9D53-4707-B78B-D52396E98C59">   	<defs id="_4DA4FBE6-9D53-4707-B78B-D52396E98C59__4DA4FBE6-9D53-4707-B78B-D52396E98C59_17"> 		<radialGradient id="_4DA4FBE6-9D53-4707-B78B-D52396E98C59background" cx="10%" cy="10%" r="100%" fx="10%" fy="10%"> 			<stop offset="0%" stop-color="#ffffff" stop-opacity="1" id="_4DA4FBE6-9D53-4707-B78B-D52396E98C59__4DA4FBE6-9D53-4707-B78B-D52396E98C59_18"/> 			<stop id="_4DA4FBE6-9D53-4707-B78B-D52396E98C59fill_el" offset="100%" stop-color="#fafad2" stop-opacity="1"/> 		</radialGradient> 		<radialGradient id="_4DA4FBE6-9D53-4707-B78B-D52396E98C59borderbackground" cx="10%" cy="10%" r="100%" fx="10%" fy="10%"> 			<stop offset="0%" stop-color="#ffffff" stop-opacity="1" id="_4DA4FBE6-9D53-4707-B78B-D52396E98C59__4DA4FBE6-9D53-4707-B78B-D52396E98C59_19"/> 			<stop id="_4DA4FBE6-9D53-4707-B78B-D52396E98C59fill_border" offset="100%" stop-color="#000000" stop-opacity="1" stroke="#000000"/> 		</radialGradient> 	</defs> 	 	<rect id="_4DA4FBE6-9D53-4707-B78B-D52396E98C59text_frame" oryx:anchors="bottom top right left" x="1" y="1" width="94" height="79" rx="10" ry="10" stroke="none" stroke-width="0" fill="none"/> 	<rect id="_4DA4FBE6-9D53-4707-B78B-D52396E98C59bg_frame" oryx:resize="vertical horizontal" x="0" y="0" width="100" height="80" rx="10" ry="10" stroke="#000000" stroke-width="1" fill="url(#_4DA4FBE6-9D53-4707-B78B-D52396E98C59background) #ffffcc"/> 		<text font-size="12" id="_4DA4FBE6-9D53-4707-B78B-D52396E98C59text_name" x="50" y="40" oryx:align="middle center" oryx:fittoelem="text_frame" stroke="black" text-anchor="middle" stroke-width="0pt" letter-spacing="-0.01px" fill="#000000" transform="rotate(0 50 40)" visibility="inherit" oryx:fontSize="12"><tspan x="50" y="40" dy="5" id="ext-gen703">Valid Order</tspan></text>     <g id="_4DA4FBE6-9D53-4707-B78B-D52396E98C59manualTask" transform="scale(0.7,0.7) translate(8,8)" display="none">     	<path oryx:anchors="top left" id="_4DA4FBE6-9D53-4707-B78B-D52396E98C59frame" style="opacity:1;fill:none;fill-opacity:1;stroke-width:1" d="M0.5,3.751l4.083-3.25c0,0,11.166,0.083,12.083,0.083s-2.417,2.917-1.5,2.917     s11.667,0,12.584,0c1.166,1.708-0.168,3.167-0.834,3.667s0.875,1.917-1,4.417c-0.75,0.25,0.75,1.875-1.333,3.333     c-1.167,0.583,0.583,1.542-1.25,2.833c-1.167,0-20.833,0.083-20.833,0.083l-2-1.333V3.751z" stroke="#000000"/> 		<path id="_4DA4FBE6-9D53-4707-B78B-D52396E98C59frame2" oryx:anchors="top left" style="opacity:1;fill:none;stroke-width:2" d="M 13.5 7 L 27 7" stroke="#000000"/> 		<path id="_4DA4FBE6-9D53-4707-B78B-D52396E98C59frame3" oryx:anchors="top left" style="opacity:1;fill:none;stroke-width:2" d="M 13.5 11 L 26 11" stroke="#000000"/> 		<path id="_4DA4FBE6-9D53-4707-B78B-D52396E98C59frame4" oryx:anchors="top left" style="opacity:1;fill:none;stroke-width:1.5" d="M 14 14.5 L 25 14.5" stroke="#000000"/> 		<path id="_4DA4FBE6-9D53-4707-B78B-D52396E98C59frame5" oryx:anchors="top left" style="opacity:1;fill:none;stroke-width:1.5" d="M 8.2 3.1 L 15 3.1" stroke="#000000"/> 	</g> 	 	<g id="_4DA4FBE6-9D53-4707-B78B-D52396E98C59businessRuleTask" transform="scale(0.7,0.7) translate(8,8)" display="inherit"> 		<rect id="_4DA4FBE6-9D53-4707-B78B-D52396E98C59frame6" oryx:anchors="top left" x="0" y="0" width="22" height="4" style="opacity:1;fill:#B3B1B3;fill-opacity:1;" stroke="#000000"/> 		<rect id="_4DA4FBE6-9D53-4707-B78B-D52396E98C59frame7" oryx:anchors="top left" x="0" y="4" style="opacity:1;fill:none;" width="22" height="12" stroke="#000000"/> 		<path id="_4DA4FBE6-9D53-4707-B78B-D52396E98C59frame8" oryx:anchors="top left" style="opacity:1;fill:none;" d="M 0 10 L 22 10" stroke="#000000"/> 		<path id="_4DA4FBE6-9D53-4707-B78B-D52396E98C59frame9" oryx:anchors="top left" style="opacity:1; fill:none;" d="M 7 4 L 7 16" stroke="#000000"/> 	</g> 	 	<g id="_4DA4FBE6-9D53-4707-B78B-D52396E98C59scriptTask" transform="scale(0.7,0.7) translate(8,8)" display="none"> 		<path oryx:anchors="top left" id="_4DA4FBE6-9D53-4707-B78B-D52396E98C59frame10" style="opacity:1;fill:none;" stroke="#000000" d="M6.402,0.5h14.5c0,0-5.833,2.833-5.833,5.583s4.417,6,4.417,9.167    s-4.167,5.083-4.167,5.083H0.235c0,0,5-2.667,5-5s-4.583-6.75-4.583-9.25S6.402,0.5,6.402,0.5z"/> 		<path oryx:anchors="top left" id="_4DA4FBE6-9D53-4707-B78B-D52396E98C59frame11" style="opacity:1;fill:none;stroke-width:1.5" d="M 3.5 4.5 L 13.5 4.5" stroke="#000000"/> 		<path oryx:anchors="top left" id="_4DA4FBE6-9D53-4707-B78B-D52396E98C59frame12" style="opacity:1;fill:none;stroke-width:1.5" d="M 3.8 8.5 L 13.8 8.5" stroke="#000000"/> 		<path oryx:anchors="top left" id="_4DA4FBE6-9D53-4707-B78B-D52396E98C59frame13" style="opacity:1;fill:none;stroke-width:1.5" d="M 6.3 12.5 L 16.3 12.5" stroke="#000000"/> 		<path oryx:anchors="top left" id="_4DA4FBE6-9D53-4707-B78B-D52396E98C59frame14" style="opacity:1;fill:none;stroke-width:1.5" d="M 6.5 16.5 L 16.5 16.5" stroke="#000000"/> 	</g> 	 	<g id="_4DA4FBE6-9D53-4707-B78B-D52396E98C59userTask" transform="scale(0.7,0.7) translate(8,8)" display="none"> 		<path id="_4DA4FBE6-9D53-4707-B78B-D52396E98C59frame15" oryx:anchors="top left" style="opacity:1;fill:#F4F6F7" stroke="#000000" d="M0.585,24.167h24.083v-7.833c0,0-2.333-3.917-7.083-5.167h-9.25    c-4.417,1.333-7.833,5.75-7.833,5.75L0.585,24.167z"/> 		<path id="_4DA4FBE6-9D53-4707-B78B-D52396E98C59frame16" oryx:anchors="top left" style="opacity:1;fill:none" d="M 6 20 L 6 24" stroke="#000000"/> 		<path id="_4DA4FBE6-9D53-4707-B78B-D52396E98C59frame17" oryx:anchors="top left" style="opacity:1;fill:none" d="M 20 20 L 20 24" stroke="#000000"/> 		<circle id="_4DA4FBE6-9D53-4707-B78B-D52396E98C59frame18" oryx:anchors="top left" fill="black" cx="13.002" cy="5.916" r="5.417" stroke="#000000"/> 		<path id="_4DA4FBE6-9D53-4707-B78B-D52396E98C59frame19" oryx:anchors="top left" style="opacity:1;fill:#F0EFF0;" stroke="#000000" d="M8.043,7.083c0,0,2.814-2.426,5.376-1.807s4.624-0.693,4.624-0.693    c0.25,1.688,0.042,3.75-1.458,5.584c0,0,1.083,0.75,1.083,1.5s0.125,1.875-1,3s-5.5,1.25-6.75,0S8.668,12.834,8.668,12    s0.583-1.25,1.25-1.917C8.835,9.5,7.419,7.708,8.043,7.083z"/> 	</g> 	 	<g id="_4DA4FBE6-9D53-4707-B78B-D52396E98C59serviceTask" transform="scale(0.7,0.7) translate(8,8)" display="none"> 		<polygon oryx:anchors="top left" id="_4DA4FBE6-9D53-4707-B78B-D52396E98C59frame20" style="opacity:1;fill:#ffffff" stroke="#000000" points="15.392,5.064 17.954,2.502 20.347,4.895 17.786,7.455     18.729,9.732 22.353,9.732 22.353,13.115 18.731,13.115 17.788,15.392 20.351,17.955 17.958,20.347 15.397,17.786 13.12,18.729     13.12,22.353 9.737,22.353 9.737,18.731 7.46,17.788 4.897,20.35 2.506,17.958 5.066,15.397 4.124,13.12 0.5,13.12 0.5,9.737     4.121,9.737 5.065,7.461 2.503,4.898 4.895,2.506 7.455,5.066 9.732,4.125 9.732,0.5 13.116,0.5 13.116,4.121 "/> 		<circle oryx:anchors="top left" id="_4DA4FBE6-9D53-4707-B78B-D52396E98C59frame21" style="opacity:1;fill:none" stroke="#000000" cx="11.427" cy="11.426" r="3.714"/> 		<polygon oryx:anchors="top left" id="_4DA4FBE6-9D53-4707-B78B-D52396E98C59frame22" style="opacity:1;fill:#ffffff" stroke="#000000" points="21.392,11.064 23.954,8.502 26.347,10.895 23.786,13.455     24.729,15.732 28.353,15.732 28.353,19.115 24.731,19.115 23.788,21.392 26.351,23.955 23.958,26.347 21.397,23.786 19.12,24.729     19.12,28.353 15.737,28.353 15.737,24.731 13.46,23.788 10.897,26.35 8.506,23.958 11.066,21.397 10.124,19.12 6.5,19.12     6.5,15.737 10.121,15.737 11.065,13.461 8.503,10.898 10.895,8.506 13.455,11.066 15.732,10.125 15.732,6.5 19.116,6.5     19.116,10.121 "/> 		<circle oryx:anchors="top left" id="_4DA4FBE6-9D53-4707-B78B-D52396E98C59frame23" style="opacity:1;fill:none;" stroke="#000000" cx="17.427" cy="17.426" r="3.714"/> 	</g> 	 	<g id="_4DA4FBE6-9D53-4707-B78B-D52396E98C59sendTask" display="none"> 		<path id="_4DA4FBE6-9D53-4707-B78B-D52396E98C59stframe24" oryx:anchors="left top" stroke="#FFFFFF" fill="black" stroke-width="1" d="M8,11 L8,21 L24,21 L24,11 L16,17z"/> 		<path id="_4DA4FBE6-9D53-4707-B78B-D52396E98C59stframe25" oryx:anchors="left top" stroke="#FFFFFF" fill="black" stroke-width="1" d="M7,10 L16,17 L25 10z"/> 	</g> 	 	<g id="_4DA4FBE6-9D53-4707-B78B-D52396E98C59receiveTask" display="none"> 		<path id="_4DA4FBE6-9D53-4707-B78B-D52396E98C59frame26" oryx:anchors="left top" stroke="#000000" fill="none" stroke-width="1" d="M8,11 L8,21 L24,21 L24,11z M8,11 L16,17 L24,11"/> 	</g> 	 	<g id="_4DA4FBE6-9D53-4707-B78B-D52396E98C59none" display="inherit"/>  	<g id="_4DA4FBE6-9D53-4707-B78B-D52396E98C59sequential" display="none">         <path oryx:anchors="bottom" fill="none" stroke="#000000" stroke-width="2" d="M46,76h10M46,72h10 M46,68h10" id="_4DA4FBE6-9D53-4707-B78B-D52396E98C59__4DA4FBE6-9D53-4707-B78B-D52396E98C59_20"/>     </g>   </g></g><g class="children" style="overflow:hidden"/><g class="edge"/></g><g class="controls"><g class="dockers"/><g class="magnets" transform="translate(420, 140)"><g pointer-events="all" display="none" transform="translate(-7, 12)"><circle cx="8" cy="8" r="4" stroke="none" fill="red" fill-opacity="0.3"/></g><g pointer-events="all" display="none" transform="translate(-7, 32)"><circle cx="8" cy="8" r="4" stroke="none" fill="red" fill-opacity="0.3"/></g><g pointer-events="all" display="none" transform="translate(-7, 52)"><circle cx="8" cy="8" r="4" stroke="none" fill="red" fill-opacity="0.3"/></g><g pointer-events="all" display="none" transform="translate(17, 71)"><circle cx="8" cy="8" r="4" stroke="none" fill="red" fill-opacity="0.3"/></g><g pointer-events="all" display="none" transform="translate(42, 71)"><circle cx="8" cy="8" r="4" stroke="none" fill="red" fill-opacity="0.3"/></g><g pointer-events="all" display="none" transform="translate(67, 71)"><circle cx="8" cy="8" r="4" stroke="none" fill="red" fill-opacity="0.3"/></g><g pointer-events="all" display="none" transform="translate(91, 12)"><circle cx="8" cy="8" r="4" stroke="none" fill="red" fill-opacity="0.3"/></g><g pointer-events="all" display="none" transform="translate(91, 32)"><circle cx="8" cy="8" r="4" stroke="none" fill="red" fill-opacity="0.3"/></g><g pointer-events="all" display="none" transform="translate(91, 52)"><circle cx="8" cy="8" r="4" stroke="none" fill="red" fill-opacity="0.3"/></g><g pointer-events="all" display="none" transform="translate(17, -7)"><circle cx="8" cy="8" r="4" stroke="none" fill="red" fill-opacity="0.3"/></g><g pointer-events="all" display="none" transform="translate(42, -7)"><circle cx="8" cy="8" r="4" stroke="none" fill="red" fill-opacity="0.3"/></g><g pointer-events="all" display="none" transform="translate(67, -7)"><circle cx="8" cy="8" r="4" stroke="none" fill="red" fill-opacity="0.3"/></g><g pointer-events="all" display="none" transform="translate(42, 32)"><circle cx="8" cy="8" r="4" stroke="none" fill="red" fill-opacity="0.3"/></g></g></g></g><g id="_F0BCC6C8-3350-4326-8732-F1E6C97B33BA" bpmn2nodeid="_BD74BE8C-08DE-45BE-838C-9B6E03D4D72A"><g class="stencils" transform="translate(565, 160)"><g class="me"><g id="_F0BCC6C8-3350-4326-8732-F1E6C97B33BA">        <defs id="_F0BCC6C8-3350-4326-8732-F1E6C97B33BA__F0BCC6C8-3350-4326-8732-F1E6C97B33BA_4"> 		<radialGradient id="_F0BCC6C8-3350-4326-8732-F1E6C97B33BAbackground" cx="10%" cy="10%" r="100%" fx="10%" fy="10%"> 			<stop offset="0%" stop-color="#ffffff" stop-opacity="1" id="_F0BCC6C8-3350-4326-8732-F1E6C97B33BA__F0BCC6C8-3350-4326-8732-F1E6C97B33BA_5"/> 			<stop id="_F0BCC6C8-3350-4326-8732-F1E6C97B33BAfill_el" offset="100%" stop-color="#f0e68c" stop-opacity="1"/> 		</radialGradient> 		<radialGradient id="_F0BCC6C8-3350-4326-8732-F1E6C97B33BAborderbackground" cx="10%" cy="10%" r="100%" fx="10%" fy="10%"> 			<stop offset="0%" stop-color="#ffffff" stop-opacity="1" id="_F0BCC6C8-3350-4326-8732-F1E6C97B33BA__F0BCC6C8-3350-4326-8732-F1E6C97B33BA_6"/> 			<stop id="_F0BCC6C8-3350-4326-8732-F1E6C97B33BAfill_border" offset="100%" stop-color="#a67f00" stop-opacity="1" stroke="#a67f00"/> 		</radialGradient> 	</defs> 	     <path d=" M0 20.5  L20.5 0  L40 20.5  L20.5 40  z" id="_F0BCC6C8-3350-4326-8732-F1E6C97B33BAbg_frame" fill="url(#_F0BCC6C8-3350-4326-8732-F1E6C97B33BAbackground) white" style="stroke-width:1" stroke="#a67f00"/>     <g id="_F0BCC6C8-3350-4326-8732-F1E6C97B33BAframe" stroke="#a67f00">       <path id="_F0BCC6C8-3350-4326-8732-F1E6C97B33BAframe2" d=" M13.25 12.05  L17.25 12.05  L27.65 28.95  L23.75 28.95  z" style="stroke-width:1" stroke="#a67f00" fill="url(#_F0BCC6C8-3350-4326-8732-F1E6C97B33BAborderbackground)"/>       <path id="_F0BCC6C8-3350-4326-8732-F1E6C97B33BAframe3" d=" M13.25 28.95  L23.75 12.05  L27.65 12.05  L17.25 28.95  z" style="stroke-width:1" stroke="#a67f00" fill="url(#_F0BCC6C8-3350-4326-8732-F1E6C97B33BAborderbackground)"/>     </g> 	 	<text id="_F0BCC6C8-3350-4326-8732-F1E6C97B33BAtext_name" x="30.5" y="30.5" oryx:align="left top" stroke-width="0pt" letter-spacing="-0.01px" fill="#000000" text-anchor="start" transform="rotate(0 30.5 30.5)" visibility="inherit" oryx:fontSize="12"><tspan x="30.5" y="30.5" dy="12">valid?</tspan></text> 	   </g></g><g class="children" style="overflow:hidden"/><g class="edge"/></g><g class="controls"><g class="dockers"/><g class="magnets" transform="translate(565, 160)"><g pointer-events="all" display="none" transform="translate(12.5, 12.5)"><circle cx="8" cy="8" r="4" stroke="none" fill="red" fill-opacity="0.3"/></g></g></g></g><g id="_5E8ADFE1-1BB8-47CB-88C3-E1E745794F3B" bpmn2nodeid="_29858477-35B6-4E45-9AFE-C079D7EAFDC2"><g class="stencils" transform="translate(675, 166)"><g class="me"><g pointer-events="fill" id="_5E8ADFE1-1BB8-47CB-88C3-E1E745794F3B">      <defs id="_5E8ADFE1-1BB8-47CB-88C3-E1E745794F3B__5E8ADFE1-1BB8-47CB-88C3-E1E745794F3B_5"> 		<radialGradient id="_5E8ADFE1-1BB8-47CB-88C3-E1E745794F3Bbackground" cx="10%" cy="10%" r="100%" fx="10%" fy="10%"> 			<stop offset="0%" stop-color="#ffffff" stop-opacity="1" id="_5E8ADFE1-1BB8-47CB-88C3-E1E745794F3B__5E8ADFE1-1BB8-47CB-88C3-E1E745794F3B_6"/> 			<stop id="_5E8ADFE1-1BB8-47CB-88C3-E1E745794F3Bfill_el" offset="100%" stop-color="#ff6347" stop-opacity="1"/> 		</radialGradient> 	</defs> 	     <circle id="_5E8ADFE1-1BB8-47CB-88C3-E1E745794F3Bbg_frame" cx="14" cy="14" r="14" stroke="#000000" fill="url(#_5E8ADFE1-1BB8-47CB-88C3-E1E745794F3Bbackground) white" stroke-width="3"/> 	<text font-size="11" id="_5E8ADFE1-1BB8-47CB-88C3-E1E745794F3Btext_name" x="14" y="30" oryx:align="top center" stroke="black" stroke-width="0pt" letter-spacing="-0.01px" fill="#000000" text-anchor="middle" transform="rotate(0 14 30)" visibility="inherit" oryx:fontSize="11"/>   </g></g><g class="children" style="overflow:hidden"/><g class="edge"/></g><g class="controls"><g class="dockers"/><g class="magnets" transform="translate(675, 166)"><g pointer-events="all" display="none" transform="translate(6, 6)"><circle cx="8" cy="8" r="4" stroke="none" fill="red" fill-opacity="0.3"/></g></g></g></g><g id="_6DAEFB8E-47B7-4640-8289-7CF616A930E7" bpmn2nodeid="_D5604FDD-254B-4FAF-94B6-EC8457F3976D"><g class="stencils" transform="translate(370, 161)"><g class="me"><g pointer-events="fill" id="_6DAEFB8E-47B7-4640-8289-7CF616A930E7">      <defs id="_6DAEFB8E-47B7-4640-8289-7CF616A930E7__6DAEFB8E-47B7-4640-8289-7CF616A930E7_5"> 		<radialGradient id="_6DAEFB8E-47B7-4640-8289-7CF616A930E7background" cx="10%" cy="10%" r="100%" fx="10%" fy="10%"> 			<stop offset="0%" stop-color="#ffffff" stop-opacity="1" id="_6DAEFB8E-47B7-4640-8289-7CF616A930E7__6DAEFB8E-47B7-4640-8289-7CF616A930E7_6"/> 			<stop id="_6DAEFB8E-47B7-4640-8289-7CF616A930E7fill_el" offset="100%" stop-color="#ff6347" stop-opacity="1"/> 		</radialGradient> 	</defs> 	     <circle id="_6DAEFB8E-47B7-4640-8289-7CF616A930E7bg_frame" cx="14" cy="14" r="14" stroke="#000000" fill="url(#_6DAEFB8E-47B7-4640-8289-7CF616A930E7background) white" stroke-width="3"/> 	<text font-size="11" id="_6DAEFB8E-47B7-4640-8289-7CF616A930E7text_name" x="14" y="30" oryx:align="top center" stroke="black" stroke-width="0pt" letter-spacing="-0.01px" fill="#000000" text-anchor="middle" transform="rotate(0 14 30)" visibility="inherit" oryx:fontSize="11"/>   </g></g><g class="children" style="overflow:hidden"/><g class="edge"/></g><g class="controls"><g class="dockers"/><g class="magnets" transform="translate(370, 161)"><g pointer-events="all" display="none" transform="translate(6, 6)"><circle cx="8" cy="8" r="4" stroke="none" fill="red" fill-opacity="0.3"/></g></g></g></g></g><g class="edge"><g id="_F15711C1-829B-426C-95EF-97E07EC4BD0D" bpmn2nodeid="_AF94964A-1267-4488-858C-85066638283C"><g class="stencils"><g class="me"><g pointer-events="painted" bpmn2nodeid="_A21CBB37-423F-4CB4-BF67-CCC8A47556D0"><path id="_F15711C1-829B-426C-95EF-97E07EC4BD0D_1" d="M150.21811285434754 179.45649596948758L224.78188714565246 176.79350403051242 " stroke="#000000" fill="none" stroke-width="2" stroke-linecap="round" stroke-linejoin="round" marker-start="url(#_F15711C1-829B-426C-95EF-97E07EC4BD0Dstart)" marker-end="url(#_F15711C1-829B-426C-95EF-97E07EC4BD0Dend)"/></g><text id="_F15711C1-829B-426C-95EF-97E07EC4BD0Dtext_name" font-size="12" x="164.21811285434754" y="165.45649596948758" oryx:edgePosition="startTop" stroke-width="0pt" letter-spacing="-0.01px" fill="#000000" text-anchor="start" transform="rotate(357.95459151111277 150.21811285434754 179.45649596948758)" visibility="inherit" oryx:fontSize="12"/></g><g class="children" style="overflow:hidden"/><g class="edge"/></g><g class="controls"><g class="dockers"/><g class="magnets"/></g></g><g id="_B3D745B3-E548-46ED-BF86-CDCC5F8E943B" bpmn2nodeid="_B2EF91E6-494F-4958-AB99-CABBAE93B7C2"><g class="stencils"><g class="me"><g pointer-events="painted" bpmn2nodeid="_202B046E-598D-4DD0-A653-34D34A5823C0"><path id="_B3D745B3-E548-46ED-BF86-CDCC5F8E943B_1" d="M520.4140625 180L565.1328125 180 " stroke="#000000" fill="none" stroke-width="2" stroke-linecap="round" stroke-linejoin="round" marker-start="url(#_B3D745B3-E548-46ED-BF86-CDCC5F8E943Bstart)" marker-end="url(#_B3D745B3-E548-46ED-BF86-CDCC5F8E943Bend)"/></g><text id="_B3D745B3-E548-46ED-BF86-CDCC5F8E943Btext_name" font-size="12" x="534.4140625" y="166" oryx:edgePosition="startTop" stroke-width="0pt" letter-spacing="-0.01px" fill="#000000" text-anchor="start" transform="rotate(360 520.4140625 180)" visibility="inherit" oryx:fontSize="12"/></g><g class="children" style="overflow:hidden"/><g class="edge"/></g><g class="controls"><g class="dockers"/><g class="magnets"/></g></g><g id="_D91F10CD-67D7-4F7C-8610-FA2CB2F58596" bpmn2nodeid="_F2F63060-1F4D-4A2D-98B8-F4499EA794E8"><g class="stencils"><g class="me"><g pointer-events="painted" bpmn2nodeid="_9500BB24-A541-47BA-A076-BC7881E7BF6F"><path id="_D91F10CD-67D7-4F7C-8610-FA2CB2F58596_1" d="M605.5 180L675 180 " stroke="#000000" fill="none" stroke-width="2" stroke-linecap="round" stroke-linejoin="round" marker-start="url(#_D91F10CD-67D7-4F7C-8610-FA2CB2F58596start)" marker-end="url(#_D91F10CD-67D7-4F7C-8610-FA2CB2F58596end)"/></g><text id="_D91F10CD-67D7-4F7C-8610-FA2CB2F58596text_name" font-size="12" x="619.5" y="166" oryx:edgePosition="startTop" stroke-width="0pt" letter-spacing="-0.01px" fill="#000000" text-anchor="start" transform="rotate(360 605.5 180)" visibility="inherit" oryx:fontSize="12"><tspan x="619.5" y="166" dy="0">yes</tspan></text></g><g class="children" style="overflow:hidden"/><g class="edge"/></g><g class="controls"><g class="dockers"/><g class="magnets"/></g></g><g id="_64894347-5BE4-42D1-8C42-BFD567678419" bpmn2nodeid="_E4EC965B-4B62-4825-A60E-6AEB989BDE8A"><g class="stencils"><g class="me"><g pointer-events="painted" bpmn2nodeid="_DE79BD73-5E11-4B94-BA41-83D23A699CE0"><path id="_64894347-5BE4-42D1-8C42-BFD567678419_1" d="M585 199.59375L585 284.984375 " stroke="#000000" fill="none" stroke-width="2" stroke-linecap="round" stroke-linejoin="round" marker-start="url(#_64894347-5BE4-42D1-8C42-BFD567678419start)" marker-end="url(#_64894347-5BE4-42D1-8C42-BFD567678419end)"/></g><text id="_64894347-5BE4-42D1-8C42-BFD567678419text_name" font-size="12" x="571" y="185.59375" oryx:edgePosition="startTop" stroke-width="0pt" letter-spacing="-0.01px" fill="#000000" text-anchor="end" transform="rotate(-90 585 199.59375)" visibility="inherit" oryx:fontSize="12"><tspan x="571" y="185.59375" dy="0">no</tspan></text></g><g class="children" style="overflow:hidden"/><g class="edge"/></g><g class="controls"><g class="dockers"/><g class="magnets"/></g></g><g id="_256823D5-DA7B-4881-8974-BDF30C04139F" bpmn2nodeid="_F4AFF4AA-0763-4574-B0E6-DC360209727C"><g class="stencils"><g class="me"><g pointer-events="painted" bpmn2nodeid="_F4AFF4AA-0763-4574-B0E6-DC360209727C"><path id="_256823D5-DA7B-4881-8974-BDF30C04139F_1" d="M325.390625 175L369.375 175 " stroke="#000000" fill="none" stroke-width="2" stroke-linecap="round" stroke-linejoin="round" marker-start="url(#_256823D5-DA7B-4881-8974-BDF30C04139Fstart)" marker-end="url(#_256823D5-DA7B-4881-8974-BDF30C04139Fend)"/></g><text id="_256823D5-DA7B-4881-8974-BDF30C04139Ftext_name" font-size="12" x="339.390625" y="161" oryx:edgePosition="startTop" stroke-width="0pt" letter-spacing="-0.01px" fill="#000000" text-anchor="start" transform="rotate(360 325.390625 175)" visibility="inherit" oryx:fontSize="12"/></g><g class="children" style="overflow:hidden"/><g class="edge"/></g><g class="controls"><g class="dockers"/><g class="magnets"/></g></g></g><text id="_9838DE00-9A3B-4288-A0ED-EECA81C5842D" style="stroke-width:1;fill:rgb(177,194,214);font-family:arial;font-weight:bold" font-size="12" onclick="ORYX.Plugins.CanvasTitle.openTextualAnalysis()" onmouseover="ORYX.Plugins.CanvasTitle.addToolTip('_9838DE00-9A3B-4288-A0ED-EECA81C5842D')" transform="translate(10, 20)">DMServiceManifestoProcess v.1.0 (com.myspace.pocservicemanifesto.DMServiceManifestoProcess)</text></g></g></svg>