<svg xmlns="http://www.w3.org/2000/svg" xmlns:oryx="http://oryx-editor.org" id="_18A1CB16-F4AE-4894-BBAA-9EF752C41A0A" width="743" height="354" xmlns:xlink="http://www.w3.org/1999/xlink" xmlns:svg="http://www.w3.org/2000/svg"><defs><marker id="_D979D61C-4663-47A3-AF32-8D91E84AC706start" refX="1" refY="5" markerUnits="userSpaceOnUse" markerWidth="17" markerHeight="11" orient="auto" fill="#000000" stroke="#000000"> 	  		<path id="_D979D61C-4663-47A3-AF32-8D91E84AC706conditional" d="M 0 5 L 8 0 L 16 5 L 8 10 L 0 5" fill="white" stroke="#000000" stroke-width="1" display="none"/> 			<path id="_D979D61C-4663-47A3-AF32-8D91E84AC706default" d="M 5 0 L 11 10" fill="white" stroke="#000000" stroke-width="1" display="none"/> 	  	</marker><marker id="_D979D61C-4663-47A3-AF32-8D91E84AC706end" refX="15" refY="6" markerUnits="userSpaceOnUse" markerWidth="15" markerHeight="12" orient="auto" fill="#000000" stroke="#000000"> 	  		<path id="_D979D61C-4663-47A3-AF32-8D91E84AC706frame2" d="M 0 1 L 15 6 L 0 11z" fill="#000000" stroke="#000000" stroke-linejoin="round" stroke-width="2"/> 	  	</marker><marker id="_F926051D-4AB6-4DF6-9AFB-EECEE7BB260Cstart" refX="1" refY="5" markerUnits="userSpaceOnUse" markerWidth="17" markerHeight="11" orient="auto" fill="#000000" stroke="#000000"> 	  		<path id="_F926051D-4AB6-4DF6-9AFB-EECEE7BB260Cconditional" d="M 0 5 L 8 0 L 16 5 L 8 10 L 0 5" fill="white" stroke="#000000" stroke-width="1" display="none"/> 			<path id="_F926051D-4AB6-4DF6-9AFB-EECEE7BB260Cdefault" d="M 5 0 L 11 10" fill="white" stroke="#000000" stroke-width="1" display="none"/> 	  	</marker><marker id="_F926051D-4AB6-4DF6-9AFB-EECEE7BB260Cend" refX="15" refY="6" markerUnits="userSpaceOnUse" markerWidth="15" markerHeight="12" orient="auto" fill="#000000" stroke="#000000"> 	  		<path id="_F926051D-4AB6-4DF6-9AFB-EECEE7BB260Cframe2" d="M 0 1 L 15 6 L 0 11z" fill="#000000" stroke="#000000" stroke-linejoin="round" stroke-width="2"/> 	  	</marker><marker id="_2F03C80F-814E-409C-AB59-5331D1F2B798start" refX="1" refY="5" markerUnits="userSpaceOnUse" markerWidth="17" markerHeight="11" orient="auto" fill="#000000" stroke="#000000"> 	  		<path id="_2F03C80F-814E-409C-AB59-5331D1F2B798conditional" d="M 0 5 L 8 0 L 16 5 L 8 10 L 0 5" fill="white" stroke="#000000" stroke-width="1" display="none"/> 			<path id="_2F03C80F-814E-409C-AB59-5331D1F2B798default" d="M 5 0 L 11 10" fill="white" stroke="#000000" stroke-width="1" display="none"/> 	  	</marker><marker id="_2F03C80F-814E-409C-AB59-5331D1F2B798end" refX="15" refY="6" markerUnits="userSpaceOnUse" markerWidth="15" markerHeight="12" orient="auto" fill="#000000" stroke="#000000"> 	  		<path id="_2F03C80F-814E-409C-AB59-5331D1F2B798frame2" d="M 0 1 L 15 6 L 0 11z" fill="#000000" stroke="#000000" stroke-linejoin="round" stroke-width="2"/> 	  	</marker><marker id="_ACB16656-4F1C-4BCA-8DCB-B502F83B323Fstart" refX="1" refY="5" markerUnits="userSpaceOnUse" markerWidth="17" markerHeight="11" orient="auto" fill="#000000" stroke="#000000"> 	  		<path id="_ACB16656-4F1C-4BCA-8DCB-B502F83B323Fconditional" d="M 0 5 L 8 0 L 16 5 L 8 10 L 0 5" fill="white" stroke="#000000" stroke-width="1" display="none"/> 			<path id="_ACB16656-4F1C-4BCA-8DCB-B502F83B323Fdefault" d="M 5 0 L 11 10" fill="white" stroke="#000000" stroke-width="1" display="none"/> 	  	</marker><marker id="_ACB16656-4F1C-4BCA-8DCB-B502F83B323Fend" refX="15" refY="6" markerUnits="userSpaceOnUse" markerWidth="15" markerHeight="12" orient="auto" fill="#000000" stroke="#000000"> 	  		<path id="_ACB16656-4F1C-4BCA-8DCB-B502F83B323Fframe2" d="M 0 1 L 15 6 L 0 11z" fill="#000000" stroke="#000000" stroke-linejoin="round" stroke-width="2"/> 	  	</marker><marker id="_E28B4274-1FF7-48BD-930E-2DB9DDBAAF77start" refX="1" refY="5" markerUnits="userSpaceOnUse" markerWidth="17" markerHeight="11" orient="auto" fill="#000000" stroke="#000000"> 	  		<path id="_E28B4274-1FF7-48BD-930E-2DB9DDBAAF77conditional" d="M 0 5 L 8 0 L 16 5 L 8 10 L 0 5" fill="white" stroke="#000000" stroke-width="1" display="none"/> 			<path id="_E28B4274-1FF7-48BD-930E-2DB9DDBAAF77default" d="M 5 0 L 11 10" fill="white" stroke="#000000" stroke-width="1" display="none"/> 	  	</marker><marker id="_E28B4274-1FF7-48BD-930E-2DB9DDBAAF77end" refX="15" refY="6" markerUnits="userSpaceOnUse" markerWidth="15" markerHeight="12" orient="auto" fill="#000000" stroke="#000000"> 	  		<path id="_E28B4274-1FF7-48BD-930E-2DB9DDBAAF77frame2" d="M 0 1 L 15 6 L 0 11z" fill="#000000" stroke="#000000" stroke-linejoin="round" stroke-width="2"/> 	  	</marker></defs><g stroke="none" font-family="Verdana, sans-serif" font-size-adjust="none" font-style="normal" font-variant="normal" font-weight="normal" line-heigth="normal" font-size="12"><g class="stencils" transform="translate(15, 16)"><g class="me"/><g class="children"><g id="_5576F65B-0214-41EE-93C4-D196103C9695" bpmn2nodeid="processStartEvent"><g class="stencils" transform="translate(120, 165)"><g class="me"><g pointer-events="fill" id="_5576F65B-0214-41EE-93C4-D196103C9695">        <defs id="_5576F65B-0214-41EE-93C4-D196103C9695__5576F65B-0214-41EE-93C4-D196103C9695_5"> 		<radialGradient id="_5576F65B-0214-41EE-93C4-D196103C9695background" cx="10%" cy="10%" r="100%" fx="10%" fy="10%"> 			<stop offset="0%" stop-color="#ffffff" stop-opacity="1" id="_5576F65B-0214-41EE-93C4-D196103C9695__5576F65B-0214-41EE-93C4-D196103C9695_6"/> 			<stop id="_5576F65B-0214-41EE-93C4-D196103C9695fill_el" offset="100%" stop-color="#9acd32" stop-opacity="1"/> 		</radialGradient> 	</defs> 	     <circle id="_5576F65B-0214-41EE-93C4-D196103C9695bg_frame" cx="15" cy="15" r="15" stroke="#000000" fill="url(#_5576F65B-0214-41EE-93C4-D196103C9695background) white" stroke-width="1" style="stroke-dasharray: 5.5, 3"/>      <circle id="_5576F65B-0214-41EE-93C4-D196103C9695frame" cx="15" cy="15" r="15" stroke="#000000" fill="none" stroke-width="1" display="inherit"/>  	<text font-size="11" id="_5576F65B-0214-41EE-93C4-D196103C9695text_name" x="15" y="32" oryx:align="top center" stroke="black" stroke-width="0pt" letter-spacing="-0.01px" fill="#000000" text-anchor="middle" transform="rotate(0 15 32)" visibility="inherit" oryx:fontSize="11"/>   </g></g><g class="children" style="overflow:hidden"/><g class="edge"/></g><g class="controls"><g class="dockers"/><g class="magnets" transform="translate(120, 165)"><g pointer-events="all" display="none" transform="translate(7, 7)"><circle cx="8" cy="8" r="4" stroke="none" fill="red" fill-opacity="0.3"/></g></g></g></g><g id="_A4CB57D3-B31B-490F-A654-51F0CEE5786B" bpmn2nodeid="_4BDEEA2D-FEB5-44ED-B6EB-671AA6E5990F"><g class="stencils" transform="translate(210, 135)"><g class="me"><g pointer-events="fill" oryx:minimumSize="50 40" id="_A4CB57D3-B31B-490F-A654-51F0CEE5786B">   	<defs id="_A4CB57D3-B31B-490F-A654-51F0CEE5786B__A4CB57D3-B31B-490F-A654-51F0CEE5786B_17"> 		<radialGradient id="_A4CB57D3-B31B-490F-A654-51F0CEE5786Bbackground" cx="10%" cy="10%" r="100%" fx="10%" fy="10%"> 			<stop offset="0%" stop-color="#ffffff" stop-opacity="1" id="_A4CB57D3-B31B-490F-A654-51F0CEE5786B__A4CB57D3-B31B-490F-A654-51F0CEE5786B_18"/> 			<stop id="_A4CB57D3-B31B-490F-A654-51F0CEE5786Bfill_el" offset="100%" stop-color="#fafad2" stop-opacity="1"/> 		</radialGradient> 		<radialGradient id="_A4CB57D3-B31B-490F-A654-51F0CEE5786Bborderbackground" cx="10%" cy="10%" r="100%" fx="10%" fy="10%"> 			<stop offset="0%" stop-color="#ffffff" stop-opacity="1" id="_A4CB57D3-B31B-490F-A654-51F0CEE5786B__A4CB57D3-B31B-490F-A654-51F0CEE5786B_19"/> 			<stop id="_A4CB57D3-B31B-490F-A654-51F0CEE5786Bfill_border" offset="100%" stop-color="#000000" stop-opacity="1" stroke="#000000"/> 		</radialGradient> 	</defs> 	 	<rect id="_A4CB57D3-B31B-490F-A654-51F0CEE5786Btext_frame" oryx:anchors="bottom top right left" x="1" y="1" width="94" height="79" rx="10" ry="10" stroke="none" stroke-width="0" fill="none"/> 	<rect id="_A4CB57D3-B31B-490F-A654-51F0CEE5786Bbg_frame" oryx:resize="vertical horizontal" x="0" y="0" width="100" height="80" rx="10" ry="10" stroke="#000000" stroke-width="1" fill="url(#_A4CB57D3-B31B-490F-A654-51F0CEE5786Bbackground) #ffffcc"/> 		<text font-size="12" id="_A4CB57D3-B31B-490F-A654-51F0CEE5786Btext_name" x="50" y="40" oryx:align="middle center" oryx:fittoelem="text_frame" stroke="black" text-anchor="middle" stroke-width="0pt" letter-spacing="-0.01px" fill="#000000" transform="rotate(0 50 40)" visibility="inherit" oryx:fontSize="12"><tspan x="50" y="40" dy="5" id="ext-gen661">Initialize</tspan></text>     <g id="_A4CB57D3-B31B-490F-A654-51F0CEE5786BmanualTask" transform="scale(0.7,0.7) translate(8,8)" display="none">     	<path oryx:anchors="top left" id="_A4CB57D3-B31B-490F-A654-51F0CEE5786Bframe" style="opacity:1;fill:none;fill-opacity:1;stroke-width:1" d="M0.5,3.751l4.083-3.25c0,0,11.166,0.083,12.083,0.083s-2.417,2.917-1.5,2.917     s11.667,0,12.584,0c1.166,1.708-0.168,3.167-0.834,3.667s0.875,1.917-1,4.417c-0.75,0.25,0.75,1.875-1.333,3.333     c-1.167,0.583,0.583,1.542-1.25,2.833c-1.167,0-20.833,0.083-20.833,0.083l-2-1.333V3.751z" stroke="#000000"/> 		<path id="_A4CB57D3-B31B-490F-A654-51F0CEE5786Bframe2" oryx:anchors="top left" style="opacity:1;fill:none;stroke-width:2" d="M 13.5 7 L 27 7" stroke="#000000"/> 		<path id="_A4CB57D3-B31B-490F-A654-51F0CEE5786Bframe3" oryx:anchors="top left" style="opacity:1;fill:none;stroke-width:2" d="M 13.5 11 L 26 11" stroke="#000000"/> 		<path id="_A4CB57D3-B31B-490F-A654-51F0CEE5786Bframe4" oryx:anchors="top left" style="opacity:1;fill:none;stroke-width:1.5" d="M 14 14.5 L 25 14.5" stroke="#000000"/> 		<path id="_A4CB57D3-B31B-490F-A654-51F0CEE5786Bframe5" oryx:anchors="top left" style="opacity:1;fill:none;stroke-width:1.5" d="M 8.2 3.1 L 15 3.1" stroke="#000000"/> 	</g> 	 	<g id="_A4CB57D3-B31B-490F-A654-51F0CEE5786BbusinessRuleTask" transform="scale(0.7,0.7) translate(8,8)" display="inherit"> 		<rect id="_A4CB57D3-B31B-490F-A654-51F0CEE5786Bframe6" oryx:anchors="top left" x="0" y="0" width="22" height="4" style="opacity:1;fill:#B3B1B3;fill-opacity:1;" stroke="#000000"/> 		<rect id="_A4CB57D3-B31B-490F-A654-51F0CEE5786Bframe7" oryx:anchors="top left" x="0" y="4" style="opacity:1;fill:none;" width="22" height="12" stroke="#000000"/> 		<path id="_A4CB57D3-B31B-490F-A654-51F0CEE5786Bframe8" oryx:anchors="top left" style="opacity:1;fill:none;" d="M 0 10 L 22 10" stroke="#000000"/> 		<path id="_A4CB57D3-B31B-490F-A654-51F0CEE5786Bframe9" oryx:anchors="top left" style="opacity:1; fill:none;" d="M 7 4 L 7 16" stroke="#000000"/> 	</g> 	 	<g id="_A4CB57D3-B31B-490F-A654-51F0CEE5786BscriptTask" transform="scale(0.7,0.7) translate(8,8)" display="none"> 		<path oryx:anchors="top left" id="_A4CB57D3-B31B-490F-A654-51F0CEE5786Bframe10" style="opacity:1;fill:none;" stroke="#000000" d="M6.402,0.5h14.5c0,0-5.833,2.833-5.833,5.583s4.417,6,4.417,9.167    s-4.167,5.083-4.167,5.083H0.235c0,0,5-2.667,5-5s-4.583-6.75-4.583-9.25S6.402,0.5,6.402,0.5z"/> 		<path oryx:anchors="top left" id="_A4CB57D3-B31B-490F-A654-51F0CEE5786Bframe11" style="opacity:1;fill:none;stroke-width:1.5" d="M 3.5 4.5 L 13.5 4.5" stroke="#000000"/> 		<path oryx:anchors="top left" id="_A4CB57D3-B31B-490F-A654-51F0CEE5786Bframe12" style="opacity:1;fill:none;stroke-width:1.5" d="M 3.8 8.5 L 13.8 8.5" stroke="#000000"/> 		<path oryx:anchors="top left" id="_A4CB57D3-B31B-490F-A654-51F0CEE5786Bframe13" style="opacity:1;fill:none;stroke-width:1.5" d="M 6.3 12.5 L 16.3 12.5" stroke="#000000"/> 		<path oryx:anchors="top left" id="_A4CB57D3-B31B-490F-A654-51F0CEE5786Bframe14" style="opacity:1;fill:none;stroke-width:1.5" d="M 6.5 16.5 L 16.5 16.5" stroke="#000000"/> 	</g> 	 	<g id="_A4CB57D3-B31B-490F-A654-51F0CEE5786BuserTask" transform="scale(0.7,0.7) translate(8,8)" display="none"> 		<path id="_A4CB57D3-B31B-490F-A654-51F0CEE5786Bframe15" oryx:anchors="top left" style="opacity:1;fill:#F4F6F7" stroke="#000000" d="M0.585,24.167h24.083v-7.833c0,0-2.333-3.917-7.083-5.167h-9.25    c-4.417,1.333-7.833,5.75-7.833,5.75L0.585,24.167z"/> 		<path id="_A4CB57D3-B31B-490F-A654-51F0CEE5786Bframe16" oryx:anchors="top left" style="opacity:1;fill:none" d="M 6 20 L 6 24" stroke="#000000"/> 		<path id="_A4CB57D3-B31B-490F-A654-51F0CEE5786Bframe17" oryx:anchors="top left" style="opacity:1;fill:none" d="M 20 20 L 20 24" stroke="#000000"/> 		<circle id="_A4CB57D3-B31B-490F-A654-51F0CEE5786Bframe18" oryx:anchors="top left" fill="black" cx="13.002" cy="5.916" r="5.417" stroke="#000000"/> 		<path id="_A4CB57D3-B31B-490F-A654-51F0CEE5786Bframe19" oryx:anchors="top left" style="opacity:1;fill:#F0EFF0;" stroke="#000000" d="M8.043,7.083c0,0,2.814-2.426,5.376-1.807s4.624-0.693,4.624-0.693    c0.25,1.688,0.042,3.75-1.458,5.584c0,0,1.083,0.75,1.083,1.5s0.125,1.875-1,3s-5.5,1.25-6.75,0S8.668,12.834,8.668,12    s0.583-1.25,1.25-1.917C8.835,9.5,7.419,7.708,8.043,7.083z"/> 	</g> 	 	<g id="_A4CB57D3-B31B-490F-A654-51F0CEE5786BserviceTask" transform="scale(0.7,0.7) translate(8,8)" display="none"> 		<polygon oryx:anchors="top left" id="_A4CB57D3-B31B-490F-A654-51F0CEE5786Bframe20" style="opacity:1;fill:#ffffff" stroke="#000000" points="15.392,5.064 17.954,2.502 20.347,4.895 17.786,7.455     18.729,9.732 22.353,9.732 22.353,13.115 18.731,13.115 17.788,15.392 20.351,17.955 17.958,20.347 15.397,17.786 13.12,18.729     13.12,22.353 9.737,22.353 9.737,18.731 7.46,17.788 4.897,20.35 2.506,17.958 5.066,15.397 4.124,13.12 0.5,13.12 0.5,9.737     4.121,9.737 5.065,7.461 2.503,4.898 4.895,2.506 7.455,5.066 9.732,4.125 9.732,0.5 13.116,0.5 13.116,4.121 "/> 		<circle oryx:anchors="top left" id="_A4CB57D3-B31B-490F-A654-51F0CEE5786Bframe21" style="opacity:1;fill:none" stroke="#000000" cx="11.427" cy="11.426" r="3.714"/> 		<polygon oryx:anchors="top left" id="_A4CB57D3-B31B-490F-A654-51F0CEE5786Bframe22" style="opacity:1;fill:#ffffff" stroke="#000000" points="21.392,11.064 23.954,8.502 26.347,10.895 23.786,13.455     24.729,15.732 28.353,15.732 28.353,19.115 24.731,19.115 23.788,21.392 26.351,23.955 23.958,26.347 21.397,23.786 19.12,24.729     19.12,28.353 15.737,28.353 15.737,24.731 13.46,23.788 10.897,26.35 8.506,23.958 11.066,21.397 10.124,19.12 6.5,19.12     6.5,15.737 10.121,15.737 11.065,13.461 8.503,10.898 10.895,8.506 13.455,11.066 15.732,10.125 15.732,6.5 19.116,6.5     19.116,10.121 "/> 		<circle oryx:anchors="top left" id="_A4CB57D3-B31B-490F-A654-51F0CEE5786Bframe23" style="opacity:1;fill:none;" stroke="#000000" cx="17.427" cy="17.426" r="3.714"/> 	</g> 	 	<g id="_A4CB57D3-B31B-490F-A654-51F0CEE5786BsendTask" display="none"> 		<path id="_A4CB57D3-B31B-490F-A654-51F0CEE5786Bstframe24" oryx:anchors="left top" stroke="#FFFFFF" fill="black" stroke-width="1" d="M8,11 L8,21 L24,21 L24,11 L16,17z"/> 		<path id="_A4CB57D3-B31B-490F-A654-51F0CEE5786Bstframe25" oryx:anchors="left top" stroke="#FFFFFF" fill="black" stroke-width="1" d="M7,10 L16,17 L25 10z"/> 	</g> 	 	<g id="_A4CB57D3-B31B-490F-A654-51F0CEE5786BreceiveTask" display="none"> 		<path id="_A4CB57D3-B31B-490F-A654-51F0CEE5786Bframe26" oryx:anchors="left top" stroke="#000000" fill="none" stroke-width="1" d="M8,11 L8,21 L24,21 L24,11z M8,11 L16,17 L24,11"/> 	</g> 	 	<g id="_A4CB57D3-B31B-490F-A654-51F0CEE5786Bnone" display="inherit"/>  	<g id="_A4CB57D3-B31B-490F-A654-51F0CEE5786Bsequential" display="none">         <path oryx:anchors="bottom" fill="none" stroke="#000000" stroke-width="2" d="M46,76h10M46,72h10 M46,68h10" id="_A4CB57D3-B31B-490F-A654-51F0CEE5786B__A4CB57D3-B31B-490F-A654-51F0CEE5786B_20"/>     </g>   </g></g><g class="children" style="overflow:hidden"/><g class="edge"/></g><g class="controls"><g class="dockers"/><g class="magnets" transform="translate(210, 135)"><g pointer-events="all" display="none" transform="translate(-7, 12)"><circle cx="8" cy="8" r="4" stroke="none" fill="red" fill-opacity="0.3"/></g><g pointer-events="all" display="none" transform="translate(-7, 32)"><circle cx="8" cy="8" r="4" stroke="none" fill="red" fill-opacity="0.3"/></g><g pointer-events="all" display="none" transform="translate(-7, 52)"><circle cx="8" cy="8" r="4" stroke="none" fill="red" fill-opacity="0.3"/></g><g pointer-events="all" display="none" transform="translate(17, 71)"><circle cx="8" cy="8" r="4" stroke="none" fill="red" fill-opacity="0.3"/></g><g pointer-events="all" display="none" transform="translate(42, 71)"><circle cx="8" cy="8" r="4" stroke="none" fill="red" fill-opacity="0.3"/></g><g pointer-events="all" display="none" transform="translate(67, 71)"><circle cx="8" cy="8" r="4" stroke="none" fill="red" fill-opacity="0.3"/></g><g pointer-events="all" display="none" transform="translate(91, 12)"><circle cx="8" cy="8" r="4" stroke="none" fill="red" fill-opacity="0.3"/></g><g pointer-events="all" display="none" transform="translate(91, 32)"><circle cx="8" cy="8" r="4" stroke="none" fill="red" fill-opacity="0.3"/></g><g pointer-events="all" display="none" transform="translate(91, 52)"><circle cx="8" cy="8" r="4" stroke="none" fill="red" fill-opacity="0.3"/></g><g pointer-events="all" display="none" transform="translate(17, -7)"><circle cx="8" cy="8" r="4" stroke="none" fill="red" fill-opacity="0.3"/></g><g pointer-events="all" display="none" transform="translate(42, -7)"><circle cx="8" cy="8" r="4" stroke="none" fill="red" fill-opacity="0.3"/></g><g pointer-events="all" display="none" transform="translate(67, -7)"><circle cx="8" cy="8" r="4" stroke="none" fill="red" fill-opacity="0.3"/></g><g pointer-events="all" display="none" transform="translate(42, 32)"><circle cx="8" cy="8" r="4" stroke="none" fill="red" fill-opacity="0.3"/></g></g></g></g><g id="_9948E38C-784F-4C8C-B862-2BCE147F7258" bpmn2nodeid="_8FED164F-8547-4754-9DF0-D61316C7CB06"><g class="stencils" transform="translate(571, 285)"><g class="me"><g pointer-events="fill" id="_9948E38C-784F-4C8C-B862-2BCE147F7258">      <defs id="_9948E38C-784F-4C8C-B862-2BCE147F7258__9948E38C-784F-4C8C-B862-2BCE147F7258_5"> 		<radialGradient id="_9948E38C-784F-4C8C-B862-2BCE147F7258background" cx="10%" cy="10%" r="100%" fx="10%" fy="10%"> 			<stop offset="0%" stop-color="#ffffff" stop-opacity="1" id="_9948E38C-784F-4C8C-B862-2BCE147F7258__9948E38C-784F-4C8C-B862-2BCE147F7258_6"/> 			<stop id="_9948E38C-784F-4C8C-B862-2BCE147F7258fill_el" offset="100%" stop-color="#ff6347" stop-opacity="1"/> 		</radialGradient> 	</defs> 	     <circle id="_9948E38C-784F-4C8C-B862-2BCE147F7258bg_frame" cx="14" cy="14" r="14" stroke="#000000" fill="url(#_9948E38C-784F-4C8C-B862-2BCE147F7258background) white" stroke-width="3"/> 	<text font-size="11" id="_9948E38C-784F-4C8C-B862-2BCE147F7258text_name" x="14" y="30" oryx:align="top center" stroke="black" stroke-width="0pt" letter-spacing="-0.01px" fill="#000000" text-anchor="middle" transform="rotate(0 14 30)" visibility="inherit" oryx:fontSize="11"/>   </g></g><g class="children" style="overflow:hidden"/><g class="edge"/></g><g class="controls"><g class="dockers"/><g class="magnets" transform="translate(571, 285)"><g pointer-events="all" display="none" transform="translate(6, 6)"><circle cx="8" cy="8" r="4" stroke="none" fill="red" fill-opacity="0.3"/></g></g></g></g><g id="_4081F011-D496-4E2F-A4FC-32EB02F5572E" bpmn2nodeid="_5DF14411-8123-4A74-B354-1019CD87CDA0"><g class="stencils" transform="translate(405, 135)"><g class="me"><g pointer-events="fill" oryx:minimumSize="50 40" id="_4081F011-D496-4E2F-A4FC-32EB02F5572E">   	<defs id="_4081F011-D496-4E2F-A4FC-32EB02F5572E__4081F011-D496-4E2F-A4FC-32EB02F5572E_17"> 		<radialGradient id="_4081F011-D496-4E2F-A4FC-32EB02F5572Ebackground" cx="10%" cy="10%" r="100%" fx="10%" fy="10%"> 			<stop offset="0%" stop-color="#ffffff" stop-opacity="1" id="_4081F011-D496-4E2F-A4FC-32EB02F5572E__4081F011-D496-4E2F-A4FC-32EB02F5572E_18"/> 			<stop id="_4081F011-D496-4E2F-A4FC-32EB02F5572Efill_el" offset="100%" stop-color="#fafad2" stop-opacity="1"/> 		</radialGradient> 		<radialGradient id="_4081F011-D496-4E2F-A4FC-32EB02F5572Eborderbackground" cx="10%" cy="10%" r="100%" fx="10%" fy="10%"> 			<stop offset="0%" stop-color="#ffffff" stop-opacity="1" id="_4081F011-D496-4E2F-A4FC-32EB02F5572E__4081F011-D496-4E2F-A4FC-32EB02F5572E_19"/> 			<stop id="_4081F011-D496-4E2F-A4FC-32EB02F5572Efill_border" offset="100%" stop-color="#000000" stop-opacity="1" stroke="#000000"/> 		</radialGradient> 	</defs> 	 	<rect id="_4081F011-D496-4E2F-A4FC-32EB02F5572Etext_frame" oryx:anchors="bottom top right left" x="1" y="1" width="94" height="79" rx="10" ry="10" stroke="none" stroke-width="0" fill="none"/> 	<rect id="_4081F011-D496-4E2F-A4FC-32EB02F5572Ebg_frame" oryx:resize="vertical horizontal" x="0" y="0" width="100" height="80" rx="10" ry="10" stroke="#000000" stroke-width="1" fill="url(#_4081F011-D496-4E2F-A4FC-32EB02F5572Ebackground) #ffffcc"/> 		<text font-size="12" id="_4081F011-D496-4E2F-A4FC-32EB02F5572Etext_name" x="50" y="40" oryx:align="middle center" oryx:fittoelem="text_frame" stroke="black" text-anchor="middle" stroke-width="0pt" letter-spacing="-0.01px" fill="#000000" transform="rotate(0 50 40)" visibility="inherit" oryx:fontSize="12"><tspan x="50" y="40" dy="5" id="ext-gen675">Valid Order</tspan></text>     <g id="_4081F011-D496-4E2F-A4FC-32EB02F5572EmanualTask" transform="scale(0.7,0.7) translate(8,8)" display="none">     	<path oryx:anchors="top left" id="_4081F011-D496-4E2F-A4FC-32EB02F5572Eframe" style="opacity:1;fill:none;fill-opacity:1;stroke-width:1" d="M0.5,3.751l4.083-3.25c0,0,11.166,0.083,12.083,0.083s-2.417,2.917-1.5,2.917     s11.667,0,12.584,0c1.166,1.708-0.168,3.167-0.834,3.667s0.875,1.917-1,4.417c-0.75,0.25,0.75,1.875-1.333,3.333     c-1.167,0.583,0.583,1.542-1.25,2.833c-1.167,0-20.833,0.083-20.833,0.083l-2-1.333V3.751z" stroke="#000000"/> 		<path id="_4081F011-D496-4E2F-A4FC-32EB02F5572Eframe2" oryx:anchors="top left" style="opacity:1;fill:none;stroke-width:2" d="M 13.5 7 L 27 7" stroke="#000000"/> 		<path id="_4081F011-D496-4E2F-A4FC-32EB02F5572Eframe3" oryx:anchors="top left" style="opacity:1;fill:none;stroke-width:2" d="M 13.5 11 L 26 11" stroke="#000000"/> 		<path id="_4081F011-D496-4E2F-A4FC-32EB02F5572Eframe4" oryx:anchors="top left" style="opacity:1;fill:none;stroke-width:1.5" d="M 14 14.5 L 25 14.5" stroke="#000000"/> 		<path id="_4081F011-D496-4E2F-A4FC-32EB02F5572Eframe5" oryx:anchors="top left" style="opacity:1;fill:none;stroke-width:1.5" d="M 8.2 3.1 L 15 3.1" stroke="#000000"/> 	</g> 	 	<g id="_4081F011-D496-4E2F-A4FC-32EB02F5572EbusinessRuleTask" transform="scale(0.7,0.7) translate(8,8)" display="inherit"> 		<rect id="_4081F011-D496-4E2F-A4FC-32EB02F5572Eframe6" oryx:anchors="top left" x="0" y="0" width="22" height="4" style="opacity:1;fill:#B3B1B3;fill-opacity:1;" stroke="#000000"/> 		<rect id="_4081F011-D496-4E2F-A4FC-32EB02F5572Eframe7" oryx:anchors="top left" x="0" y="4" style="opacity:1;fill:none;" width="22" height="12" stroke="#000000"/> 		<path id="_4081F011-D496-4E2F-A4FC-32EB02F5572Eframe8" oryx:anchors="top left" style="opacity:1;fill:none;" d="M 0 10 L 22 10" stroke="#000000"/> 		<path id="_4081F011-D496-4E2F-A4FC-32EB02F5572Eframe9" oryx:anchors="top left" style="opacity:1; fill:none;" d="M 7 4 L 7 16" stroke="#000000"/> 	</g> 	 	<g id="_4081F011-D496-4E2F-A4FC-32EB02F5572EscriptTask" transform="scale(0.7,0.7) translate(8,8)" display="none"> 		<path oryx:anchors="top left" id="_4081F011-D496-4E2F-A4FC-32EB02F5572Eframe10" style="opacity:1;fill:none;" stroke="#000000" d="M6.402,0.5h14.5c0,0-5.833,2.833-5.833,5.583s4.417,6,4.417,9.167    s-4.167,5.083-4.167,5.083H0.235c0,0,5-2.667,5-5s-4.583-6.75-4.583-9.25S6.402,0.5,6.402,0.5z"/> 		<path oryx:anchors="top left" id="_4081F011-D496-4E2F-A4FC-32EB02F5572Eframe11" style="opacity:1;fill:none;stroke-width:1.5" d="M 3.5 4.5 L 13.5 4.5" stroke="#000000"/> 		<path oryx:anchors="top left" id="_4081F011-D496-4E2F-A4FC-32EB02F5572Eframe12" style="opacity:1;fill:none;stroke-width:1.5" d="M 3.8 8.5 L 13.8 8.5" stroke="#000000"/> 		<path oryx:anchors="top left" id="_4081F011-D496-4E2F-A4FC-32EB02F5572Eframe13" style="opacity:1;fill:none;stroke-width:1.5" d="M 6.3 12.5 L 16.3 12.5" stroke="#000000"/> 		<path oryx:anchors="top left" id="_4081F011-D496-4E2F-A4FC-32EB02F5572Eframe14" style="opacity:1;fill:none;stroke-width:1.5" d="M 6.5 16.5 L 16.5 16.5" stroke="#000000"/> 	</g> 	 	<g id="_4081F011-D496-4E2F-A4FC-32EB02F5572EuserTask" transform="scale(0.7,0.7) translate(8,8)" display="none"> 		<path id="_4081F011-D496-4E2F-A4FC-32EB02F5572Eframe15" oryx:anchors="top left" style="opacity:1;fill:#F4F6F7" stroke="#000000" d="M0.585,24.167h24.083v-7.833c0,0-2.333-3.917-7.083-5.167h-9.25    c-4.417,1.333-7.833,5.75-7.833,5.75L0.585,24.167z"/> 		<path id="_4081F011-D496-4E2F-A4FC-32EB02F5572Eframe16" oryx:anchors="top left" style="opacity:1;fill:none" d="M 6 20 L 6 24" stroke="#000000"/> 		<path id="_4081F011-D496-4E2F-A4FC-32EB02F5572Eframe17" oryx:anchors="top left" style="opacity:1;fill:none" d="M 20 20 L 20 24" stroke="#000000"/> 		<circle id="_4081F011-D496-4E2F-A4FC-32EB02F5572Eframe18" oryx:anchors="top left" fill="black" cx="13.002" cy="5.916" r="5.417" stroke="#000000"/> 		<path id="_4081F011-D496-4E2F-A4FC-32EB02F5572Eframe19" oryx:anchors="top left" style="opacity:1;fill:#F0EFF0;" stroke="#000000" d="M8.043,7.083c0,0,2.814-2.426,5.376-1.807s4.624-0.693,4.624-0.693    c0.25,1.688,0.042,3.75-1.458,5.584c0,0,1.083,0.75,1.083,1.5s0.125,1.875-1,3s-5.5,1.25-6.75,0S8.668,12.834,8.668,12    s0.583-1.25,1.25-1.917C8.835,9.5,7.419,7.708,8.043,7.083z"/> 	</g> 	 	<g id="_4081F011-D496-4E2F-A4FC-32EB02F5572EserviceTask" transform="scale(0.7,0.7) translate(8,8)" display="none"> 		<polygon oryx:anchors="top left" id="_4081F011-D496-4E2F-A4FC-32EB02F5572Eframe20" style="opacity:1;fill:#ffffff" stroke="#000000" points="15.392,5.064 17.954,2.502 20.347,4.895 17.786,7.455     18.729,9.732 22.353,9.732 22.353,13.115 18.731,13.115 17.788,15.392 20.351,17.955 17.958,20.347 15.397,17.786 13.12,18.729     13.12,22.353 9.737,22.353 9.737,18.731 7.46,17.788 4.897,20.35 2.506,17.958 5.066,15.397 4.124,13.12 0.5,13.12 0.5,9.737     4.121,9.737 5.065,7.461 2.503,4.898 4.895,2.506 7.455,5.066 9.732,4.125 9.732,0.5 13.116,0.5 13.116,4.121 "/> 		<circle oryx:anchors="top left" id="_4081F011-D496-4E2F-A4FC-32EB02F5572Eframe21" style="opacity:1;fill:none" stroke="#000000" cx="11.427" cy="11.426" r="3.714"/> 		<polygon oryx:anchors="top left" id="_4081F011-D496-4E2F-A4FC-32EB02F5572Eframe22" style="opacity:1;fill:#ffffff" stroke="#000000" points="21.392,11.064 23.954,8.502 26.347,10.895 23.786,13.455     24.729,15.732 28.353,15.732 28.353,19.115 24.731,19.115 23.788,21.392 26.351,23.955 23.958,26.347 21.397,23.786 19.12,24.729     19.12,28.353 15.737,28.353 15.737,24.731 13.46,23.788 10.897,26.35 8.506,23.958 11.066,21.397 10.124,19.12 6.5,19.12     6.5,15.737 10.121,15.737 11.065,13.461 8.503,10.898 10.895,8.506 13.455,11.066 15.732,10.125 15.732,6.5 19.116,6.5     19.116,10.121 "/> 		<circle oryx:anchors="top left" id="_4081F011-D496-4E2F-A4FC-32EB02F5572Eframe23" style="opacity:1;fill:none;" stroke="#000000" cx="17.427" cy="17.426" r="3.714"/> 	</g> 	 	<g id="_4081F011-D496-4E2F-A4FC-32EB02F5572EsendTask" display="none"> 		<path id="_4081F011-D496-4E2F-A4FC-32EB02F5572Estframe24" oryx:anchors="left top" stroke="#FFFFFF" fill="black" stroke-width="1" d="M8,11 L8,21 L24,21 L24,11 L16,17z"/> 		<path id="_4081F011-D496-4E2F-A4FC-32EB02F5572Estframe25" oryx:anchors="left top" stroke="#FFFFFF" fill="black" stroke-width="1" d="M7,10 L16,17 L25 10z"/> 	</g> 	 	<g id="_4081F011-D496-4E2F-A4FC-32EB02F5572EreceiveTask" display="none"> 		<path id="_4081F011-D496-4E2F-A4FC-32EB02F5572Eframe26" oryx:anchors="left top" stroke="#000000" fill="none" stroke-width="1" d="M8,11 L8,21 L24,21 L24,11z M8,11 L16,17 L24,11"/> 	</g> 	 	<g id="_4081F011-D496-4E2F-A4FC-32EB02F5572Enone" display="inherit"/>  	<g id="_4081F011-D496-4E2F-A4FC-32EB02F5572Esequential" display="none">         <path oryx:anchors="bottom" fill="none" stroke="#000000" stroke-width="2" d="M46,76h10M46,72h10 M46,68h10" id="_4081F011-D496-4E2F-A4FC-32EB02F5572E__4081F011-D496-4E2F-A4FC-32EB02F5572E_20"/>     </g>   </g></g><g class="children" style="overflow:hidden"/><g class="edge"/></g><g class="controls"><g class="dockers"/><g class="magnets" transform="translate(405, 135)"><g pointer-events="all" display="none" transform="translate(-7, 12)"><circle cx="8" cy="8" r="4" stroke="none" fill="red" fill-opacity="0.3"/></g><g pointer-events="all" display="none" transform="translate(-7, 32)"><circle cx="8" cy="8" r="4" stroke="none" fill="red" fill-opacity="0.3"/></g><g pointer-events="all" display="none" transform="translate(-7, 52)"><circle cx="8" cy="8" r="4" stroke="none" fill="red" fill-opacity="0.3"/></g><g pointer-events="all" display="none" transform="translate(17, 71)"><circle cx="8" cy="8" r="4" stroke="none" fill="red" fill-opacity="0.3"/></g><g pointer-events="all" display="none" transform="translate(42, 71)"><circle cx="8" cy="8" r="4" stroke="none" fill="red" fill-opacity="0.3"/></g><g pointer-events="all" display="none" transform="translate(67, 71)"><circle cx="8" cy="8" r="4" stroke="none" fill="red" fill-opacity="0.3"/></g><g pointer-events="all" display="none" transform="translate(91, 12)"><circle cx="8" cy="8" r="4" stroke="none" fill="red" fill-opacity="0.3"/></g><g pointer-events="all" display="none" transform="translate(91, 32)"><circle cx="8" cy="8" r="4" stroke="none" fill="red" fill-opacity="0.3"/></g><g pointer-events="all" display="none" transform="translate(91, 52)"><circle cx="8" cy="8" r="4" stroke="none" fill="red" fill-opacity="0.3"/></g><g pointer-events="all" display="none" transform="translate(17, -7)"><circle cx="8" cy="8" r="4" stroke="none" fill="red" fill-opacity="0.3"/></g><g pointer-events="all" display="none" transform="translate(42, -7)"><circle cx="8" cy="8" r="4" stroke="none" fill="red" fill-opacity="0.3"/></g><g pointer-events="all" display="none" transform="translate(67, -7)"><circle cx="8" cy="8" r="4" stroke="none" fill="red" fill-opacity="0.3"/></g><g pointer-events="all" display="none" transform="translate(42, 32)"><circle cx="8" cy="8" r="4" stroke="none" fill="red" fill-opacity="0.3"/></g></g></g></g><g id="_ABAE46CD-F052-4747-BF99-50341B7053DD" bpmn2nodeid="_BD74BE8C-08DE-45BE-838C-9B6E03D4D72A"><g class="stencils" transform="translate(565, 160)"><g class="me"><g id="_ABAE46CD-F052-4747-BF99-50341B7053DD">        <defs id="_ABAE46CD-F052-4747-BF99-50341B7053DD__ABAE46CD-F052-4747-BF99-50341B7053DD_4"> 		<radialGradient id="_ABAE46CD-F052-4747-BF99-50341B7053DDbackground" cx="10%" cy="10%" r="100%" fx="10%" fy="10%"> 			<stop offset="0%" stop-color="#ffffff" stop-opacity="1" id="_ABAE46CD-F052-4747-BF99-50341B7053DD__ABAE46CD-F052-4747-BF99-50341B7053DD_5"/> 			<stop id="_ABAE46CD-F052-4747-BF99-50341B7053DDfill_el" offset="100%" stop-color="#f0e68c" stop-opacity="1"/> 		</radialGradient> 		<radialGradient id="_ABAE46CD-F052-4747-BF99-50341B7053DDborderbackground" cx="10%" cy="10%" r="100%" fx="10%" fy="10%"> 			<stop offset="0%" stop-color="#ffffff" stop-opacity="1" id="_ABAE46CD-F052-4747-BF99-50341B7053DD__ABAE46CD-F052-4747-BF99-50341B7053DD_6"/> 			<stop id="_ABAE46CD-F052-4747-BF99-50341B7053DDfill_border" offset="100%" stop-color="#a67f00" stop-opacity="1" stroke="#a67f00"/> 		</radialGradient> 	</defs> 	     <path d=" M0 20.5  L20.5 0  L40 20.5  L20.5 40  z" id="_ABAE46CD-F052-4747-BF99-50341B7053DDbg_frame" fill="url(#_ABAE46CD-F052-4747-BF99-50341B7053DDbackground) white" style="stroke-width:1" stroke="#a67f00"/>     <g id="_ABAE46CD-F052-4747-BF99-50341B7053DDframe" stroke="#a67f00">       <path id="_ABAE46CD-F052-4747-BF99-50341B7053DDframe2" d=" M13.25 12.05  L17.25 12.05  L27.65 28.95  L23.75 28.95  z" style="stroke-width:1" stroke="#a67f00" fill="url(#_ABAE46CD-F052-4747-BF99-50341B7053DDborderbackground)"/>       <path id="_ABAE46CD-F052-4747-BF99-50341B7053DDframe3" d=" M13.25 28.95  L23.75 12.05  L27.65 12.05  L17.25 28.95  z" style="stroke-width:1" stroke="#a67f00" fill="url(#_ABAE46CD-F052-4747-BF99-50341B7053DDborderbackground)"/>     </g> 	 	<text id="_ABAE46CD-F052-4747-BF99-50341B7053DDtext_name" x="30.5" y="30.5" oryx:align="left top" stroke-width="0pt" letter-spacing="-0.01px" fill="#000000" text-anchor="start" transform="rotate(0 30.5 30.5)" visibility="inherit" oryx:fontSize="12"><tspan x="30.5" y="30.5" dy="12">valid?</tspan></text> 	   </g></g><g class="children" style="overflow:hidden"/><g class="edge"/></g><g class="controls"><g class="dockers"/><g class="magnets" transform="translate(565, 160)"><g pointer-events="all" display="none" transform="translate(12.5, 12.5)"><circle cx="8" cy="8" r="4" stroke="none" fill="red" fill-opacity="0.3"/></g></g></g></g><g id="_A3A0D713-1AE9-4446-8478-455AA2F0A278" bpmn2nodeid="_29858477-35B6-4E45-9AFE-C079D7EAFDC2"><g class="stencils" transform="translate(675, 166)"><g class="me"><g pointer-events="fill" id="_A3A0D713-1AE9-4446-8478-455AA2F0A278">      <defs id="_A3A0D713-1AE9-4446-8478-455AA2F0A278__A3A0D713-1AE9-4446-8478-455AA2F0A278_5"> 		<radialGradient id="_A3A0D713-1AE9-4446-8478-455AA2F0A278background" cx="10%" cy="10%" r="100%" fx="10%" fy="10%"> 			<stop offset="0%" stop-color="#ffffff" stop-opacity="1" id="_A3A0D713-1AE9-4446-8478-455AA2F0A278__A3A0D713-1AE9-4446-8478-455AA2F0A278_6"/> 			<stop id="_A3A0D713-1AE9-4446-8478-455AA2F0A278fill_el" offset="100%" stop-color="#ff6347" stop-opacity="1"/> 		</radialGradient> 	</defs> 	     <circle id="_A3A0D713-1AE9-4446-8478-455AA2F0A278bg_frame" cx="14" cy="14" r="14" stroke="#000000" fill="url(#_A3A0D713-1AE9-4446-8478-455AA2F0A278background) white" stroke-width="3"/> 	<text font-size="11" id="_A3A0D713-1AE9-4446-8478-455AA2F0A278text_name" x="14" y="30" oryx:align="top center" stroke="black" stroke-width="0pt" letter-spacing="-0.01px" fill="#000000" text-anchor="middle" transform="rotate(0 14 30)" visibility="inherit" oryx:fontSize="11"/>   </g></g><g class="children" style="overflow:hidden"/><g class="edge"/></g><g class="controls"><g class="dockers"/><g class="magnets" transform="translate(675, 166)"><g pointer-events="all" display="none" transform="translate(6, 6)"><circle cx="8" cy="8" r="4" stroke="none" fill="red" fill-opacity="0.3"/></g></g></g></g></g><g class="edge"><g id="_D979D61C-4663-47A3-AF32-8D91E84AC706" bpmn2nodeid="_AF94964A-1267-4488-858C-85066638283C"><g class="stencils"><g class="me"><g pointer-events="painted" bpmn2nodeid="_582824DA-8665-4828-B5F9-D18AC3D3DE98"><path id="_D979D61C-4663-47A3-AF32-8D91E84AC706_1" d="M150.6476384587218 179.37409446165114L209.1961115412782 177.03215553834886 " stroke="#000000" fill="none" stroke-width="2" stroke-linecap="round" stroke-linejoin="round" marker-start="url(#_D979D61C-4663-47A3-AF32-8D91E84AC706start)" marker-end="url(#_D979D61C-4663-47A3-AF32-8D91E84AC706end)"/></g><text id="_D979D61C-4663-47A3-AF32-8D91E84AC706text_name" font-size="12" x="164.6476384587218" y="165.37409446165114" oryx:edgePosition="startTop" stroke-width="0pt" letter-spacing="-0.01px" fill="#000000" text-anchor="start" transform="rotate(357.70938995736145 150.6476384587218 179.37409446165114)" visibility="inherit" oryx:fontSize="12"/></g><g class="children" style="overflow:hidden"/><g class="edge"/></g><g class="controls"><g class="dockers"/><g class="magnets"/></g></g><g id="_F926051D-4AB6-4DF6-9AFB-EECEE7BB260C" bpmn2nodeid="_B2EF91E6-494F-4958-AB99-CABBAE93B7C2"><g class="stencils"><g class="me"><g pointer-events="painted" bpmn2nodeid="_40C8397B-19CE-48F2-85A4-69F1C13FA940"><path id="_F926051D-4AB6-4DF6-9AFB-EECEE7BB260C_1" d="M505.76488617463133 176.9524956221012L565.7194888253687 179.2584418778988 " stroke="#000000" fill="none" stroke-width="2" stroke-linecap="round" stroke-linejoin="round" marker-start="url(#_F926051D-4AB6-4DF6-9AFB-EECEE7BB260Cstart)" marker-end="url(#_F926051D-4AB6-4DF6-9AFB-EECEE7BB260Cend)"/></g><text id="_F926051D-4AB6-4DF6-9AFB-EECEE7BB260Ctext_name" font-size="12" x="519.7648861746313" y="162.9524956221012" oryx:edgePosition="startTop" stroke-width="0pt" letter-spacing="-0.01px" fill="#000000" text-anchor="start" transform="rotate(2.2025981617658204 505.76488617463133 176.9524956221012)" visibility="inherit" oryx:fontSize="12"/></g><g class="children" style="overflow:hidden"/><g class="edge"/></g><g class="controls"><g class="dockers"/><g class="magnets"/></g></g><g id="_2F03C80F-814E-409C-AB59-5331D1F2B798" bpmn2nodeid="_F2F63060-1F4D-4A2D-98B8-F4499EA794E8"><g class="stencils"><g class="me"><g pointer-events="painted" bpmn2nodeid="_5BF2FCA6-D438-4DC4-8439-8B310E533F42"><path id="_2F03C80F-814E-409C-AB59-5331D1F2B798_1" d="M605.5 180L675 180 " stroke="#000000" fill="none" stroke-width="2" stroke-linecap="round" stroke-linejoin="round" marker-start="url(#_2F03C80F-814E-409C-AB59-5331D1F2B798start)" marker-end="url(#_2F03C80F-814E-409C-AB59-5331D1F2B798end)"/></g><text id="_2F03C80F-814E-409C-AB59-5331D1F2B798text_name" font-size="12" x="619.5" y="166" oryx:edgePosition="startTop" stroke-width="0pt" letter-spacing="-0.01px" fill="#000000" text-anchor="start" transform="rotate(360 605.5 180)" visibility="inherit" oryx:fontSize="12"><tspan x="619.5" y="166" dy="0">yes</tspan></text></g><g class="children" style="overflow:hidden"/><g class="edge"/></g><g class="controls"><g class="dockers"/><g class="magnets"/></g></g><g id="_ACB16656-4F1C-4BCA-8DCB-B502F83B323F" bpmn2nodeid="_E4EC965B-4B62-4825-A60E-6AEB989BDE8A"><g class="stencils"><g class="me"><g pointer-events="painted" bpmn2nodeid="_AEFBA952-F4CF-46FE-9F07-67FF35BB5D85"><path id="_ACB16656-4F1C-4BCA-8DCB-B502F83B323F_1" d="M585 199.59375L585 284.984375 " stroke="#000000" fill="none" stroke-width="2" stroke-linecap="round" stroke-linejoin="round" marker-start="url(#_ACB16656-4F1C-4BCA-8DCB-B502F83B323Fstart)" marker-end="url(#_ACB16656-4F1C-4BCA-8DCB-B502F83B323Fend)"/></g><text id="_ACB16656-4F1C-4BCA-8DCB-B502F83B323Ftext_name" font-size="12" x="571" y="185.59375" oryx:edgePosition="startTop" stroke-width="0pt" letter-spacing="-0.01px" fill="#000000" text-anchor="end" transform="rotate(-90 585 199.59375)" visibility="inherit" oryx:fontSize="12"><tspan x="571" y="185.59375" dy="0">no</tspan></text></g><g class="children" style="overflow:hidden"/><g class="edge"/></g><g class="controls"><g class="dockers"/><g class="magnets"/></g></g><g id="_E28B4274-1FF7-48BD-930E-2DB9DDBAAF77" bpmn2nodeid="_4E208B80-D9CB-4D6B-9071-4C938CC151C3"><g class="stencils"><g class="me"><g pointer-events="painted" bpmn2nodeid="_4E208B80-D9CB-4D6B-9071-4C938CC151C3"><path id="_E28B4274-1FF7-48BD-930E-2DB9DDBAAF77_1" d="M310.51171875 175L404.48828125 175 " stroke="#000000" fill="none" stroke-width="2" stroke-linecap="round" stroke-linejoin="round" marker-start="url(#_E28B4274-1FF7-48BD-930E-2DB9DDBAAF77start)" marker-end="url(#_E28B4274-1FF7-48BD-930E-2DB9DDBAAF77end)"/></g><text id="_E28B4274-1FF7-48BD-930E-2DB9DDBAAF77text_name" font-size="12" x="324.51171875" y="161" oryx:edgePosition="startTop" stroke-width="0pt" letter-spacing="-0.01px" fill="#000000" text-anchor="start" transform="rotate(360 310.51171875 175)" visibility="inherit" oryx:fontSize="12"/></g><g class="children" style="overflow:hidden"/><g class="edge"/></g><g class="controls"><g class="dockers"/><g class="magnets"/></g></g></g><text id="_77BAB182-C0DD-4D74-B599-14DC37FDB77F" style="stroke-width:1;fill:rgb(177,194,214);font-family:arial;font-weight:bold" font-size="12" onclick="ORYX.Plugins.CanvasTitle.openTextualAnalysis()" onmouseover="ORYX.Plugins.CanvasTitle.addToolTip('_77BAB182-C0DD-4D74-B599-14DC37FDB77F')" transform="translate(10, 20)">DMServiceManifestoProcess v.1.0 (com.myspace.pocservicemanifesto.DMServiceManifestoProcess)</text></g></g></svg>