<svg xmlns="http://www.w3.org/2000/svg" xmlns:oryx="http://oryx-editor.org" id="_AD537E6C-F871-4756-8377-327DAC9D4D85" width="743" height="354" xmlns:xlink="http://www.w3.org/1999/xlink" xmlns:svg="http://www.w3.org/2000/svg"><defs><marker id="_A83E510D-696F-4CF5-BEFB-9D6D4118AFD8start" refX="1" refY="5" markerUnits="userSpaceOnUse" markerWidth="17" markerHeight="11" orient="auto" fill="#000000" stroke="#000000"> 	  		<path id="_A83E510D-696F-4CF5-BEFB-9D6D4118AFD8conditional" d="M 0 5 L 8 0 L 16 5 L 8 10 L 0 5" fill="white" stroke="#000000" stroke-width="1" display="none"/> 			<path id="_A83E510D-696F-4CF5-BEFB-9D6D4118AFD8default" d="M 5 0 L 11 10" fill="white" stroke="#000000" stroke-width="1" display="none"/> 	  	</marker><marker id="_A83E510D-696F-4CF5-BEFB-9D6D4118AFD8end" refX="15" refY="6" markerUnits="userSpaceOnUse" markerWidth="15" markerHeight="12" orient="auto" fill="#000000" stroke="#000000"> 	  		<path id="_A83E510D-696F-4CF5-BEFB-9D6D4118AFD8frame2" d="M 0 1 L 15 6 L 0 11z" fill="#000000" stroke="#000000" stroke-linejoin="round" stroke-width="2"/> 	  	</marker><marker id="_64DC2699-D295-4539-AE20-997A37957C87start" refX="1" refY="5" markerUnits="userSpaceOnUse" markerWidth="17" markerHeight="11" orient="auto" fill="#000000" stroke="#000000"> 	  		<path id="_64DC2699-D295-4539-AE20-997A37957C87conditional" d="M 0 5 L 8 0 L 16 5 L 8 10 L 0 5" fill="white" stroke="#000000" stroke-width="1" display="none"/> 			<path id="_64DC2699-D295-4539-AE20-997A37957C87default" d="M 5 0 L 11 10" fill="white" stroke="#000000" stroke-width="1" display="none"/> 	  	</marker><marker id="_64DC2699-D295-4539-AE20-997A37957C87end" refX="15" refY="6" markerUnits="userSpaceOnUse" markerWidth="15" markerHeight="12" orient="auto" fill="#000000" stroke="#000000"> 	  		<path id="_64DC2699-D295-4539-AE20-997A37957C87frame2" d="M 0 1 L 15 6 L 0 11z" fill="#000000" stroke="#000000" stroke-linejoin="round" stroke-width="2"/> 	  	</marker><marker id="_593813C2-6872-48DB-AD68-CE40FAD788F9start" refX="1" refY="5" markerUnits="userSpaceOnUse" markerWidth="17" markerHeight="11" orient="auto" fill="#000000" stroke="#000000"> 	  		<path id="_593813C2-6872-48DB-AD68-CE40FAD788F9conditional" d="M 0 5 L 8 0 L 16 5 L 8 10 L 0 5" fill="white" stroke="#000000" stroke-width="1" display="none"/> 			<path id="_593813C2-6872-48DB-AD68-CE40FAD788F9default" d="M 5 0 L 11 10" fill="white" stroke="#000000" stroke-width="1" display="none"/> 	  	</marker><marker id="_593813C2-6872-48DB-AD68-CE40FAD788F9end" refX="15" refY="6" markerUnits="userSpaceOnUse" markerWidth="15" markerHeight="12" orient="auto" fill="#000000" stroke="#000000"> 	  		<path id="_593813C2-6872-48DB-AD68-CE40FAD788F9frame2" d="M 0 1 L 15 6 L 0 11z" fill="#000000" stroke="#000000" stroke-linejoin="round" stroke-width="2"/> 	  	</marker><marker id="_813CD4E6-8859-492B-AA7F-BB43F6115FE6start" refX="1" refY="5" markerUnits="userSpaceOnUse" markerWidth="17" markerHeight="11" orient="auto" fill="#000000" stroke="#000000"> 	  		<path id="_813CD4E6-8859-492B-AA7F-BB43F6115FE6conditional" d="M 0 5 L 8 0 L 16 5 L 8 10 L 0 5" fill="white" stroke="#000000" stroke-width="1" display="none"/> 			<path id="_813CD4E6-8859-492B-AA7F-BB43F6115FE6default" d="M 5 0 L 11 10" fill="white" stroke="#000000" stroke-width="1" display="none"/> 	  	</marker><marker id="_813CD4E6-8859-492B-AA7F-BB43F6115FE6end" refX="15" refY="6" markerUnits="userSpaceOnUse" markerWidth="15" markerHeight="12" orient="auto" fill="#000000" stroke="#000000"> 	  		<path id="_813CD4E6-8859-492B-AA7F-BB43F6115FE6frame2" d="M 0 1 L 15 6 L 0 11z" fill="#000000" stroke="#000000" stroke-linejoin="round" stroke-width="2"/> 	  	</marker><marker id="_38620328-84A7-4F2E-8DE5-14188D2F746Bstart" refX="1" refY="5" markerUnits="userSpaceOnUse" markerWidth="17" markerHeight="11" orient="auto" fill="#000000" stroke="#000000"> 	  		<path id="_38620328-84A7-4F2E-8DE5-14188D2F746Bconditional" d="M 0 5 L 8 0 L 16 5 L 8 10 L 0 5" fill="white" stroke="#000000" stroke-width="1" display="none"/> 			<path id="_38620328-84A7-4F2E-8DE5-14188D2F746Bdefault" d="M 5 0 L 11 10" fill="white" stroke="#000000" stroke-width="1" display="none"/> 	  	</marker><marker id="_38620328-84A7-4F2E-8DE5-14188D2F746Bend" refX="15" refY="6" markerUnits="userSpaceOnUse" markerWidth="15" markerHeight="12" orient="auto" fill="#000000" stroke="#000000"> 	  		<path id="_38620328-84A7-4F2E-8DE5-14188D2F746Bframe2" d="M 0 1 L 15 6 L 0 11z" fill="#000000" stroke="#000000" stroke-linejoin="round" stroke-width="2"/> 	  	</marker></defs><g stroke="none" font-family="Verdana, sans-serif" font-size-adjust="none" font-style="normal" font-variant="normal" font-weight="normal" line-heigth="normal" font-size="12"><g class="stencils" transform="translate(15, 16)"><g class="me"/><g class="children"><g id="_357E8966-06B9-45E4-A9E2-458D667D03EF" bpmn2nodeid="processStartEvent"><g class="stencils" transform="translate(120, 165)"><g class="me"><g pointer-events="fill" id="_357E8966-06B9-45E4-A9E2-458D667D03EF">        <defs id="_357E8966-06B9-45E4-A9E2-458D667D03EF__357E8966-06B9-45E4-A9E2-458D667D03EF_5"> 		<radialGradient id="_357E8966-06B9-45E4-A9E2-458D667D03EFbackground" cx="10%" cy="10%" r="100%" fx="10%" fy="10%"> 			<stop offset="0%" stop-color="#ffffff" stop-opacity="1" id="_357E8966-06B9-45E4-A9E2-458D667D03EF__357E8966-06B9-45E4-A9E2-458D667D03EF_6"/> 			<stop id="_357E8966-06B9-45E4-A9E2-458D667D03EFfill_el" offset="100%" stop-color="#9acd32" stop-opacity="1"/> 		</radialGradient> 	</defs> 	     <circle id="_357E8966-06B9-45E4-A9E2-458D667D03EFbg_frame" cx="15" cy="15" r="15" stroke="#000000" fill="url(#_357E8966-06B9-45E4-A9E2-458D667D03EFbackground) white" stroke-width="1" style="stroke-dasharray: 5.5, 3"/>      <circle id="_357E8966-06B9-45E4-A9E2-458D667D03EFframe" cx="15" cy="15" r="15" stroke="#000000" fill="none" stroke-width="1" display="inherit"/>  	<text font-size="11" id="_357E8966-06B9-45E4-A9E2-458D667D03EFtext_name" x="15" y="32" oryx:align="top center" stroke="black" stroke-width="0pt" letter-spacing="-0.01px" fill="#000000" text-anchor="middle" transform="rotate(0 15 32)" visibility="inherit" oryx:fontSize="11"/>   </g></g><g class="children" style="overflow:hidden"/><g class="edge"/></g><g class="controls"><g class="dockers"/><g class="magnets" transform="translate(120, 165)"><g pointer-events="all" display="none" transform="translate(7, 7)"><circle cx="8" cy="8" r="4" stroke="none" fill="red" fill-opacity="0.3"/></g></g></g></g><g id="_63B3D75A-33E2-418B-8090-C0848450E05D" bpmn2nodeid="_4BDEEA2D-FEB5-44ED-B6EB-671AA6E5990F"><g class="stencils" transform="translate(210, 135)"><g class="me"><g pointer-events="fill" oryx:minimumSize="50 40" id="_63B3D75A-33E2-418B-8090-C0848450E05D">   	<defs id="_63B3D75A-33E2-418B-8090-C0848450E05D__63B3D75A-33E2-418B-8090-C0848450E05D_17"> 		<radialGradient id="_63B3D75A-33E2-418B-8090-C0848450E05Dbackground" cx="10%" cy="10%" r="100%" fx="10%" fy="10%"> 			<stop offset="0%" stop-color="#ffffff" stop-opacity="1" id="_63B3D75A-33E2-418B-8090-C0848450E05D__63B3D75A-33E2-418B-8090-C0848450E05D_18"/> 			<stop id="_63B3D75A-33E2-418B-8090-C0848450E05Dfill_el" offset="100%" stop-color="#fafad2" stop-opacity="1"/> 		</radialGradient> 		<radialGradient id="_63B3D75A-33E2-418B-8090-C0848450E05Dborderbackground" cx="10%" cy="10%" r="100%" fx="10%" fy="10%"> 			<stop offset="0%" stop-color="#ffffff" stop-opacity="1" id="_63B3D75A-33E2-418B-8090-C0848450E05D__63B3D75A-33E2-418B-8090-C0848450E05D_19"/> 			<stop id="_63B3D75A-33E2-418B-8090-C0848450E05Dfill_border" offset="100%" stop-color="#000000" stop-opacity="1" stroke="#000000"/> 		</radialGradient> 	</defs> 	 	<rect id="_63B3D75A-33E2-418B-8090-C0848450E05Dtext_frame" oryx:anchors="bottom top right left" x="1" y="1" width="94" height="79" rx="10" ry="10" stroke="none" stroke-width="0" fill="none"/> 	<rect id="_63B3D75A-33E2-418B-8090-C0848450E05Dbg_frame" oryx:resize="vertical horizontal" x="0" y="0" width="100" height="80" rx="10" ry="10" stroke="#000000" stroke-width="1" fill="url(#_63B3D75A-33E2-418B-8090-C0848450E05Dbackground) #ffffcc"/> 		<text font-size="12" id="_63B3D75A-33E2-418B-8090-C0848450E05Dtext_name" x="50" y="40" oryx:align="middle center" oryx:fittoelem="text_frame" stroke="black" text-anchor="middle" stroke-width="0pt" letter-spacing="-0.01px" fill="#000000" transform="rotate(0 50 40)" visibility="inherit" oryx:fontSize="12"><tspan x="50" y="40" dy="5" id="ext-gen1398">Initialize</tspan></text>     <g id="_63B3D75A-33E2-418B-8090-C0848450E05DmanualTask" transform="scale(0.7,0.7) translate(8,8)" display="none">     	<path oryx:anchors="top left" id="_63B3D75A-33E2-418B-8090-C0848450E05Dframe" style="opacity:1;fill:none;fill-opacity:1;stroke-width:1" d="M0.5,3.751l4.083-3.25c0,0,11.166,0.083,12.083,0.083s-2.417,2.917-1.5,2.917     s11.667,0,12.584,0c1.166,1.708-0.168,3.167-0.834,3.667s0.875,1.917-1,4.417c-0.75,0.25,0.75,1.875-1.333,3.333     c-1.167,0.583,0.583,1.542-1.25,2.833c-1.167,0-20.833,0.083-20.833,0.083l-2-1.333V3.751z" stroke="#000000"/> 		<path id="_63B3D75A-33E2-418B-8090-C0848450E05Dframe2" oryx:anchors="top left" style="opacity:1;fill:none;stroke-width:2" d="M 13.5 7 L 27 7" stroke="#000000"/> 		<path id="_63B3D75A-33E2-418B-8090-C0848450E05Dframe3" oryx:anchors="top left" style="opacity:1;fill:none;stroke-width:2" d="M 13.5 11 L 26 11" stroke="#000000"/> 		<path id="_63B3D75A-33E2-418B-8090-C0848450E05Dframe4" oryx:anchors="top left" style="opacity:1;fill:none;stroke-width:1.5" d="M 14 14.5 L 25 14.5" stroke="#000000"/> 		<path id="_63B3D75A-33E2-418B-8090-C0848450E05Dframe5" oryx:anchors="top left" style="opacity:1;fill:none;stroke-width:1.5" d="M 8.2 3.1 L 15 3.1" stroke="#000000"/> 	</g> 	 	<g id="_63B3D75A-33E2-418B-8090-C0848450E05DbusinessRuleTask" transform="scale(0.7,0.7) translate(8,8)" display="inherit"> 		<rect id="_63B3D75A-33E2-418B-8090-C0848450E05Dframe6" oryx:anchors="top left" x="0" y="0" width="22" height="4" style="opacity:1;fill:#B3B1B3;fill-opacity:1;" stroke="#000000"/> 		<rect id="_63B3D75A-33E2-418B-8090-C0848450E05Dframe7" oryx:anchors="top left" x="0" y="4" style="opacity:1;fill:none;" width="22" height="12" stroke="#000000"/> 		<path id="_63B3D75A-33E2-418B-8090-C0848450E05Dframe8" oryx:anchors="top left" style="opacity:1;fill:none;" d="M 0 10 L 22 10" stroke="#000000"/> 		<path id="_63B3D75A-33E2-418B-8090-C0848450E05Dframe9" oryx:anchors="top left" style="opacity:1; fill:none;" d="M 7 4 L 7 16" stroke="#000000"/> 	</g> 	 	<g id="_63B3D75A-33E2-418B-8090-C0848450E05DscriptTask" transform="scale(0.7,0.7) translate(8,8)" display="none"> 		<path oryx:anchors="top left" id="_63B3D75A-33E2-418B-8090-C0848450E05Dframe10" style="opacity:1;fill:none;" stroke="#000000" d="M6.402,0.5h14.5c0,0-5.833,2.833-5.833,5.583s4.417,6,4.417,9.167    s-4.167,5.083-4.167,5.083H0.235c0,0,5-2.667,5-5s-4.583-6.75-4.583-9.25S6.402,0.5,6.402,0.5z"/> 		<path oryx:anchors="top left" id="_63B3D75A-33E2-418B-8090-C0848450E05Dframe11" style="opacity:1;fill:none;stroke-width:1.5" d="M 3.5 4.5 L 13.5 4.5" stroke="#000000"/> 		<path oryx:anchors="top left" id="_63B3D75A-33E2-418B-8090-C0848450E05Dframe12" style="opacity:1;fill:none;stroke-width:1.5" d="M 3.8 8.5 L 13.8 8.5" stroke="#000000"/> 		<path oryx:anchors="top left" id="_63B3D75A-33E2-418B-8090-C0848450E05Dframe13" style="opacity:1;fill:none;stroke-width:1.5" d="M 6.3 12.5 L 16.3 12.5" stroke="#000000"/> 		<path oryx:anchors="top left" id="_63B3D75A-33E2-418B-8090-C0848450E05Dframe14" style="opacity:1;fill:none;stroke-width:1.5" d="M 6.5 16.5 L 16.5 16.5" stroke="#000000"/> 	</g> 	 	<g id="_63B3D75A-33E2-418B-8090-C0848450E05DuserTask" transform="scale(0.7,0.7) translate(8,8)" display="none"> 		<path id="_63B3D75A-33E2-418B-8090-C0848450E05Dframe15" oryx:anchors="top left" style="opacity:1;fill:#F4F6F7" stroke="#000000" d="M0.585,24.167h24.083v-7.833c0,0-2.333-3.917-7.083-5.167h-9.25    c-4.417,1.333-7.833,5.75-7.833,5.75L0.585,24.167z"/> 		<path id="_63B3D75A-33E2-418B-8090-C0848450E05Dframe16" oryx:anchors="top left" style="opacity:1;fill:none" d="M 6 20 L 6 24" stroke="#000000"/> 		<path id="_63B3D75A-33E2-418B-8090-C0848450E05Dframe17" oryx:anchors="top left" style="opacity:1;fill:none" d="M 20 20 L 20 24" stroke="#000000"/> 		<circle id="_63B3D75A-33E2-418B-8090-C0848450E05Dframe18" oryx:anchors="top left" fill="black" cx="13.002" cy="5.916" r="5.417" stroke="#000000"/> 		<path id="_63B3D75A-33E2-418B-8090-C0848450E05Dframe19" oryx:anchors="top left" style="opacity:1;fill:#F0EFF0;" stroke="#000000" d="M8.043,7.083c0,0,2.814-2.426,5.376-1.807s4.624-0.693,4.624-0.693    c0.25,1.688,0.042,3.75-1.458,5.584c0,0,1.083,0.75,1.083,1.5s0.125,1.875-1,3s-5.5,1.25-6.75,0S8.668,12.834,8.668,12    s0.583-1.25,1.25-1.917C8.835,9.5,7.419,7.708,8.043,7.083z"/> 	</g> 	 	<g id="_63B3D75A-33E2-418B-8090-C0848450E05DserviceTask" transform="scale(0.7,0.7) translate(8,8)" display="none"> 		<polygon oryx:anchors="top left" id="_63B3D75A-33E2-418B-8090-C0848450E05Dframe20" style="opacity:1;fill:#ffffff" stroke="#000000" points="15.392,5.064 17.954,2.502 20.347,4.895 17.786,7.455     18.729,9.732 22.353,9.732 22.353,13.115 18.731,13.115 17.788,15.392 20.351,17.955 17.958,20.347 15.397,17.786 13.12,18.729     13.12,22.353 9.737,22.353 9.737,18.731 7.46,17.788 4.897,20.35 2.506,17.958 5.066,15.397 4.124,13.12 0.5,13.12 0.5,9.737     4.121,9.737 5.065,7.461 2.503,4.898 4.895,2.506 7.455,5.066 9.732,4.125 9.732,0.5 13.116,0.5 13.116,4.121 "/> 		<circle oryx:anchors="top left" id="_63B3D75A-33E2-418B-8090-C0848450E05Dframe21" style="opacity:1;fill:none" stroke="#000000" cx="11.427" cy="11.426" r="3.714"/> 		<polygon oryx:anchors="top left" id="_63B3D75A-33E2-418B-8090-C0848450E05Dframe22" style="opacity:1;fill:#ffffff" stroke="#000000" points="21.392,11.064 23.954,8.502 26.347,10.895 23.786,13.455     24.729,15.732 28.353,15.732 28.353,19.115 24.731,19.115 23.788,21.392 26.351,23.955 23.958,26.347 21.397,23.786 19.12,24.729     19.12,28.353 15.737,28.353 15.737,24.731 13.46,23.788 10.897,26.35 8.506,23.958 11.066,21.397 10.124,19.12 6.5,19.12     6.5,15.737 10.121,15.737 11.065,13.461 8.503,10.898 10.895,8.506 13.455,11.066 15.732,10.125 15.732,6.5 19.116,6.5     19.116,10.121 "/> 		<circle oryx:anchors="top left" id="_63B3D75A-33E2-418B-8090-C0848450E05Dframe23" style="opacity:1;fill:none;" stroke="#000000" cx="17.427" cy="17.426" r="3.714"/> 	</g> 	 	<g id="_63B3D75A-33E2-418B-8090-C0848450E05DsendTask" display="none"> 		<path id="_63B3D75A-33E2-418B-8090-C0848450E05Dstframe24" oryx:anchors="left top" stroke="#FFFFFF" fill="black" stroke-width="1" d="M8,11 L8,21 L24,21 L24,11 L16,17z"/> 		<path id="_63B3D75A-33E2-418B-8090-C0848450E05Dstframe25" oryx:anchors="left top" stroke="#FFFFFF" fill="black" stroke-width="1" d="M7,10 L16,17 L25 10z"/> 	</g> 	 	<g id="_63B3D75A-33E2-418B-8090-C0848450E05DreceiveTask" display="none"> 		<path id="_63B3D75A-33E2-418B-8090-C0848450E05Dframe26" oryx:anchors="left top" stroke="#000000" fill="none" stroke-width="1" d="M8,11 L8,21 L24,21 L24,11z M8,11 L16,17 L24,11"/> 	</g> 	 	<g id="_63B3D75A-33E2-418B-8090-C0848450E05Dnone" display="inherit"/>  	<g id="_63B3D75A-33E2-418B-8090-C0848450E05Dsequential" display="none">         <path oryx:anchors="bottom" fill="none" stroke="#000000" stroke-width="2" d="M46,76h10M46,72h10 M46,68h10" id="_63B3D75A-33E2-418B-8090-C0848450E05D__63B3D75A-33E2-418B-8090-C0848450E05D_20"/>     </g>   </g></g><g class="children" style="overflow:hidden"/><g class="edge"/></g><g class="controls"><g class="dockers"/><g class="magnets" transform="translate(210, 135)"><g pointer-events="all" display="none" transform="translate(-7, 12)"><circle cx="8" cy="8" r="4" stroke="none" fill="red" fill-opacity="0.3"/></g><g pointer-events="all" display="none" transform="translate(-7, 32)"><circle cx="8" cy="8" r="4" stroke="none" fill="red" fill-opacity="0.3"/></g><g pointer-events="all" display="none" transform="translate(-7, 52)"><circle cx="8" cy="8" r="4" stroke="none" fill="red" fill-opacity="0.3"/></g><g pointer-events="all" display="none" transform="translate(17, 71)"><circle cx="8" cy="8" r="4" stroke="none" fill="red" fill-opacity="0.3"/></g><g pointer-events="all" display="none" transform="translate(42, 71)"><circle cx="8" cy="8" r="4" stroke="none" fill="red" fill-opacity="0.3"/></g><g pointer-events="all" display="none" transform="translate(67, 71)"><circle cx="8" cy="8" r="4" stroke="none" fill="red" fill-opacity="0.3"/></g><g pointer-events="all" display="none" transform="translate(91, 12)"><circle cx="8" cy="8" r="4" stroke="none" fill="red" fill-opacity="0.3"/></g><g pointer-events="all" display="none" transform="translate(91, 32)"><circle cx="8" cy="8" r="4" stroke="none" fill="red" fill-opacity="0.3"/></g><g pointer-events="all" display="none" transform="translate(91, 52)"><circle cx="8" cy="8" r="4" stroke="none" fill="red" fill-opacity="0.3"/></g><g pointer-events="all" display="none" transform="translate(17, -7)"><circle cx="8" cy="8" r="4" stroke="none" fill="red" fill-opacity="0.3"/></g><g pointer-events="all" display="none" transform="translate(42, -7)"><circle cx="8" cy="8" r="4" stroke="none" fill="red" fill-opacity="0.3"/></g><g pointer-events="all" display="none" transform="translate(67, -7)"><circle cx="8" cy="8" r="4" stroke="none" fill="red" fill-opacity="0.3"/></g><g pointer-events="all" display="none" transform="translate(42, 32)"><circle cx="8" cy="8" r="4" stroke="none" fill="red" fill-opacity="0.3"/></g></g></g></g><g id="_1E15F0D5-33CB-4AA9-96A6-AA5CA2FC9607" bpmn2nodeid="_8FED164F-8547-4754-9DF0-D61316C7CB06"><g class="stencils" transform="translate(571, 285)"><g class="me"><g pointer-events="fill" id="_1E15F0D5-33CB-4AA9-96A6-AA5CA2FC9607">      <defs id="_1E15F0D5-33CB-4AA9-96A6-AA5CA2FC9607__1E15F0D5-33CB-4AA9-96A6-AA5CA2FC9607_5"> 		<radialGradient id="_1E15F0D5-33CB-4AA9-96A6-AA5CA2FC9607background" cx="10%" cy="10%" r="100%" fx="10%" fy="10%"> 			<stop offset="0%" stop-color="#ffffff" stop-opacity="1" id="_1E15F0D5-33CB-4AA9-96A6-AA5CA2FC9607__1E15F0D5-33CB-4AA9-96A6-AA5CA2FC9607_6"/> 			<stop id="_1E15F0D5-33CB-4AA9-96A6-AA5CA2FC9607fill_el" offset="100%" stop-color="#ff6347" stop-opacity="1"/> 		</radialGradient> 	</defs> 	     <circle id="_1E15F0D5-33CB-4AA9-96A6-AA5CA2FC9607bg_frame" cx="14" cy="14" r="14" stroke="#000000" fill="url(#_1E15F0D5-33CB-4AA9-96A6-AA5CA2FC9607background) white" stroke-width="3"/> 	<text font-size="11" id="_1E15F0D5-33CB-4AA9-96A6-AA5CA2FC9607text_name" x="14" y="30" oryx:align="top center" stroke="black" stroke-width="0pt" letter-spacing="-0.01px" fill="#000000" text-anchor="middle" transform="rotate(0 14 30)" visibility="inherit" oryx:fontSize="11"/>   </g></g><g class="children" style="overflow:hidden"/><g class="edge"/></g><g class="controls"><g class="dockers"/><g class="magnets" transform="translate(571, 285)"><g pointer-events="all" display="none" transform="translate(6, 6)"><circle cx="8" cy="8" r="4" stroke="none" fill="red" fill-opacity="0.3"/></g></g></g></g><g id="_08C36DE9-6099-44E6-B132-1FA8FF20F1A4" bpmn2nodeid="_5DF14411-8123-4A74-B354-1019CD87CDA0"><g class="stencils" transform="translate(405, 135)"><g class="me"><g pointer-events="fill" oryx:minimumSize="50 40" id="_08C36DE9-6099-44E6-B132-1FA8FF20F1A4">   	<defs id="_08C36DE9-6099-44E6-B132-1FA8FF20F1A4__08C36DE9-6099-44E6-B132-1FA8FF20F1A4_17"> 		<radialGradient id="_08C36DE9-6099-44E6-B132-1FA8FF20F1A4background" cx="10%" cy="10%" r="100%" fx="10%" fy="10%"> 			<stop offset="0%" stop-color="#ffffff" stop-opacity="1" id="_08C36DE9-6099-44E6-B132-1FA8FF20F1A4__08C36DE9-6099-44E6-B132-1FA8FF20F1A4_18"/> 			<stop id="_08C36DE9-6099-44E6-B132-1FA8FF20F1A4fill_el" offset="100%" stop-color="#fafad2" stop-opacity="1"/> 		</radialGradient> 		<radialGradient id="_08C36DE9-6099-44E6-B132-1FA8FF20F1A4borderbackground" cx="10%" cy="10%" r="100%" fx="10%" fy="10%"> 			<stop offset="0%" stop-color="#ffffff" stop-opacity="1" id="_08C36DE9-6099-44E6-B132-1FA8FF20F1A4__08C36DE9-6099-44E6-B132-1FA8FF20F1A4_19"/> 			<stop id="_08C36DE9-6099-44E6-B132-1FA8FF20F1A4fill_border" offset="100%" stop-color="#000000" stop-opacity="1" stroke="#000000"/> 		</radialGradient> 	</defs> 	 	<rect id="_08C36DE9-6099-44E6-B132-1FA8FF20F1A4text_frame" oryx:anchors="bottom top right left" x="1" y="1" width="94" height="79" rx="10" ry="10" stroke="none" stroke-width="0" fill="none"/> 	<rect id="_08C36DE9-6099-44E6-B132-1FA8FF20F1A4bg_frame" oryx:resize="vertical horizontal" x="0" y="0" width="100" height="80" rx="10" ry="10" stroke="#000000" stroke-width="1" fill="url(#_08C36DE9-6099-44E6-B132-1FA8FF20F1A4background) #ffffcc"/> 		<text font-size="12" id="_08C36DE9-6099-44E6-B132-1FA8FF20F1A4text_name" x="50" y="40" oryx:align="middle center" oryx:fittoelem="text_frame" stroke="black" text-anchor="middle" stroke-width="0pt" letter-spacing="-0.01px" fill="#000000" transform="rotate(0 50 40)" visibility="inherit" oryx:fontSize="12"><tspan x="50" y="40" dy="5" id="ext-gen916">Valid Order</tspan></text>     <g id="_08C36DE9-6099-44E6-B132-1FA8FF20F1A4manualTask" transform="scale(0.7,0.7) translate(8,8)" display="none">     	<path oryx:anchors="top left" id="_08C36DE9-6099-44E6-B132-1FA8FF20F1A4frame" style="opacity:1;fill:none;fill-opacity:1;stroke-width:1" d="M0.5,3.751l4.083-3.25c0,0,11.166,0.083,12.083,0.083s-2.417,2.917-1.5,2.917     s11.667,0,12.584,0c1.166,1.708-0.168,3.167-0.834,3.667s0.875,1.917-1,4.417c-0.75,0.25,0.75,1.875-1.333,3.333     c-1.167,0.583,0.583,1.542-1.25,2.833c-1.167,0-20.833,0.083-20.833,0.083l-2-1.333V3.751z" stroke="#000000"/> 		<path id="_08C36DE9-6099-44E6-B132-1FA8FF20F1A4frame2" oryx:anchors="top left" style="opacity:1;fill:none;stroke-width:2" d="M 13.5 7 L 27 7" stroke="#000000"/> 		<path id="_08C36DE9-6099-44E6-B132-1FA8FF20F1A4frame3" oryx:anchors="top left" style="opacity:1;fill:none;stroke-width:2" d="M 13.5 11 L 26 11" stroke="#000000"/> 		<path id="_08C36DE9-6099-44E6-B132-1FA8FF20F1A4frame4" oryx:anchors="top left" style="opacity:1;fill:none;stroke-width:1.5" d="M 14 14.5 L 25 14.5" stroke="#000000"/> 		<path id="_08C36DE9-6099-44E6-B132-1FA8FF20F1A4frame5" oryx:anchors="top left" style="opacity:1;fill:none;stroke-width:1.5" d="M 8.2 3.1 L 15 3.1" stroke="#000000"/> 	</g> 	 	<g id="_08C36DE9-6099-44E6-B132-1FA8FF20F1A4businessRuleTask" transform="scale(0.7,0.7) translate(8,8)" display="inherit"> 		<rect id="_08C36DE9-6099-44E6-B132-1FA8FF20F1A4frame6" oryx:anchors="top left" x="0" y="0" width="22" height="4" style="opacity:1;fill:#B3B1B3;fill-opacity:1;" stroke="#000000"/> 		<rect id="_08C36DE9-6099-44E6-B132-1FA8FF20F1A4frame7" oryx:anchors="top left" x="0" y="4" style="opacity:1;fill:none;" width="22" height="12" stroke="#000000"/> 		<path id="_08C36DE9-6099-44E6-B132-1FA8FF20F1A4frame8" oryx:anchors="top left" style="opacity:1;fill:none;" d="M 0 10 L 22 10" stroke="#000000"/> 		<path id="_08C36DE9-6099-44E6-B132-1FA8FF20F1A4frame9" oryx:anchors="top left" style="opacity:1; fill:none;" d="M 7 4 L 7 16" stroke="#000000"/> 	</g> 	 	<g id="_08C36DE9-6099-44E6-B132-1FA8FF20F1A4scriptTask" transform="scale(0.7,0.7) translate(8,8)" display="none"> 		<path oryx:anchors="top left" id="_08C36DE9-6099-44E6-B132-1FA8FF20F1A4frame10" style="opacity:1;fill:none;" stroke="#000000" d="M6.402,0.5h14.5c0,0-5.833,2.833-5.833,5.583s4.417,6,4.417,9.167    s-4.167,5.083-4.167,5.083H0.235c0,0,5-2.667,5-5s-4.583-6.75-4.583-9.25S6.402,0.5,6.402,0.5z"/> 		<path oryx:anchors="top left" id="_08C36DE9-6099-44E6-B132-1FA8FF20F1A4frame11" style="opacity:1;fill:none;stroke-width:1.5" d="M 3.5 4.5 L 13.5 4.5" stroke="#000000"/> 		<path oryx:anchors="top left" id="_08C36DE9-6099-44E6-B132-1FA8FF20F1A4frame12" style="opacity:1;fill:none;stroke-width:1.5" d="M 3.8 8.5 L 13.8 8.5" stroke="#000000"/> 		<path oryx:anchors="top left" id="_08C36DE9-6099-44E6-B132-1FA8FF20F1A4frame13" style="opacity:1;fill:none;stroke-width:1.5" d="M 6.3 12.5 L 16.3 12.5" stroke="#000000"/> 		<path oryx:anchors="top left" id="_08C36DE9-6099-44E6-B132-1FA8FF20F1A4frame14" style="opacity:1;fill:none;stroke-width:1.5" d="M 6.5 16.5 L 16.5 16.5" stroke="#000000"/> 	</g> 	 	<g id="_08C36DE9-6099-44E6-B132-1FA8FF20F1A4userTask" transform="scale(0.7,0.7) translate(8,8)" display="none"> 		<path id="_08C36DE9-6099-44E6-B132-1FA8FF20F1A4frame15" oryx:anchors="top left" style="opacity:1;fill:#F4F6F7" stroke="#000000" d="M0.585,24.167h24.083v-7.833c0,0-2.333-3.917-7.083-5.167h-9.25    c-4.417,1.333-7.833,5.75-7.833,5.75L0.585,24.167z"/> 		<path id="_08C36DE9-6099-44E6-B132-1FA8FF20F1A4frame16" oryx:anchors="top left" style="opacity:1;fill:none" d="M 6 20 L 6 24" stroke="#000000"/> 		<path id="_08C36DE9-6099-44E6-B132-1FA8FF20F1A4frame17" oryx:anchors="top left" style="opacity:1;fill:none" d="M 20 20 L 20 24" stroke="#000000"/> 		<circle id="_08C36DE9-6099-44E6-B132-1FA8FF20F1A4frame18" oryx:anchors="top left" fill="black" cx="13.002" cy="5.916" r="5.417" stroke="#000000"/> 		<path id="_08C36DE9-6099-44E6-B132-1FA8FF20F1A4frame19" oryx:anchors="top left" style="opacity:1;fill:#F0EFF0;" stroke="#000000" d="M8.043,7.083c0,0,2.814-2.426,5.376-1.807s4.624-0.693,4.624-0.693    c0.25,1.688,0.042,3.75-1.458,5.584c0,0,1.083,0.75,1.083,1.5s0.125,1.875-1,3s-5.5,1.25-6.75,0S8.668,12.834,8.668,12    s0.583-1.25,1.25-1.917C8.835,9.5,7.419,7.708,8.043,7.083z"/> 	</g> 	 	<g id="_08C36DE9-6099-44E6-B132-1FA8FF20F1A4serviceTask" transform="scale(0.7,0.7) translate(8,8)" display="none"> 		<polygon oryx:anchors="top left" id="_08C36DE9-6099-44E6-B132-1FA8FF20F1A4frame20" style="opacity:1;fill:#ffffff" stroke="#000000" points="15.392,5.064 17.954,2.502 20.347,4.895 17.786,7.455     18.729,9.732 22.353,9.732 22.353,13.115 18.731,13.115 17.788,15.392 20.351,17.955 17.958,20.347 15.397,17.786 13.12,18.729     13.12,22.353 9.737,22.353 9.737,18.731 7.46,17.788 4.897,20.35 2.506,17.958 5.066,15.397 4.124,13.12 0.5,13.12 0.5,9.737     4.121,9.737 5.065,7.461 2.503,4.898 4.895,2.506 7.455,5.066 9.732,4.125 9.732,0.5 13.116,0.5 13.116,4.121 "/> 		<circle oryx:anchors="top left" id="_08C36DE9-6099-44E6-B132-1FA8FF20F1A4frame21" style="opacity:1;fill:none" stroke="#000000" cx="11.427" cy="11.426" r="3.714"/> 		<polygon oryx:anchors="top left" id="_08C36DE9-6099-44E6-B132-1FA8FF20F1A4frame22" style="opacity:1;fill:#ffffff" stroke="#000000" points="21.392,11.064 23.954,8.502 26.347,10.895 23.786,13.455     24.729,15.732 28.353,15.732 28.353,19.115 24.731,19.115 23.788,21.392 26.351,23.955 23.958,26.347 21.397,23.786 19.12,24.729     19.12,28.353 15.737,28.353 15.737,24.731 13.46,23.788 10.897,26.35 8.506,23.958 11.066,21.397 10.124,19.12 6.5,19.12     6.5,15.737 10.121,15.737 11.065,13.461 8.503,10.898 10.895,8.506 13.455,11.066 15.732,10.125 15.732,6.5 19.116,6.5     19.116,10.121 "/> 		<circle oryx:anchors="top left" id="_08C36DE9-6099-44E6-B132-1FA8FF20F1A4frame23" style="opacity:1;fill:none;" stroke="#000000" cx="17.427" cy="17.426" r="3.714"/> 	</g> 	 	<g id="_08C36DE9-6099-44E6-B132-1FA8FF20F1A4sendTask" display="none"> 		<path id="_08C36DE9-6099-44E6-B132-1FA8FF20F1A4stframe24" oryx:anchors="left top" stroke="#FFFFFF" fill="black" stroke-width="1" d="M8,11 L8,21 L24,21 L24,11 L16,17z"/> 		<path id="_08C36DE9-6099-44E6-B132-1FA8FF20F1A4stframe25" oryx:anchors="left top" stroke="#FFFFFF" fill="black" stroke-width="1" d="M7,10 L16,17 L25 10z"/> 	</g> 	 	<g id="_08C36DE9-6099-44E6-B132-1FA8FF20F1A4receiveTask" display="none"> 		<path id="_08C36DE9-6099-44E6-B132-1FA8FF20F1A4frame26" oryx:anchors="left top" stroke="#000000" fill="none" stroke-width="1" d="M8,11 L8,21 L24,21 L24,11z M8,11 L16,17 L24,11"/> 	</g> 	 	<g id="_08C36DE9-6099-44E6-B132-1FA8FF20F1A4none" display="inherit"/>  	<g id="_08C36DE9-6099-44E6-B132-1FA8FF20F1A4sequential" display="none">         <path oryx:anchors="bottom" fill="none" stroke="#000000" stroke-width="2" d="M46,76h10M46,72h10 M46,68h10" id="_08C36DE9-6099-44E6-B132-1FA8FF20F1A4__08C36DE9-6099-44E6-B132-1FA8FF20F1A4_20"/>     </g>   </g></g><g class="children" style="overflow:hidden"/><g class="edge"/></g><g class="controls"><g class="dockers"/><g class="magnets" transform="translate(405, 135)"><g pointer-events="all" display="none" transform="translate(-7, 12)"><circle cx="8" cy="8" r="4" stroke="none" fill="red" fill-opacity="0.3"/></g><g pointer-events="all" display="none" transform="translate(-7, 32)"><circle cx="8" cy="8" r="4" stroke="none" fill="red" fill-opacity="0.3"/></g><g pointer-events="all" display="none" transform="translate(-7, 52)"><circle cx="8" cy="8" r="4" stroke="none" fill="red" fill-opacity="0.3"/></g><g pointer-events="all" display="none" transform="translate(17, 71)"><circle cx="8" cy="8" r="4" stroke="none" fill="red" fill-opacity="0.3"/></g><g pointer-events="all" display="none" transform="translate(42, 71)"><circle cx="8" cy="8" r="4" stroke="none" fill="red" fill-opacity="0.3"/></g><g pointer-events="all" display="none" transform="translate(67, 71)"><circle cx="8" cy="8" r="4" stroke="none" fill="red" fill-opacity="0.3"/></g><g pointer-events="all" display="none" transform="translate(91, 12)"><circle cx="8" cy="8" r="4" stroke="none" fill="red" fill-opacity="0.3"/></g><g pointer-events="all" display="none" transform="translate(91, 32)"><circle cx="8" cy="8" r="4" stroke="none" fill="red" fill-opacity="0.3"/></g><g pointer-events="all" display="none" transform="translate(91, 52)"><circle cx="8" cy="8" r="4" stroke="none" fill="red" fill-opacity="0.3"/></g><g pointer-events="all" display="none" transform="translate(17, -7)"><circle cx="8" cy="8" r="4" stroke="none" fill="red" fill-opacity="0.3"/></g><g pointer-events="all" display="none" transform="translate(42, -7)"><circle cx="8" cy="8" r="4" stroke="none" fill="red" fill-opacity="0.3"/></g><g pointer-events="all" display="none" transform="translate(67, -7)"><circle cx="8" cy="8" r="4" stroke="none" fill="red" fill-opacity="0.3"/></g><g pointer-events="all" display="none" transform="translate(42, 32)"><circle cx="8" cy="8" r="4" stroke="none" fill="red" fill-opacity="0.3"/></g></g></g></g><g id="_052DB87C-E168-460A-A095-64B9790DB782" bpmn2nodeid="_BD74BE8C-08DE-45BE-838C-9B6E03D4D72A"><g class="stencils" transform="translate(565, 160)"><g class="me"><g id="_052DB87C-E168-460A-A095-64B9790DB782">        <defs id="_052DB87C-E168-460A-A095-64B9790DB782__052DB87C-E168-460A-A095-64B9790DB782_4"> 		<radialGradient id="_052DB87C-E168-460A-A095-64B9790DB782background" cx="10%" cy="10%" r="100%" fx="10%" fy="10%"> 			<stop offset="0%" stop-color="#ffffff" stop-opacity="1" id="_052DB87C-E168-460A-A095-64B9790DB782__052DB87C-E168-460A-A095-64B9790DB782_5"/> 			<stop id="_052DB87C-E168-460A-A095-64B9790DB782fill_el" offset="100%" stop-color="#f0e68c" stop-opacity="1"/> 		</radialGradient> 		<radialGradient id="_052DB87C-E168-460A-A095-64B9790DB782borderbackground" cx="10%" cy="10%" r="100%" fx="10%" fy="10%"> 			<stop offset="0%" stop-color="#ffffff" stop-opacity="1" id="_052DB87C-E168-460A-A095-64B9790DB782__052DB87C-E168-460A-A095-64B9790DB782_6"/> 			<stop id="_052DB87C-E168-460A-A095-64B9790DB782fill_border" offset="100%" stop-color="#a67f00" stop-opacity="1" stroke="#a67f00"/> 		</radialGradient> 	</defs> 	     <path d=" M0 20.5  L20.5 0  L40 20.5  L20.5 40  z" id="_052DB87C-E168-460A-A095-64B9790DB782bg_frame" fill="url(#_052DB87C-E168-460A-A095-64B9790DB782background) white" style="stroke-width:1" stroke="#a67f00"/>     <g id="_052DB87C-E168-460A-A095-64B9790DB782frame" stroke="#a67f00">       <path id="_052DB87C-E168-460A-A095-64B9790DB782frame2" d=" M13.25 12.05  L17.25 12.05  L27.65 28.95  L23.75 28.95  z" style="stroke-width:1" stroke="#a67f00" fill="url(#_052DB87C-E168-460A-A095-64B9790DB782borderbackground)"/>       <path id="_052DB87C-E168-460A-A095-64B9790DB782frame3" d=" M13.25 28.95  L23.75 12.05  L27.65 12.05  L17.25 28.95  z" style="stroke-width:1" stroke="#a67f00" fill="url(#_052DB87C-E168-460A-A095-64B9790DB782borderbackground)"/>     </g> 	 	<text id="_052DB87C-E168-460A-A095-64B9790DB782text_name" x="30.5" y="30.5" oryx:align="left top" stroke-width="0pt" letter-spacing="-0.01px" fill="#000000" text-anchor="start" transform="rotate(0 30.5 30.5)" visibility="inherit" oryx:fontSize="12"><tspan x="30.5" y="30.5" dy="12" id="ext-gen1397">valid?</tspan></text> 	   </g></g><g class="children" style="overflow:hidden"/><g class="edge"/></g><g class="controls"><g class="dockers"/><g class="magnets" transform="translate(565, 160)"><g pointer-events="all" display="none" transform="translate(12.5, 12.5)"><circle cx="8" cy="8" r="4" stroke="none" fill="red" fill-opacity="0.3"/></g></g></g></g><g id="_1C987319-FEBA-4B49-9055-8382B51936CC" bpmn2nodeid="_29858477-35B6-4E45-9AFE-C079D7EAFDC2"><g class="stencils" transform="translate(675, 166)"><g class="me"><g pointer-events="fill" id="_1C987319-FEBA-4B49-9055-8382B51936CC">      <defs id="_1C987319-FEBA-4B49-9055-8382B51936CC__1C987319-FEBA-4B49-9055-8382B51936CC_5"> 		<radialGradient id="_1C987319-FEBA-4B49-9055-8382B51936CCbackground" cx="10%" cy="10%" r="100%" fx="10%" fy="10%"> 			<stop offset="0%" stop-color="#ffffff" stop-opacity="1" id="_1C987319-FEBA-4B49-9055-8382B51936CC__1C987319-FEBA-4B49-9055-8382B51936CC_6"/> 			<stop id="_1C987319-FEBA-4B49-9055-8382B51936CCfill_el" offset="100%" stop-color="#ff6347" stop-opacity="1"/> 		</radialGradient> 	</defs> 	     <circle id="_1C987319-FEBA-4B49-9055-8382B51936CCbg_frame" cx="14" cy="14" r="14" stroke="#000000" fill="url(#_1C987319-FEBA-4B49-9055-8382B51936CCbackground) white" stroke-width="3"/> 	<text font-size="11" id="_1C987319-FEBA-4B49-9055-8382B51936CCtext_name" x="14" y="30" oryx:align="top center" stroke="black" stroke-width="0pt" letter-spacing="-0.01px" fill="#000000" text-anchor="middle" transform="rotate(0 14 30)" visibility="inherit" oryx:fontSize="11"/>   </g></g><g class="children" style="overflow:hidden"/><g class="edge"/></g><g class="controls"><g class="dockers"/><g class="magnets" transform="translate(675, 166)"><g pointer-events="all" display="none" transform="translate(6, 6)"><circle cx="8" cy="8" r="4" stroke="none" fill="red" fill-opacity="0.3"/></g></g></g></g></g><g class="edge"><g id="_A83E510D-696F-4CF5-BEFB-9D6D4118AFD8" bpmn2nodeid="_AF94964A-1267-4488-858C-85066638283C"><g class="stencils"><g class="me"><g pointer-events="painted" bpmn2nodeid="_411F7023-FEBD-4C2D-B2CB-805EE0969348"><path id="_A83E510D-696F-4CF5-BEFB-9D6D4118AFD8_1" d="M150.6476384587218 179.37409446165114L209.1961115412782 177.03215553834886 " stroke="#000000" fill="none" stroke-width="2" stroke-linecap="round" stroke-linejoin="round" marker-start="url(#_A83E510D-696F-4CF5-BEFB-9D6D4118AFD8start)" marker-end="url(#_A83E510D-696F-4CF5-BEFB-9D6D4118AFD8end)"/></g><text id="_A83E510D-696F-4CF5-BEFB-9D6D4118AFD8text_name" font-size="12" x="164.6476384587218" y="165.37409446165114" oryx:edgePosition="startTop" stroke-width="0pt" letter-spacing="-0.01px" fill="#000000" text-anchor="start" transform="rotate(357.70938995736145 150.6476384587218 179.37409446165114)" visibility="inherit" oryx:fontSize="12"/></g><g class="children" style="overflow:hidden"/><g class="edge"/></g><g class="controls"><g class="dockers"/><g class="magnets"/></g></g><g id="_64DC2699-D295-4539-AE20-997A37957C87" bpmn2nodeid="_B2EF91E6-494F-4958-AB99-CABBAE93B7C2"><g class="stencils"><g class="me"><g pointer-events="painted" bpmn2nodeid="_0B703385-B95C-4992-B60F-5063361629D5"><path id="_64DC2699-D295-4539-AE20-997A37957C87_1" d="M505.76488617463133 176.9524956221012L565.7194888253687 179.2584418778988 " stroke="#000000" fill="none" stroke-width="2" stroke-linecap="round" stroke-linejoin="round" marker-start="url(#_64DC2699-D295-4539-AE20-997A37957C87start)" marker-end="url(#_64DC2699-D295-4539-AE20-997A37957C87end)"/></g><text id="_64DC2699-D295-4539-AE20-997A37957C87text_name" font-size="12" x="519.7648861746313" y="162.9524956221012" oryx:edgePosition="startTop" stroke-width="0pt" letter-spacing="-0.01px" fill="#000000" text-anchor="start" transform="rotate(2.2025981617658204 505.76488617463133 176.9524956221012)" visibility="inherit" oryx:fontSize="12"/></g><g class="children" style="overflow:hidden"/><g class="edge"/></g><g class="controls"><g class="dockers"/><g class="magnets"/></g></g><g id="_593813C2-6872-48DB-AD68-CE40FAD788F9" bpmn2nodeid="_F2F63060-1F4D-4A2D-98B8-F4499EA794E8"><g class="stencils"><g class="me"><g pointer-events="painted" bpmn2nodeid="_19F9A206-BAE1-4F73-A6D0-84B73215E8CE"><path id="_593813C2-6872-48DB-AD68-CE40FAD788F9_1" d="M605.5 180L675 180 " stroke="#000000" fill="none" stroke-width="2" stroke-linecap="round" stroke-linejoin="round" marker-start="url(#_593813C2-6872-48DB-AD68-CE40FAD788F9start)" marker-end="url(#_593813C2-6872-48DB-AD68-CE40FAD788F9end)"/></g><text id="_593813C2-6872-48DB-AD68-CE40FAD788F9text_name" font-size="12" x="619.5" y="166" oryx:edgePosition="startTop" stroke-width="0pt" letter-spacing="-0.01px" fill="#000000" text-anchor="start" transform="rotate(360 605.5 180)" visibility="inherit" oryx:fontSize="12"><tspan x="619.5" y="166" dy="0">yes</tspan></text></g><g class="children" style="overflow:hidden"/><g class="edge"/></g><g class="controls"><g class="dockers"/><g class="magnets"/></g></g><g id="_813CD4E6-8859-492B-AA7F-BB43F6115FE6" bpmn2nodeid="_E4EC965B-4B62-4825-A60E-6AEB989BDE8A"><g class="stencils"><g class="me"><g pointer-events="painted" bpmn2nodeid="_2F821553-CCB9-4099-BB68-2992758CAFBD"><path id="_813CD4E6-8859-492B-AA7F-BB43F6115FE6_1" d="M585 199.59375L585 284.984375 " stroke="#000000" fill="none" stroke-width="2" stroke-linecap="round" stroke-linejoin="round" marker-start="url(#_813CD4E6-8859-492B-AA7F-BB43F6115FE6start)" marker-end="url(#_813CD4E6-8859-492B-AA7F-BB43F6115FE6end)"/></g><text id="_813CD4E6-8859-492B-AA7F-BB43F6115FE6text_name" font-size="12" x="571" y="185.59375" oryx:edgePosition="startTop" stroke-width="0pt" letter-spacing="-0.01px" fill="#000000" text-anchor="end" transform="rotate(-90 585 199.59375)" visibility="inherit" oryx:fontSize="12"><tspan x="571" y="185.59375" dy="0" id="ext-gen1217">no</tspan></text></g><g class="children" style="overflow:hidden"/><g class="edge"/></g><g class="controls"><g class="dockers"/><g class="magnets"/></g></g><g id="_38620328-84A7-4F2E-8DE5-14188D2F746B" bpmn2nodeid="_4E208B80-D9CB-4D6B-9071-4C938CC151C3"><g class="stencils"><g class="me"><g pointer-events="painted" bpmn2nodeid="_A169351A-D83B-4A0A-84A7-42482D12CC48"><path id="_38620328-84A7-4F2E-8DE5-14188D2F746B_1" d="M310.51171875 175L404.48828125 175 " stroke="#000000" fill="none" stroke-width="2" stroke-linecap="round" stroke-linejoin="round" marker-start="url(#_38620328-84A7-4F2E-8DE5-14188D2F746Bstart)" marker-end="url(#_38620328-84A7-4F2E-8DE5-14188D2F746Bend)"/></g><text id="_38620328-84A7-4F2E-8DE5-14188D2F746Btext_name" font-size="12" x="324.51171875" y="161" oryx:edgePosition="startTop" stroke-width="0pt" letter-spacing="-0.01px" fill="#000000" text-anchor="start" transform="rotate(360 310.51171875 175)" visibility="inherit" oryx:fontSize="12"/></g><g class="children" style="overflow:hidden"/><g class="edge"/></g><g class="controls"><g class="dockers"/><g class="magnets"/></g></g></g><text id="_2B8E7977-F814-4733-B46D-3CA39862E055" style="stroke-width:1;fill:rgb(177,194,214);font-family:arial;font-weight:bold" font-size="12" onclick="ORYX.Plugins.CanvasTitle.openTextualAnalysis()" onmouseover="ORYX.Plugins.CanvasTitle.addToolTip('_2B8E7977-F814-4733-B46D-3CA39862E055')" transform="translate(10, 20)">DMServiceManifestoProcess v.1.0 (com.myspace.pocservicemanifesto.DMServiceManifestoProcess)</text></g></g></svg>