<svg xmlns="http://www.w3.org/2000/svg" xmlns:oryx="http://oryx-editor.org" id="_A11E9353-BF9F-4A38-8015-DE00012F7B9E" width="743" height="354" xmlns:xlink="http://www.w3.org/1999/xlink" xmlns:svg="http://www.w3.org/2000/svg"><defs><marker id="_8D373F76-82CB-425B-92EA-E2CAAD8A8D70start" refX="1" refY="5" markerUnits="userSpaceOnUse" markerWidth="17" markerHeight="11" orient="auto" fill="#000000" stroke="#000000"> 	  		<path id="_8D373F76-82CB-425B-92EA-E2CAAD8A8D70conditional" d="M 0 5 L 8 0 L 16 5 L 8 10 L 0 5" fill="white" stroke="#000000" stroke-width="1" display="none"/> 			<path id="_8D373F76-82CB-425B-92EA-E2CAAD8A8D70default" d="M 5 0 L 11 10" fill="white" stroke="#000000" stroke-width="1" display="none"/> 	  	</marker><marker id="_8D373F76-82CB-425B-92EA-E2CAAD8A8D70end" refX="15" refY="6" markerUnits="userSpaceOnUse" markerWidth="15" markerHeight="12" orient="auto" fill="#000000" stroke="#000000"> 	  		<path id="_8D373F76-82CB-425B-92EA-E2CAAD8A8D70frame2" d="M 0 1 L 15 6 L 0 11z" fill="#000000" stroke="#000000" stroke-linejoin="round" stroke-width="2"/> 	  	</marker><marker id="_D2E067F3-6337-4553-9B34-E7FA665DBB6Cstart" refX="1" refY="5" markerUnits="userSpaceOnUse" markerWidth="17" markerHeight="11" orient="auto" fill="#000000" stroke="#000000"> 	  		<path id="_D2E067F3-6337-4553-9B34-E7FA665DBB6Cconditional" d="M 0 5 L 8 0 L 16 5 L 8 10 L 0 5" fill="white" stroke="#000000" stroke-width="1" display="none"/> 			<path id="_D2E067F3-6337-4553-9B34-E7FA665DBB6Cdefault" d="M 5 0 L 11 10" fill="white" stroke="#000000" stroke-width="1" display="none"/> 	  	</marker><marker id="_D2E067F3-6337-4553-9B34-E7FA665DBB6Cend" refX="15" refY="6" markerUnits="userSpaceOnUse" markerWidth="15" markerHeight="12" orient="auto" fill="#000000" stroke="#000000"> 	  		<path id="_D2E067F3-6337-4553-9B34-E7FA665DBB6Cframe2" d="M 0 1 L 15 6 L 0 11z" fill="#000000" stroke="#000000" stroke-linejoin="round" stroke-width="2"/> 	  	</marker><marker id="_55F4150B-69CB-49D3-9C04-3AA6FDD3ACDCstart" refX="1" refY="5" markerUnits="userSpaceOnUse" markerWidth="17" markerHeight="11" orient="auto" fill="#000000" stroke="#000000"> 	  		<path id="_55F4150B-69CB-49D3-9C04-3AA6FDD3ACDCconditional" d="M 0 5 L 8 0 L 16 5 L 8 10 L 0 5" fill="white" stroke="#000000" stroke-width="1" display="none"/> 			<path id="_55F4150B-69CB-49D3-9C04-3AA6FDD3ACDCdefault" d="M 5 0 L 11 10" fill="white" stroke="#000000" stroke-width="1" display="none"/> 	  	</marker><marker id="_55F4150B-69CB-49D3-9C04-3AA6FDD3ACDCend" refX="15" refY="6" markerUnits="userSpaceOnUse" markerWidth="15" markerHeight="12" orient="auto" fill="#000000" stroke="#000000"> 	  		<path id="_55F4150B-69CB-49D3-9C04-3AA6FDD3ACDCframe2" d="M 0 1 L 15 6 L 0 11z" fill="#000000" stroke="#000000" stroke-linejoin="round" stroke-width="2"/> 	  	</marker><marker id="_E49CBE8D-7F8F-4BC5-8269-9C48EFF3A168start" refX="1" refY="5" markerUnits="userSpaceOnUse" markerWidth="17" markerHeight="11" orient="auto" fill="#000000" stroke="#000000"> 	  		<path id="_E49CBE8D-7F8F-4BC5-8269-9C48EFF3A168conditional" d="M 0 5 L 8 0 L 16 5 L 8 10 L 0 5" fill="white" stroke="#000000" stroke-width="1" display="none"/> 			<path id="_E49CBE8D-7F8F-4BC5-8269-9C48EFF3A168default" d="M 5 0 L 11 10" fill="white" stroke="#000000" stroke-width="1" display="none"/> 	  	</marker><marker id="_E49CBE8D-7F8F-4BC5-8269-9C48EFF3A168end" refX="15" refY="6" markerUnits="userSpaceOnUse" markerWidth="15" markerHeight="12" orient="auto" fill="#000000" stroke="#000000"> 	  		<path id="_E49CBE8D-7F8F-4BC5-8269-9C48EFF3A168frame2" d="M 0 1 L 15 6 L 0 11z" fill="#000000" stroke="#000000" stroke-linejoin="round" stroke-width="2"/> 	  	</marker><marker id="_0A8D5B37-C94F-4E3C-A69C-028774F67584start" refX="1" refY="5" markerUnits="userSpaceOnUse" markerWidth="17" markerHeight="11" orient="auto" fill="#000000" stroke="#000000"> 	  		<path id="_0A8D5B37-C94F-4E3C-A69C-028774F67584conditional" d="M 0 5 L 8 0 L 16 5 L 8 10 L 0 5" fill="white" stroke="#000000" stroke-width="1" display="none"/> 			<path id="_0A8D5B37-C94F-4E3C-A69C-028774F67584default" d="M 5 0 L 11 10" fill="white" stroke="#000000" stroke-width="1" display="none"/> 	  	</marker><marker id="_0A8D5B37-C94F-4E3C-A69C-028774F67584end" refX="15" refY="6" markerUnits="userSpaceOnUse" markerWidth="15" markerHeight="12" orient="auto" fill="#000000" stroke="#000000"> 	  		<path id="_0A8D5B37-C94F-4E3C-A69C-028774F67584frame2" d="M 0 1 L 15 6 L 0 11z" fill="#000000" stroke="#000000" stroke-linejoin="round" stroke-width="2"/> 	  	</marker></defs><g stroke="none" font-family="Verdana, sans-serif" font-size-adjust="none" font-style="normal" font-variant="normal" font-weight="normal" line-heigth="normal" font-size="12"><g class="stencils" transform="translate(15, 16)"><g class="me"/><g class="children"><g id="_766487DB-768E-428B-B69E-01A2175B9591" bpmn2nodeid="processStartEvent"><g class="stencils" transform="translate(120, 165)"><g class="me"><g pointer-events="fill" id="_766487DB-768E-428B-B69E-01A2175B9591">        <defs id="_766487DB-768E-428B-B69E-01A2175B9591__766487DB-768E-428B-B69E-01A2175B9591_5"> 		<radialGradient id="_766487DB-768E-428B-B69E-01A2175B9591background" cx="10%" cy="10%" r="100%" fx="10%" fy="10%"> 			<stop offset="0%" stop-color="#ffffff" stop-opacity="1" id="_766487DB-768E-428B-B69E-01A2175B9591__766487DB-768E-428B-B69E-01A2175B9591_6"/> 			<stop id="_766487DB-768E-428B-B69E-01A2175B9591fill_el" offset="100%" stop-color="#9acd32" stop-opacity="1"/> 		</radialGradient> 	</defs> 	     <circle id="_766487DB-768E-428B-B69E-01A2175B9591bg_frame" cx="15" cy="15" r="15" stroke="#000000" fill="url(#_766487DB-768E-428B-B69E-01A2175B9591background) white" stroke-width="1" style="stroke-dasharray: 5.5, 3"/>      <circle id="_766487DB-768E-428B-B69E-01A2175B9591frame" cx="15" cy="15" r="15" stroke="#000000" fill="none" stroke-width="1" display="inherit"/>  	<text font-size="11" id="_766487DB-768E-428B-B69E-01A2175B9591text_name" x="15" y="32" oryx:align="top center" stroke="black" stroke-width="0pt" letter-spacing="-0.01px" fill="#000000" text-anchor="middle" transform="rotate(0 15 32)" visibility="inherit" oryx:fontSize="11"/>   </g></g><g class="children" style="overflow:hidden"/><g class="edge"/></g><g class="controls"><g class="dockers"/><g class="magnets" transform="translate(120, 165)"><g pointer-events="all" display="none" transform="translate(7, 7)"><circle cx="8" cy="8" r="4" stroke="none" fill="red" fill-opacity="0.3"/></g></g></g></g><g id="_9436849B-3CBF-40B3-8C3E-FD417F2EECA8" bpmn2nodeid="_4BDEEA2D-FEB5-44ED-B6EB-671AA6E5990F"><g class="stencils" transform="translate(240, 135)"><g class="me"><g pointer-events="fill" oryx:minimumSize="50 40" id="_9436849B-3CBF-40B3-8C3E-FD417F2EECA8">   	<defs id="_9436849B-3CBF-40B3-8C3E-FD417F2EECA8__9436849B-3CBF-40B3-8C3E-FD417F2EECA8_17"> 		<radialGradient id="_9436849B-3CBF-40B3-8C3E-FD417F2EECA8background" cx="10%" cy="10%" r="100%" fx="10%" fy="10%"> 			<stop offset="0%" stop-color="#ffffff" stop-opacity="1" id="_9436849B-3CBF-40B3-8C3E-FD417F2EECA8__9436849B-3CBF-40B3-8C3E-FD417F2EECA8_18"/> 			<stop id="_9436849B-3CBF-40B3-8C3E-FD417F2EECA8fill_el" offset="100%" stop-color="#fafad2" stop-opacity="1"/> 		</radialGradient> 		<radialGradient id="_9436849B-3CBF-40B3-8C3E-FD417F2EECA8borderbackground" cx="10%" cy="10%" r="100%" fx="10%" fy="10%"> 			<stop offset="0%" stop-color="#ffffff" stop-opacity="1" id="_9436849B-3CBF-40B3-8C3E-FD417F2EECA8__9436849B-3CBF-40B3-8C3E-FD417F2EECA8_19"/> 			<stop id="_9436849B-3CBF-40B3-8C3E-FD417F2EECA8fill_border" offset="100%" stop-color="#000000" stop-opacity="1" stroke="#000000"/> 		</radialGradient> 	</defs> 	 	<rect id="_9436849B-3CBF-40B3-8C3E-FD417F2EECA8text_frame" oryx:anchors="bottom top right left" x="1" y="1" width="94" height="79" rx="10" ry="10" stroke="none" stroke-width="0" fill="none"/> 	<rect id="_9436849B-3CBF-40B3-8C3E-FD417F2EECA8bg_frame" oryx:resize="vertical horizontal" x="0" y="0" width="100" height="80" rx="10" ry="10" stroke="#000000" stroke-width="1" fill="url(#_9436849B-3CBF-40B3-8C3E-FD417F2EECA8background) #ffffcc"/> 		<text font-size="12" id="_9436849B-3CBF-40B3-8C3E-FD417F2EECA8text_name" x="50" y="40" oryx:align="middle center" oryx:fittoelem="text_frame" stroke="black" text-anchor="middle" stroke-width="0pt" letter-spacing="-0.01px" fill="#000000" transform="rotate(0 50 40)" visibility="inherit" oryx:fontSize="12"><tspan x="50" y="40" dy="5" id="ext-gen616">Initialize</tspan></text>     <g id="_9436849B-3CBF-40B3-8C3E-FD417F2EECA8manualTask" transform="scale(0.7,0.7) translate(8,8)" display="none">     	<path oryx:anchors="top left" id="_9436849B-3CBF-40B3-8C3E-FD417F2EECA8frame" style="opacity:1;fill:none;fill-opacity:1;stroke-width:1" d="M0.5,3.751l4.083-3.25c0,0,11.166,0.083,12.083,0.083s-2.417,2.917-1.5,2.917     s11.667,0,12.584,0c1.166,1.708-0.168,3.167-0.834,3.667s0.875,1.917-1,4.417c-0.75,0.25,0.75,1.875-1.333,3.333     c-1.167,0.583,0.583,1.542-1.25,2.833c-1.167,0-20.833,0.083-20.833,0.083l-2-1.333V3.751z" stroke="#000000"/> 		<path id="_9436849B-3CBF-40B3-8C3E-FD417F2EECA8frame2" oryx:anchors="top left" style="opacity:1;fill:none;stroke-width:2" d="M 13.5 7 L 27 7" stroke="#000000"/> 		<path id="_9436849B-3CBF-40B3-8C3E-FD417F2EECA8frame3" oryx:anchors="top left" style="opacity:1;fill:none;stroke-width:2" d="M 13.5 11 L 26 11" stroke="#000000"/> 		<path id="_9436849B-3CBF-40B3-8C3E-FD417F2EECA8frame4" oryx:anchors="top left" style="opacity:1;fill:none;stroke-width:1.5" d="M 14 14.5 L 25 14.5" stroke="#000000"/> 		<path id="_9436849B-3CBF-40B3-8C3E-FD417F2EECA8frame5" oryx:anchors="top left" style="opacity:1;fill:none;stroke-width:1.5" d="M 8.2 3.1 L 15 3.1" stroke="#000000"/> 	</g> 	 	<g id="_9436849B-3CBF-40B3-8C3E-FD417F2EECA8businessRuleTask" transform="scale(0.7,0.7) translate(8,8)" display="inherit"> 		<rect id="_9436849B-3CBF-40B3-8C3E-FD417F2EECA8frame6" oryx:anchors="top left" x="0" y="0" width="22" height="4" style="opacity:1;fill:#B3B1B3;fill-opacity:1;" stroke="#000000"/> 		<rect id="_9436849B-3CBF-40B3-8C3E-FD417F2EECA8frame7" oryx:anchors="top left" x="0" y="4" style="opacity:1;fill:none;" width="22" height="12" stroke="#000000"/> 		<path id="_9436849B-3CBF-40B3-8C3E-FD417F2EECA8frame8" oryx:anchors="top left" style="opacity:1;fill:none;" d="M 0 10 L 22 10" stroke="#000000"/> 		<path id="_9436849B-3CBF-40B3-8C3E-FD417F2EECA8frame9" oryx:anchors="top left" style="opacity:1; fill:none;" d="M 7 4 L 7 16" stroke="#000000"/> 	</g> 	 	<g id="_9436849B-3CBF-40B3-8C3E-FD417F2EECA8scriptTask" transform="scale(0.7,0.7) translate(8,8)" display="none"> 		<path oryx:anchors="top left" id="_9436849B-3CBF-40B3-8C3E-FD417F2EECA8frame10" style="opacity:1;fill:none;" stroke="#000000" d="M6.402,0.5h14.5c0,0-5.833,2.833-5.833,5.583s4.417,6,4.417,9.167    s-4.167,5.083-4.167,5.083H0.235c0,0,5-2.667,5-5s-4.583-6.75-4.583-9.25S6.402,0.5,6.402,0.5z"/> 		<path oryx:anchors="top left" id="_9436849B-3CBF-40B3-8C3E-FD417F2EECA8frame11" style="opacity:1;fill:none;stroke-width:1.5" d="M 3.5 4.5 L 13.5 4.5" stroke="#000000"/> 		<path oryx:anchors="top left" id="_9436849B-3CBF-40B3-8C3E-FD417F2EECA8frame12" style="opacity:1;fill:none;stroke-width:1.5" d="M 3.8 8.5 L 13.8 8.5" stroke="#000000"/> 		<path oryx:anchors="top left" id="_9436849B-3CBF-40B3-8C3E-FD417F2EECA8frame13" style="opacity:1;fill:none;stroke-width:1.5" d="M 6.3 12.5 L 16.3 12.5" stroke="#000000"/> 		<path oryx:anchors="top left" id="_9436849B-3CBF-40B3-8C3E-FD417F2EECA8frame14" style="opacity:1;fill:none;stroke-width:1.5" d="M 6.5 16.5 L 16.5 16.5" stroke="#000000"/> 	</g> 	 	<g id="_9436849B-3CBF-40B3-8C3E-FD417F2EECA8userTask" transform="scale(0.7,0.7) translate(8,8)" display="none"> 		<path id="_9436849B-3CBF-40B3-8C3E-FD417F2EECA8frame15" oryx:anchors="top left" style="opacity:1;fill:#F4F6F7" stroke="#000000" d="M0.585,24.167h24.083v-7.833c0,0-2.333-3.917-7.083-5.167h-9.25    c-4.417,1.333-7.833,5.75-7.833,5.75L0.585,24.167z"/> 		<path id="_9436849B-3CBF-40B3-8C3E-FD417F2EECA8frame16" oryx:anchors="top left" style="opacity:1;fill:none" d="M 6 20 L 6 24" stroke="#000000"/> 		<path id="_9436849B-3CBF-40B3-8C3E-FD417F2EECA8frame17" oryx:anchors="top left" style="opacity:1;fill:none" d="M 20 20 L 20 24" stroke="#000000"/> 		<circle id="_9436849B-3CBF-40B3-8C3E-FD417F2EECA8frame18" oryx:anchors="top left" fill="black" cx="13.002" cy="5.916" r="5.417" stroke="#000000"/> 		<path id="_9436849B-3CBF-40B3-8C3E-FD417F2EECA8frame19" oryx:anchors="top left" style="opacity:1;fill:#F0EFF0;" stroke="#000000" d="M8.043,7.083c0,0,2.814-2.426,5.376-1.807s4.624-0.693,4.624-0.693    c0.25,1.688,0.042,3.75-1.458,5.584c0,0,1.083,0.75,1.083,1.5s0.125,1.875-1,3s-5.5,1.25-6.75,0S8.668,12.834,8.668,12    s0.583-1.25,1.25-1.917C8.835,9.5,7.419,7.708,8.043,7.083z"/> 	</g> 	 	<g id="_9436849B-3CBF-40B3-8C3E-FD417F2EECA8serviceTask" transform="scale(0.7,0.7) translate(8,8)" display="none"> 		<polygon oryx:anchors="top left" id="_9436849B-3CBF-40B3-8C3E-FD417F2EECA8frame20" style="opacity:1;fill:#ffffff" stroke="#000000" points="15.392,5.064 17.954,2.502 20.347,4.895 17.786,7.455     18.729,9.732 22.353,9.732 22.353,13.115 18.731,13.115 17.788,15.392 20.351,17.955 17.958,20.347 15.397,17.786 13.12,18.729     13.12,22.353 9.737,22.353 9.737,18.731 7.46,17.788 4.897,20.35 2.506,17.958 5.066,15.397 4.124,13.12 0.5,13.12 0.5,9.737     4.121,9.737 5.065,7.461 2.503,4.898 4.895,2.506 7.455,5.066 9.732,4.125 9.732,0.5 13.116,0.5 13.116,4.121 "/> 		<circle oryx:anchors="top left" id="_9436849B-3CBF-40B3-8C3E-FD417F2EECA8frame21" style="opacity:1;fill:none" stroke="#000000" cx="11.427" cy="11.426" r="3.714"/> 		<polygon oryx:anchors="top left" id="_9436849B-3CBF-40B3-8C3E-FD417F2EECA8frame22" style="opacity:1;fill:#ffffff" stroke="#000000" points="21.392,11.064 23.954,8.502 26.347,10.895 23.786,13.455     24.729,15.732 28.353,15.732 28.353,19.115 24.731,19.115 23.788,21.392 26.351,23.955 23.958,26.347 21.397,23.786 19.12,24.729     19.12,28.353 15.737,28.353 15.737,24.731 13.46,23.788 10.897,26.35 8.506,23.958 11.066,21.397 10.124,19.12 6.5,19.12     6.5,15.737 10.121,15.737 11.065,13.461 8.503,10.898 10.895,8.506 13.455,11.066 15.732,10.125 15.732,6.5 19.116,6.5     19.116,10.121 "/> 		<circle oryx:anchors="top left" id="_9436849B-3CBF-40B3-8C3E-FD417F2EECA8frame23" style="opacity:1;fill:none;" stroke="#000000" cx="17.427" cy="17.426" r="3.714"/> 	</g> 	 	<g id="_9436849B-3CBF-40B3-8C3E-FD417F2EECA8sendTask" display="none"> 		<path id="_9436849B-3CBF-40B3-8C3E-FD417F2EECA8stframe24" oryx:anchors="left top" stroke="#FFFFFF" fill="black" stroke-width="1" d="M8,11 L8,21 L24,21 L24,11 L16,17z"/> 		<path id="_9436849B-3CBF-40B3-8C3E-FD417F2EECA8stframe25" oryx:anchors="left top" stroke="#FFFFFF" fill="black" stroke-width="1" d="M7,10 L16,17 L25 10z"/> 	</g> 	 	<g id="_9436849B-3CBF-40B3-8C3E-FD417F2EECA8receiveTask" display="none"> 		<path id="_9436849B-3CBF-40B3-8C3E-FD417F2EECA8frame26" oryx:anchors="left top" stroke="#000000" fill="none" stroke-width="1" d="M8,11 L8,21 L24,21 L24,11z M8,11 L16,17 L24,11"/> 	</g> 	 	<g id="_9436849B-3CBF-40B3-8C3E-FD417F2EECA8none" display="inherit"/>  	<g id="_9436849B-3CBF-40B3-8C3E-FD417F2EECA8sequential" display="none">         <path oryx:anchors="bottom" fill="none" stroke="#000000" stroke-width="2" d="M46,76h10M46,72h10 M46,68h10" id="_9436849B-3CBF-40B3-8C3E-FD417F2EECA8__9436849B-3CBF-40B3-8C3E-FD417F2EECA8_20"/>     </g>   </g></g><g class="children" style="overflow:hidden"/><g class="edge"/></g><g class="controls"><g class="dockers"/><g class="magnets" transform="translate(240, 135)"><g pointer-events="all" display="none" transform="translate(-7, 12)"><circle cx="8" cy="8" r="4" stroke="none" fill="red" fill-opacity="0.3"/></g><g pointer-events="all" display="none" transform="translate(-7, 32)"><circle cx="8" cy="8" r="4" stroke="none" fill="red" fill-opacity="0.3"/></g><g pointer-events="all" display="none" transform="translate(-7, 52)"><circle cx="8" cy="8" r="4" stroke="none" fill="red" fill-opacity="0.3"/></g><g pointer-events="all" display="none" transform="translate(17, 71)"><circle cx="8" cy="8" r="4" stroke="none" fill="red" fill-opacity="0.3"/></g><g pointer-events="all" display="none" transform="translate(42, 71)"><circle cx="8" cy="8" r="4" stroke="none" fill="red" fill-opacity="0.3"/></g><g pointer-events="all" display="none" transform="translate(67, 71)"><circle cx="8" cy="8" r="4" stroke="none" fill="red" fill-opacity="0.3"/></g><g pointer-events="all" display="none" transform="translate(91, 12)"><circle cx="8" cy="8" r="4" stroke="none" fill="red" fill-opacity="0.3"/></g><g pointer-events="all" display="none" transform="translate(91, 32)"><circle cx="8" cy="8" r="4" stroke="none" fill="red" fill-opacity="0.3"/></g><g pointer-events="all" display="none" transform="translate(91, 52)"><circle cx="8" cy="8" r="4" stroke="none" fill="red" fill-opacity="0.3"/></g><g pointer-events="all" display="none" transform="translate(17, -7)"><circle cx="8" cy="8" r="4" stroke="none" fill="red" fill-opacity="0.3"/></g><g pointer-events="all" display="none" transform="translate(42, -7)"><circle cx="8" cy="8" r="4" stroke="none" fill="red" fill-opacity="0.3"/></g><g pointer-events="all" display="none" transform="translate(67, -7)"><circle cx="8" cy="8" r="4" stroke="none" fill="red" fill-opacity="0.3"/></g><g pointer-events="all" display="none" transform="translate(42, 32)"><circle cx="8" cy="8" r="4" stroke="none" fill="red" fill-opacity="0.3"/></g></g></g></g><g id="_AFDAFBD9-6A64-4233-A3A4-D238A46F9437" bpmn2nodeid="_8FED164F-8547-4754-9DF0-D61316C7CB06"><g class="stencils" transform="translate(571, 285)"><g class="me"><g pointer-events="fill" id="_AFDAFBD9-6A64-4233-A3A4-D238A46F9437">      <defs id="_AFDAFBD9-6A64-4233-A3A4-D238A46F9437__AFDAFBD9-6A64-4233-A3A4-D238A46F9437_5"> 		<radialGradient id="_AFDAFBD9-6A64-4233-A3A4-D238A46F9437background" cx="10%" cy="10%" r="100%" fx="10%" fy="10%"> 			<stop offset="0%" stop-color="#ffffff" stop-opacity="1" id="_AFDAFBD9-6A64-4233-A3A4-D238A46F9437__AFDAFBD9-6A64-4233-A3A4-D238A46F9437_6"/> 			<stop id="_AFDAFBD9-6A64-4233-A3A4-D238A46F9437fill_el" offset="100%" stop-color="#ff6347" stop-opacity="1"/> 		</radialGradient> 	</defs> 	     <circle id="_AFDAFBD9-6A64-4233-A3A4-D238A46F9437bg_frame" cx="14" cy="14" r="14" stroke="#000000" fill="url(#_AFDAFBD9-6A64-4233-A3A4-D238A46F9437background) white" stroke-width="3"/> 	<text font-size="11" id="_AFDAFBD9-6A64-4233-A3A4-D238A46F9437text_name" x="14" y="30" oryx:align="top center" stroke="black" stroke-width="0pt" letter-spacing="-0.01px" fill="#000000" text-anchor="middle" transform="rotate(0 14 30)" visibility="inherit" oryx:fontSize="11"/>   </g></g><g class="children" style="overflow:hidden"/><g class="edge"/></g><g class="controls"><g class="dockers"/><g class="magnets" transform="translate(571, 285)"><g pointer-events="all" display="none" transform="translate(6, 6)"><circle cx="8" cy="8" r="4" stroke="none" fill="red" fill-opacity="0.3"/></g></g></g></g><g id="_CD5F505F-C60D-410C-8876-34CF183F0A19" bpmn2nodeid="_5DF14411-8123-4A74-B354-1019CD87CDA0"><g class="stencils" transform="translate(420, 140)"><g class="me"><g pointer-events="fill" oryx:minimumSize="50 40" id="_CD5F505F-C60D-410C-8876-34CF183F0A19">   	<defs id="_CD5F505F-C60D-410C-8876-34CF183F0A19__CD5F505F-C60D-410C-8876-34CF183F0A19_17"> 		<radialGradient id="_CD5F505F-C60D-410C-8876-34CF183F0A19background" cx="10%" cy="10%" r="100%" fx="10%" fy="10%"> 			<stop offset="0%" stop-color="#ffffff" stop-opacity="1" id="_CD5F505F-C60D-410C-8876-34CF183F0A19__CD5F505F-C60D-410C-8876-34CF183F0A19_18"/> 			<stop id="_CD5F505F-C60D-410C-8876-34CF183F0A19fill_el" offset="100%" stop-color="#fafad2" stop-opacity="1"/> 		</radialGradient> 		<radialGradient id="_CD5F505F-C60D-410C-8876-34CF183F0A19borderbackground" cx="10%" cy="10%" r="100%" fx="10%" fy="10%"> 			<stop offset="0%" stop-color="#ffffff" stop-opacity="1" id="_CD5F505F-C60D-410C-8876-34CF183F0A19__CD5F505F-C60D-410C-8876-34CF183F0A19_19"/> 			<stop id="_CD5F505F-C60D-410C-8876-34CF183F0A19fill_border" offset="100%" stop-color="#000000" stop-opacity="1" stroke="#000000"/> 		</radialGradient> 	</defs> 	 	<rect id="_CD5F505F-C60D-410C-8876-34CF183F0A19text_frame" oryx:anchors="bottom top right left" x="1" y="1" width="94" height="79" rx="10" ry="10" stroke="none" stroke-width="0" fill="none"/> 	<rect id="_CD5F505F-C60D-410C-8876-34CF183F0A19bg_frame" oryx:resize="vertical horizontal" x="0" y="0" width="100" height="80" rx="10" ry="10" stroke="#000000" stroke-width="1" fill="url(#_CD5F505F-C60D-410C-8876-34CF183F0A19background) #ffffcc"/> 		<text font-size="12" id="_CD5F505F-C60D-410C-8876-34CF183F0A19text_name" x="50" y="40" oryx:align="middle center" oryx:fittoelem="text_frame" stroke="black" text-anchor="middle" stroke-width="0pt" letter-spacing="-0.01px" fill="#000000" transform="rotate(0 50 40)" visibility="inherit" oryx:fontSize="12"><tspan x="50" y="40" dy="5" id="ext-gen618">Valid Order</tspan></text>     <g id="_CD5F505F-C60D-410C-8876-34CF183F0A19manualTask" transform="scale(0.7,0.7) translate(8,8)" display="none">     	<path oryx:anchors="top left" id="_CD5F505F-C60D-410C-8876-34CF183F0A19frame" style="opacity:1;fill:none;fill-opacity:1;stroke-width:1" d="M0.5,3.751l4.083-3.25c0,0,11.166,0.083,12.083,0.083s-2.417,2.917-1.5,2.917     s11.667,0,12.584,0c1.166,1.708-0.168,3.167-0.834,3.667s0.875,1.917-1,4.417c-0.75,0.25,0.75,1.875-1.333,3.333     c-1.167,0.583,0.583,1.542-1.25,2.833c-1.167,0-20.833,0.083-20.833,0.083l-2-1.333V3.751z" stroke="#000000"/> 		<path id="_CD5F505F-C60D-410C-8876-34CF183F0A19frame2" oryx:anchors="top left" style="opacity:1;fill:none;stroke-width:2" d="M 13.5 7 L 27 7" stroke="#000000"/> 		<path id="_CD5F505F-C60D-410C-8876-34CF183F0A19frame3" oryx:anchors="top left" style="opacity:1;fill:none;stroke-width:2" d="M 13.5 11 L 26 11" stroke="#000000"/> 		<path id="_CD5F505F-C60D-410C-8876-34CF183F0A19frame4" oryx:anchors="top left" style="opacity:1;fill:none;stroke-width:1.5" d="M 14 14.5 L 25 14.5" stroke="#000000"/> 		<path id="_CD5F505F-C60D-410C-8876-34CF183F0A19frame5" oryx:anchors="top left" style="opacity:1;fill:none;stroke-width:1.5" d="M 8.2 3.1 L 15 3.1" stroke="#000000"/> 	</g> 	 	<g id="_CD5F505F-C60D-410C-8876-34CF183F0A19businessRuleTask" transform="scale(0.7,0.7) translate(8,8)" display="inherit"> 		<rect id="_CD5F505F-C60D-410C-8876-34CF183F0A19frame6" oryx:anchors="top left" x="0" y="0" width="22" height="4" style="opacity:1;fill:#B3B1B3;fill-opacity:1;" stroke="#000000"/> 		<rect id="_CD5F505F-C60D-410C-8876-34CF183F0A19frame7" oryx:anchors="top left" x="0" y="4" style="opacity:1;fill:none;" width="22" height="12" stroke="#000000"/> 		<path id="_CD5F505F-C60D-410C-8876-34CF183F0A19frame8" oryx:anchors="top left" style="opacity:1;fill:none;" d="M 0 10 L 22 10" stroke="#000000"/> 		<path id="_CD5F505F-C60D-410C-8876-34CF183F0A19frame9" oryx:anchors="top left" style="opacity:1; fill:none;" d="M 7 4 L 7 16" stroke="#000000"/> 	</g> 	 	<g id="_CD5F505F-C60D-410C-8876-34CF183F0A19scriptTask" transform="scale(0.7,0.7) translate(8,8)" display="none"> 		<path oryx:anchors="top left" id="_CD5F505F-C60D-410C-8876-34CF183F0A19frame10" style="opacity:1;fill:none;" stroke="#000000" d="M6.402,0.5h14.5c0,0-5.833,2.833-5.833,5.583s4.417,6,4.417,9.167    s-4.167,5.083-4.167,5.083H0.235c0,0,5-2.667,5-5s-4.583-6.75-4.583-9.25S6.402,0.5,6.402,0.5z"/> 		<path oryx:anchors="top left" id="_CD5F505F-C60D-410C-8876-34CF183F0A19frame11" style="opacity:1;fill:none;stroke-width:1.5" d="M 3.5 4.5 L 13.5 4.5" stroke="#000000"/> 		<path oryx:anchors="top left" id="_CD5F505F-C60D-410C-8876-34CF183F0A19frame12" style="opacity:1;fill:none;stroke-width:1.5" d="M 3.8 8.5 L 13.8 8.5" stroke="#000000"/> 		<path oryx:anchors="top left" id="_CD5F505F-C60D-410C-8876-34CF183F0A19frame13" style="opacity:1;fill:none;stroke-width:1.5" d="M 6.3 12.5 L 16.3 12.5" stroke="#000000"/> 		<path oryx:anchors="top left" id="_CD5F505F-C60D-410C-8876-34CF183F0A19frame14" style="opacity:1;fill:none;stroke-width:1.5" d="M 6.5 16.5 L 16.5 16.5" stroke="#000000"/> 	</g> 	 	<g id="_CD5F505F-C60D-410C-8876-34CF183F0A19userTask" transform="scale(0.7,0.7) translate(8,8)" display="none"> 		<path id="_CD5F505F-C60D-410C-8876-34CF183F0A19frame15" oryx:anchors="top left" style="opacity:1;fill:#F4F6F7" stroke="#000000" d="M0.585,24.167h24.083v-7.833c0,0-2.333-3.917-7.083-5.167h-9.25    c-4.417,1.333-7.833,5.75-7.833,5.75L0.585,24.167z"/> 		<path id="_CD5F505F-C60D-410C-8876-34CF183F0A19frame16" oryx:anchors="top left" style="opacity:1;fill:none" d="M 6 20 L 6 24" stroke="#000000"/> 		<path id="_CD5F505F-C60D-410C-8876-34CF183F0A19frame17" oryx:anchors="top left" style="opacity:1;fill:none" d="M 20 20 L 20 24" stroke="#000000"/> 		<circle id="_CD5F505F-C60D-410C-8876-34CF183F0A19frame18" oryx:anchors="top left" fill="black" cx="13.002" cy="5.916" r="5.417" stroke="#000000"/> 		<path id="_CD5F505F-C60D-410C-8876-34CF183F0A19frame19" oryx:anchors="top left" style="opacity:1;fill:#F0EFF0;" stroke="#000000" d="M8.043,7.083c0,0,2.814-2.426,5.376-1.807s4.624-0.693,4.624-0.693    c0.25,1.688,0.042,3.75-1.458,5.584c0,0,1.083,0.75,1.083,1.5s0.125,1.875-1,3s-5.5,1.25-6.75,0S8.668,12.834,8.668,12    s0.583-1.25,1.25-1.917C8.835,9.5,7.419,7.708,8.043,7.083z"/> 	</g> 	 	<g id="_CD5F505F-C60D-410C-8876-34CF183F0A19serviceTask" transform="scale(0.7,0.7) translate(8,8)" display="none"> 		<polygon oryx:anchors="top left" id="_CD5F505F-C60D-410C-8876-34CF183F0A19frame20" style="opacity:1;fill:#ffffff" stroke="#000000" points="15.392,5.064 17.954,2.502 20.347,4.895 17.786,7.455     18.729,9.732 22.353,9.732 22.353,13.115 18.731,13.115 17.788,15.392 20.351,17.955 17.958,20.347 15.397,17.786 13.12,18.729     13.12,22.353 9.737,22.353 9.737,18.731 7.46,17.788 4.897,20.35 2.506,17.958 5.066,15.397 4.124,13.12 0.5,13.12 0.5,9.737     4.121,9.737 5.065,7.461 2.503,4.898 4.895,2.506 7.455,5.066 9.732,4.125 9.732,0.5 13.116,0.5 13.116,4.121 "/> 		<circle oryx:anchors="top left" id="_CD5F505F-C60D-410C-8876-34CF183F0A19frame21" style="opacity:1;fill:none" stroke="#000000" cx="11.427" cy="11.426" r="3.714"/> 		<polygon oryx:anchors="top left" id="_CD5F505F-C60D-410C-8876-34CF183F0A19frame22" style="opacity:1;fill:#ffffff" stroke="#000000" points="21.392,11.064 23.954,8.502 26.347,10.895 23.786,13.455     24.729,15.732 28.353,15.732 28.353,19.115 24.731,19.115 23.788,21.392 26.351,23.955 23.958,26.347 21.397,23.786 19.12,24.729     19.12,28.353 15.737,28.353 15.737,24.731 13.46,23.788 10.897,26.35 8.506,23.958 11.066,21.397 10.124,19.12 6.5,19.12     6.5,15.737 10.121,15.737 11.065,13.461 8.503,10.898 10.895,8.506 13.455,11.066 15.732,10.125 15.732,6.5 19.116,6.5     19.116,10.121 "/> 		<circle oryx:anchors="top left" id="_CD5F505F-C60D-410C-8876-34CF183F0A19frame23" style="opacity:1;fill:none;" stroke="#000000" cx="17.427" cy="17.426" r="3.714"/> 	</g> 	 	<g id="_CD5F505F-C60D-410C-8876-34CF183F0A19sendTask" display="none"> 		<path id="_CD5F505F-C60D-410C-8876-34CF183F0A19stframe24" oryx:anchors="left top" stroke="#FFFFFF" fill="black" stroke-width="1" d="M8,11 L8,21 L24,21 L24,11 L16,17z"/> 		<path id="_CD5F505F-C60D-410C-8876-34CF183F0A19stframe25" oryx:anchors="left top" stroke="#FFFFFF" fill="black" stroke-width="1" d="M7,10 L16,17 L25 10z"/> 	</g> 	 	<g id="_CD5F505F-C60D-410C-8876-34CF183F0A19receiveTask" display="none"> 		<path id="_CD5F505F-C60D-410C-8876-34CF183F0A19frame26" oryx:anchors="left top" stroke="#000000" fill="none" stroke-width="1" d="M8,11 L8,21 L24,21 L24,11z M8,11 L16,17 L24,11"/> 	</g> 	 	<g id="_CD5F505F-C60D-410C-8876-34CF183F0A19none" display="inherit"/>  	<g id="_CD5F505F-C60D-410C-8876-34CF183F0A19sequential" display="none">         <path oryx:anchors="bottom" fill="none" stroke="#000000" stroke-width="2" d="M46,76h10M46,72h10 M46,68h10" id="_CD5F505F-C60D-410C-8876-34CF183F0A19__CD5F505F-C60D-410C-8876-34CF183F0A19_20"/>     </g>   </g></g><g class="children" style="overflow:hidden"/><g class="edge"/></g><g class="controls"><g class="dockers"/><g class="magnets" transform="translate(420, 140)"><g pointer-events="all" display="none" transform="translate(-7, 12)"><circle cx="8" cy="8" r="4" stroke="none" fill="red" fill-opacity="0.3"/></g><g pointer-events="all" display="none" transform="translate(-7, 32)"><circle cx="8" cy="8" r="4" stroke="none" fill="red" fill-opacity="0.3"/></g><g pointer-events="all" display="none" transform="translate(-7, 52)"><circle cx="8" cy="8" r="4" stroke="none" fill="red" fill-opacity="0.3"/></g><g pointer-events="all" display="none" transform="translate(17, 71)"><circle cx="8" cy="8" r="4" stroke="none" fill="red" fill-opacity="0.3"/></g><g pointer-events="all" display="none" transform="translate(42, 71)"><circle cx="8" cy="8" r="4" stroke="none" fill="red" fill-opacity="0.3"/></g><g pointer-events="all" display="none" transform="translate(67, 71)"><circle cx="8" cy="8" r="4" stroke="none" fill="red" fill-opacity="0.3"/></g><g pointer-events="all" display="none" transform="translate(91, 12)"><circle cx="8" cy="8" r="4" stroke="none" fill="red" fill-opacity="0.3"/></g><g pointer-events="all" display="none" transform="translate(91, 32)"><circle cx="8" cy="8" r="4" stroke="none" fill="red" fill-opacity="0.3"/></g><g pointer-events="all" display="none" transform="translate(91, 52)"><circle cx="8" cy="8" r="4" stroke="none" fill="red" fill-opacity="0.3"/></g><g pointer-events="all" display="none" transform="translate(17, -7)"><circle cx="8" cy="8" r="4" stroke="none" fill="red" fill-opacity="0.3"/></g><g pointer-events="all" display="none" transform="translate(42, -7)"><circle cx="8" cy="8" r="4" stroke="none" fill="red" fill-opacity="0.3"/></g><g pointer-events="all" display="none" transform="translate(67, -7)"><circle cx="8" cy="8" r="4" stroke="none" fill="red" fill-opacity="0.3"/></g><g pointer-events="all" display="none" transform="translate(42, 32)"><circle cx="8" cy="8" r="4" stroke="none" fill="red" fill-opacity="0.3"/></g></g></g></g><g id="_5742542D-4928-463E-BBF5-821E2831F116" bpmn2nodeid="_BD74BE8C-08DE-45BE-838C-9B6E03D4D72A"><g class="stencils" transform="translate(565, 160)"><g class="me"><g id="_5742542D-4928-463E-BBF5-821E2831F116">        <defs id="_5742542D-4928-463E-BBF5-821E2831F116__5742542D-4928-463E-BBF5-821E2831F116_4"> 		<radialGradient id="_5742542D-4928-463E-BBF5-821E2831F116background" cx="10%" cy="10%" r="100%" fx="10%" fy="10%"> 			<stop offset="0%" stop-color="#ffffff" stop-opacity="1" id="_5742542D-4928-463E-BBF5-821E2831F116__5742542D-4928-463E-BBF5-821E2831F116_5"/> 			<stop id="_5742542D-4928-463E-BBF5-821E2831F116fill_el" offset="100%" stop-color="#f0e68c" stop-opacity="1"/> 		</radialGradient> 		<radialGradient id="_5742542D-4928-463E-BBF5-821E2831F116borderbackground" cx="10%" cy="10%" r="100%" fx="10%" fy="10%"> 			<stop offset="0%" stop-color="#ffffff" stop-opacity="1" id="_5742542D-4928-463E-BBF5-821E2831F116__5742542D-4928-463E-BBF5-821E2831F116_6"/> 			<stop id="_5742542D-4928-463E-BBF5-821E2831F116fill_border" offset="100%" stop-color="#a67f00" stop-opacity="1" stroke="#a67f00"/> 		</radialGradient> 	</defs> 	     <path d=" M0 20.5  L20.5 0  L40 20.5  L20.5 40  z" id="_5742542D-4928-463E-BBF5-821E2831F116bg_frame" fill="url(#_5742542D-4928-463E-BBF5-821E2831F116background) white" style="stroke-width:1" stroke="#a67f00"/>     <g id="_5742542D-4928-463E-BBF5-821E2831F116frame" stroke="#a67f00">       <path id="_5742542D-4928-463E-BBF5-821E2831F116frame2" d=" M13.25 12.05  L17.25 12.05  L27.65 28.95  L23.75 28.95  z" style="stroke-width:1" stroke="#a67f00" fill="url(#_5742542D-4928-463E-BBF5-821E2831F116borderbackground)"/>       <path id="_5742542D-4928-463E-BBF5-821E2831F116frame3" d=" M13.25 28.95  L23.75 12.05  L27.65 12.05  L17.25 28.95  z" style="stroke-width:1" stroke="#a67f00" fill="url(#_5742542D-4928-463E-BBF5-821E2831F116borderbackground)"/>     </g> 	 	<text id="_5742542D-4928-463E-BBF5-821E2831F116text_name" x="30.5" y="30.5" oryx:align="left top" stroke-width="0pt" letter-spacing="-0.01px" fill="#000000" text-anchor="start" transform="rotate(0 30.5 30.5)" visibility="inherit" oryx:fontSize="12"><tspan x="30.5" y="30.5" dy="12" id="ext-gen711">valid?</tspan></text> 	   </g></g><g class="children" style="overflow:hidden"/><g class="edge"/></g><g class="controls"><g class="dockers"/><g class="magnets" transform="translate(565, 160)"><g pointer-events="all" display="none" transform="translate(12.5, 12.5)"><circle cx="8" cy="8" r="4" stroke="none" fill="red" fill-opacity="0.3"/></g></g></g></g><g id="_6442610E-E0E0-4B60-9AAD-CB43911E7569" bpmn2nodeid="_29858477-35B6-4E45-9AFE-C079D7EAFDC2"><g class="stencils" transform="translate(675, 166)"><g class="me"><g pointer-events="fill" id="_6442610E-E0E0-4B60-9AAD-CB43911E7569">      <defs id="_6442610E-E0E0-4B60-9AAD-CB43911E7569__6442610E-E0E0-4B60-9AAD-CB43911E7569_5"> 		<radialGradient id="_6442610E-E0E0-4B60-9AAD-CB43911E7569background" cx="10%" cy="10%" r="100%" fx="10%" fy="10%"> 			<stop offset="0%" stop-color="#ffffff" stop-opacity="1" id="_6442610E-E0E0-4B60-9AAD-CB43911E7569__6442610E-E0E0-4B60-9AAD-CB43911E7569_6"/> 			<stop id="_6442610E-E0E0-4B60-9AAD-CB43911E7569fill_el" offset="100%" stop-color="#ff6347" stop-opacity="1"/> 		</radialGradient> 	</defs> 	     <circle id="_6442610E-E0E0-4B60-9AAD-CB43911E7569bg_frame" cx="14" cy="14" r="14" stroke="#000000" fill="url(#_6442610E-E0E0-4B60-9AAD-CB43911E7569background) white" stroke-width="3"/> 	<text font-size="11" id="_6442610E-E0E0-4B60-9AAD-CB43911E7569text_name" x="14" y="30" oryx:align="top center" stroke="black" stroke-width="0pt" letter-spacing="-0.01px" fill="#000000" text-anchor="middle" transform="rotate(0 14 30)" visibility="inherit" oryx:fontSize="11"/>   </g></g><g class="children" style="overflow:hidden"/><g class="edge"/></g><g class="controls"><g class="dockers"/><g class="magnets" transform="translate(675, 166)"><g pointer-events="all" display="none" transform="translate(6, 6)"><circle cx="8" cy="8" r="4" stroke="none" fill="red" fill-opacity="0.3"/></g></g></g></g></g><g class="edge"><g id="_8D373F76-82CB-425B-92EA-E2CAAD8A8D70" bpmn2nodeid="_AF94964A-1267-4488-858C-85066638283C"><g class="stencils"><g class="me"><g pointer-events="painted" bpmn2nodeid="_AB997D58-6704-40D2-BFAC-01FA0F5D3BC6"><path id="_8D373F76-82CB-425B-92EA-E2CAAD8A8D70_1" d="M150.5307301143397 179.49900870598904L239.3520823856603 176.63380379401096 " stroke="#000000" fill="none" stroke-width="2" stroke-linecap="round" stroke-linejoin="round" marker-start="url(#_8D373F76-82CB-425B-92EA-E2CAAD8A8D70start)" marker-end="url(#_8D373F76-82CB-425B-92EA-E2CAAD8A8D70end)"/></g><text id="_8D373F76-82CB-425B-92EA-E2CAAD8A8D70text_name" font-size="12" x="164.5307301143397" y="165.49900870598904" oryx:edgePosition="startTop" stroke-width="0pt" letter-spacing="-0.01px" fill="#000000" text-anchor="start" transform="rotate(358.1523897340054 150.5307301143397 179.49900870598904)" visibility="inherit" oryx:fontSize="12"/></g><g class="children" style="overflow:hidden"/><g class="edge"/></g><g class="controls"><g class="dockers"/><g class="magnets"/></g></g><g id="_D2E067F3-6337-4553-9B34-E7FA665DBB6C" bpmn2nodeid="_A645634C-81FD-47BD-AD69-463786216DD1"><g class="stencils"><g class="me"><g pointer-events="painted" bpmn2nodeid="_F8AF5D35-E07D-49CB-85F1-D4D33F873AC7"><path id="_D2E067F3-6337-4553-9B34-E7FA665DBB6C_1" d="M340.47265174869017 196.21562310792402L571.4023482513098 293.284376892076 " stroke="#000000" fill="none" stroke-width="2" stroke-linecap="round" stroke-linejoin="round" marker-start="url(#_D2E067F3-6337-4553-9B34-E7FA665DBB6Cstart)" marker-end="url(#_D2E067F3-6337-4553-9B34-E7FA665DBB6Cend)"/></g><text id="_D2E067F3-6337-4553-9B34-E7FA665DBB6Ctext_name" font-size="12" x="354.47265174869017" y="182.21562310792402" oryx:edgePosition="startTop" stroke-width="0pt" letter-spacing="-0.01px" fill="#000000" text-anchor="start" transform="rotate(22.79891367617938 340.47265174869017 196.21562310792402)" visibility="inherit" oryx:fontSize="12"/></g><g class="children" style="overflow:hidden"/><g class="edge"/></g><g class="controls"><g class="dockers"/><g class="magnets"/></g></g><g id="_55F4150B-69CB-49D3-9C04-3AA6FDD3ACDC" bpmn2nodeid="_B2EF91E6-494F-4958-AB99-CABBAE93B7C2"><g class="stencils"><g class="me"><g pointer-events="painted" bpmn2nodeid="_359B5777-D9E6-49E8-9022-D331738B646D"><path id="_55F4150B-69CB-49D3-9C04-3AA6FDD3ACDC_1" d="M520.4140625 180L565.1328125 180 " stroke="#000000" fill="none" stroke-width="2" stroke-linecap="round" stroke-linejoin="round" marker-start="url(#_55F4150B-69CB-49D3-9C04-3AA6FDD3ACDCstart)" marker-end="url(#_55F4150B-69CB-49D3-9C04-3AA6FDD3ACDCend)"/></g><text id="_55F4150B-69CB-49D3-9C04-3AA6FDD3ACDCtext_name" font-size="12" x="534.4140625" y="166" oryx:edgePosition="startTop" stroke-width="0pt" letter-spacing="-0.01px" fill="#000000" text-anchor="start" transform="rotate(360 520.4140625 180)" visibility="inherit" oryx:fontSize="12"/></g><g class="children" style="overflow:hidden"/><g class="edge"/></g><g class="controls"><g class="dockers"/><g class="magnets"/></g></g><g id="_E49CBE8D-7F8F-4BC5-8269-9C48EFF3A168" bpmn2nodeid="_F2F63060-1F4D-4A2D-98B8-F4499EA794E8"><g class="stencils"><g class="me"><g pointer-events="painted" bpmn2nodeid="_7B6D9107-7EC7-4934-A5E6-EED306753AD1"><path id="_E49CBE8D-7F8F-4BC5-8269-9C48EFF3A168_1" d="M605.5 180L675 180 " stroke="#000000" fill="none" stroke-width="2" stroke-linecap="round" stroke-linejoin="round" marker-start="url(#_E49CBE8D-7F8F-4BC5-8269-9C48EFF3A168start)" marker-end="url(#_E49CBE8D-7F8F-4BC5-8269-9C48EFF3A168end)"/></g><text id="_E49CBE8D-7F8F-4BC5-8269-9C48EFF3A168text_name" font-size="12" x="619.5" y="166" oryx:edgePosition="startTop" stroke-width="0pt" letter-spacing="-0.01px" fill="#000000" text-anchor="start" transform="rotate(360 605.5 180)" visibility="inherit" oryx:fontSize="12"><tspan x="619.5" y="166" dy="0">yes</tspan></text></g><g class="children" style="overflow:hidden"/><g class="edge"/></g><g class="controls"><g class="dockers"/><g class="magnets"/></g></g><g id="_0A8D5B37-C94F-4E3C-A69C-028774F67584" bpmn2nodeid="_E4EC965B-4B62-4825-A60E-6AEB989BDE8A"><g class="stencils"><g class="me"><g pointer-events="painted" bpmn2nodeid="_3AE72575-C0F9-457C-BF02-3B13B000276C"><path id="_0A8D5B37-C94F-4E3C-A69C-028774F67584_1" d="M585 199.59375L585 284.984375 " stroke="#000000" fill="none" stroke-width="2" stroke-linecap="round" stroke-linejoin="round" marker-start="url(#_0A8D5B37-C94F-4E3C-A69C-028774F67584start)" marker-end="url(#_0A8D5B37-C94F-4E3C-A69C-028774F67584end)"/></g><text id="_0A8D5B37-C94F-4E3C-A69C-028774F67584text_name" font-size="12" x="571" y="185.59375" oryx:edgePosition="startTop" stroke-width="0pt" letter-spacing="-0.01px" fill="#000000" text-anchor="end" transform="rotate(-90 585 199.59375)" visibility="inherit" oryx:fontSize="12"><tspan x="571" y="185.59375" dy="0">no</tspan></text></g><g class="children" style="overflow:hidden"/><g class="edge"/></g><g class="controls"><g class="dockers"/><g class="magnets"/></g></g></g><text id="_F612C0BF-808D-40FC-B643-3CA1B48AA98D" style="stroke-width:1;fill:rgb(177,194,214);font-family:arial;font-weight:bold" font-size="12" onclick="ORYX.Plugins.CanvasTitle.openTextualAnalysis()" onmouseover="ORYX.Plugins.CanvasTitle.addToolTip('_F612C0BF-808D-40FC-B643-3CA1B48AA98D')" transform="translate(10, 20)">DMServiceManifestoProcess v.1.0 (com.myspace.pocservicemanifesto.DMServiceManifestoProcess)</text></g></g></svg>