<svg xmlns="http://www.w3.org/2000/svg" xmlns:oryx="http://oryx-editor.org" id="_5993CBC1-4AA5-4ED6-BF2E-BA05F41B4907" width="743" height="354" xmlns:xlink="http://www.w3.org/1999/xlink" xmlns:svg="http://www.w3.org/2000/svg"><defs><marker id="_4D6BC499-3C51-412B-8F4F-A1C107872B65start" refX="1" refY="5" markerUnits="userSpaceOnUse" markerWidth="17" markerHeight="11" orient="auto" fill="#000000" stroke="#000000"> 	  		<path id="_4D6BC499-3C51-412B-8F4F-A1C107872B65conditional" d="M 0 5 L 8 0 L 16 5 L 8 10 L 0 5" fill="white" stroke="#000000" stroke-width="1" display="none"/> 			<path id="_4D6BC499-3C51-412B-8F4F-A1C107872B65default" d="M 5 0 L 11 10" fill="white" stroke="#000000" stroke-width="1" display="none"/> 	  	</marker><marker id="_4D6BC499-3C51-412B-8F4F-A1C107872B65end" refX="15" refY="6" markerUnits="userSpaceOnUse" markerWidth="15" markerHeight="12" orient="auto" fill="#000000" stroke="#000000"> 	  		<path id="_4D6BC499-3C51-412B-8F4F-A1C107872B65frame2" d="M 0 1 L 15 6 L 0 11z" fill="#000000" stroke="#000000" stroke-linejoin="round" stroke-width="2"/> 	  	</marker><marker id="_A39DE5CA-0778-4111-850E-2DB62F9BF774start" refX="1" refY="5" markerUnits="userSpaceOnUse" markerWidth="17" markerHeight="11" orient="auto" fill="#000000" stroke="#000000"> 	  		<path id="_A39DE5CA-0778-4111-850E-2DB62F9BF774conditional" d="M 0 5 L 8 0 L 16 5 L 8 10 L 0 5" fill="white" stroke="#000000" stroke-width="1" display="none"/> 			<path id="_A39DE5CA-0778-4111-850E-2DB62F9BF774default" d="M 5 0 L 11 10" fill="white" stroke="#000000" stroke-width="1" display="none"/> 	  	</marker><marker id="_A39DE5CA-0778-4111-850E-2DB62F9BF774end" refX="15" refY="6" markerUnits="userSpaceOnUse" markerWidth="15" markerHeight="12" orient="auto" fill="#000000" stroke="#000000"> 	  		<path id="_A39DE5CA-0778-4111-850E-2DB62F9BF774frame2" d="M 0 1 L 15 6 L 0 11z" fill="#000000" stroke="#000000" stroke-linejoin="round" stroke-width="2"/> 	  	</marker><marker id="_E3C9F89F-AED2-4741-B755-7E3A8917726Astart" refX="1" refY="5" markerUnits="userSpaceOnUse" markerWidth="17" markerHeight="11" orient="auto" fill="#000000" stroke="#000000"> 	  		<path id="_E3C9F89F-AED2-4741-B755-7E3A8917726Aconditional" d="M 0 5 L 8 0 L 16 5 L 8 10 L 0 5" fill="white" stroke="#000000" stroke-width="1" display="none"/> 			<path id="_E3C9F89F-AED2-4741-B755-7E3A8917726Adefault" d="M 5 0 L 11 10" fill="white" stroke="#000000" stroke-width="1" display="none"/> 	  	</marker><marker id="_E3C9F89F-AED2-4741-B755-7E3A8917726Aend" refX="15" refY="6" markerUnits="userSpaceOnUse" markerWidth="15" markerHeight="12" orient="auto" fill="#000000" stroke="#000000"> 	  		<path id="_E3C9F89F-AED2-4741-B755-7E3A8917726Aframe2" d="M 0 1 L 15 6 L 0 11z" fill="#000000" stroke="#000000" stroke-linejoin="round" stroke-width="2"/> 	  	</marker><marker id="_FDE91752-51CA-40E6-8817-8392DCABA6A2start" refX="1" refY="5" markerUnits="userSpaceOnUse" markerWidth="17" markerHeight="11" orient="auto" fill="#000000" stroke="#000000"> 	  		<path id="_FDE91752-51CA-40E6-8817-8392DCABA6A2conditional" d="M 0 5 L 8 0 L 16 5 L 8 10 L 0 5" fill="white" stroke="#000000" stroke-width="1" display="none"/> 			<path id="_FDE91752-51CA-40E6-8817-8392DCABA6A2default" d="M 5 0 L 11 10" fill="white" stroke="#000000" stroke-width="1" display="none"/> 	  	</marker><marker id="_FDE91752-51CA-40E6-8817-8392DCABA6A2end" refX="15" refY="6" markerUnits="userSpaceOnUse" markerWidth="15" markerHeight="12" orient="auto" fill="#000000" stroke="#000000"> 	  		<path id="_FDE91752-51CA-40E6-8817-8392DCABA6A2frame2" d="M 0 1 L 15 6 L 0 11z" fill="#000000" stroke="#000000" stroke-linejoin="round" stroke-width="2"/> 	  	</marker><marker id="_55E07841-4D7F-4907-84D1-F04CE288418Bstart" refX="1" refY="5" markerUnits="userSpaceOnUse" markerWidth="17" markerHeight="11" orient="auto" fill="#000000" stroke="#000000"> 	  		<path id="_55E07841-4D7F-4907-84D1-F04CE288418Bconditional" d="M 0 5 L 8 0 L 16 5 L 8 10 L 0 5" fill="white" stroke="#000000" stroke-width="1" display="none"/> 			<path id="_55E07841-4D7F-4907-84D1-F04CE288418Bdefault" d="M 5 0 L 11 10" fill="white" stroke="#000000" stroke-width="1" display="none"/> 	  	</marker><marker id="_55E07841-4D7F-4907-84D1-F04CE288418Bend" refX="15" refY="6" markerUnits="userSpaceOnUse" markerWidth="15" markerHeight="12" orient="auto" fill="#000000" stroke="#000000"> 	  		<path id="_55E07841-4D7F-4907-84D1-F04CE288418Bframe2" d="M 0 1 L 15 6 L 0 11z" fill="#000000" stroke="#000000" stroke-linejoin="round" stroke-width="2"/> 	  	</marker></defs><g stroke="none" font-family="Verdana, sans-serif" font-size-adjust="none" font-style="normal" font-variant="normal" font-weight="normal" line-heigth="normal" font-size="12"><g class="stencils" transform="translate(15, 16)"><g class="me"/><g class="children"><g id="_2928A6F1-D29E-4390-A806-EF769538AFAE" bpmn2nodeid="processStartEvent"><g class="stencils" transform="translate(120, 165)"><g class="me"><g pointer-events="fill" id="_2928A6F1-D29E-4390-A806-EF769538AFAE">        <defs id="_2928A6F1-D29E-4390-A806-EF769538AFAE__2928A6F1-D29E-4390-A806-EF769538AFAE_5"> 		<radialGradient id="_2928A6F1-D29E-4390-A806-EF769538AFAEbackground" cx="10%" cy="10%" r="100%" fx="10%" fy="10%"> 			<stop offset="0%" stop-color="#ffffff" stop-opacity="1" id="_2928A6F1-D29E-4390-A806-EF769538AFAE__2928A6F1-D29E-4390-A806-EF769538AFAE_6"/> 			<stop id="_2928A6F1-D29E-4390-A806-EF769538AFAEfill_el" offset="100%" stop-color="#9acd32" stop-opacity="1"/> 		</radialGradient> 	</defs> 	     <circle id="_2928A6F1-D29E-4390-A806-EF769538AFAEbg_frame" cx="15" cy="15" r="15" stroke="#000000" fill="url(#_2928A6F1-D29E-4390-A806-EF769538AFAEbackground) white" stroke-width="1" style="stroke-dasharray: 5.5, 3"/>      <circle id="_2928A6F1-D29E-4390-A806-EF769538AFAEframe" cx="15" cy="15" r="15" stroke="#000000" fill="none" stroke-width="1" display="inherit"/>  	<text font-size="11" id="_2928A6F1-D29E-4390-A806-EF769538AFAEtext_name" x="15" y="32" oryx:align="top center" stroke="black" stroke-width="0pt" letter-spacing="-0.01px" fill="#000000" text-anchor="middle" transform="rotate(0 15 32)" visibility="inherit" oryx:fontSize="11"/>   </g></g><g class="children" style="overflow:hidden"/><g class="edge"/></g><g class="controls"><g class="dockers"/><g class="magnets" transform="translate(120, 165)"><g pointer-events="all" display="none" transform="translate(7, 7)"><circle cx="8" cy="8" r="4" stroke="none" fill="red" fill-opacity="0.3"/></g></g></g></g><g id="_320301F3-DE87-4088-8EE8-BF174A3692FC" bpmn2nodeid="_4BDEEA2D-FEB5-44ED-B6EB-671AA6E5990F"><g class="stencils" transform="translate(240, 140)"><g class="me"><g pointer-events="fill" oryx:minimumSize="50 40" id="_320301F3-DE87-4088-8EE8-BF174A3692FC">   	<defs id="_320301F3-DE87-4088-8EE8-BF174A3692FC__320301F3-DE87-4088-8EE8-BF174A3692FC_17"> 		<radialGradient id="_320301F3-DE87-4088-8EE8-BF174A3692FCbackground" cx="10%" cy="10%" r="100%" fx="10%" fy="10%"> 			<stop offset="0%" stop-color="#ffffff" stop-opacity="1" id="_320301F3-DE87-4088-8EE8-BF174A3692FC__320301F3-DE87-4088-8EE8-BF174A3692FC_18"/> 			<stop id="_320301F3-DE87-4088-8EE8-BF174A3692FCfill_el" offset="100%" stop-color="#fafad2" stop-opacity="1"/> 		</radialGradient> 		<radialGradient id="_320301F3-DE87-4088-8EE8-BF174A3692FCborderbackground" cx="10%" cy="10%" r="100%" fx="10%" fy="10%"> 			<stop offset="0%" stop-color="#ffffff" stop-opacity="1" id="_320301F3-DE87-4088-8EE8-BF174A3692FC__320301F3-DE87-4088-8EE8-BF174A3692FC_19"/> 			<stop id="_320301F3-DE87-4088-8EE8-BF174A3692FCfill_border" offset="100%" stop-color="#000000" stop-opacity="1" stroke="#000000"/> 		</radialGradient> 	</defs> 	 	<rect id="_320301F3-DE87-4088-8EE8-BF174A3692FCtext_frame" oryx:anchors="bottom top right left" x="1" y="1" width="94" height="79" rx="10" ry="10" stroke="none" stroke-width="0" fill="none"/> 	<rect id="_320301F3-DE87-4088-8EE8-BF174A3692FCbg_frame" oryx:resize="vertical horizontal" x="0" y="0" width="100" height="80" rx="10" ry="10" stroke="#000000" stroke-width="1" fill="url(#_320301F3-DE87-4088-8EE8-BF174A3692FCbackground) #ffffcc"/> 		<text font-size="12" id="_320301F3-DE87-4088-8EE8-BF174A3692FCtext_name" x="50" y="40" oryx:align="middle center" oryx:fittoelem="text_frame" stroke="black" text-anchor="middle" stroke-width="0pt" letter-spacing="-0.01px" fill="#000000" transform="rotate(0 50 40)" visibility="inherit" oryx:fontSize="12"><tspan x="50" y="40" dy="5" id="ext-gen604">Initialize</tspan></text>     <g id="_320301F3-DE87-4088-8EE8-BF174A3692FCmanualTask" transform="scale(0.7,0.7) translate(8,8)" display="none">     	<path oryx:anchors="top left" id="_320301F3-DE87-4088-8EE8-BF174A3692FCframe" style="opacity:1;fill:none;fill-opacity:1;stroke-width:1" d="M0.5,3.751l4.083-3.25c0,0,11.166,0.083,12.083,0.083s-2.417,2.917-1.5,2.917     s11.667,0,12.584,0c1.166,1.708-0.168,3.167-0.834,3.667s0.875,1.917-1,4.417c-0.75,0.25,0.75,1.875-1.333,3.333     c-1.167,0.583,0.583,1.542-1.25,2.833c-1.167,0-20.833,0.083-20.833,0.083l-2-1.333V3.751z" stroke="#000000"/> 		<path id="_320301F3-DE87-4088-8EE8-BF174A3692FCframe2" oryx:anchors="top left" style="opacity:1;fill:none;stroke-width:2" d="M 13.5 7 L 27 7" stroke="#000000"/> 		<path id="_320301F3-DE87-4088-8EE8-BF174A3692FCframe3" oryx:anchors="top left" style="opacity:1;fill:none;stroke-width:2" d="M 13.5 11 L 26 11" stroke="#000000"/> 		<path id="_320301F3-DE87-4088-8EE8-BF174A3692FCframe4" oryx:anchors="top left" style="opacity:1;fill:none;stroke-width:1.5" d="M 14 14.5 L 25 14.5" stroke="#000000"/> 		<path id="_320301F3-DE87-4088-8EE8-BF174A3692FCframe5" oryx:anchors="top left" style="opacity:1;fill:none;stroke-width:1.5" d="M 8.2 3.1 L 15 3.1" stroke="#000000"/> 	</g> 	 	<g id="_320301F3-DE87-4088-8EE8-BF174A3692FCbusinessRuleTask" transform="scale(0.7,0.7) translate(8,8)" display="inherit"> 		<rect id="_320301F3-DE87-4088-8EE8-BF174A3692FCframe6" oryx:anchors="top left" x="0" y="0" width="22" height="4" style="opacity:1;fill:#B3B1B3;fill-opacity:1;" stroke="#000000"/> 		<rect id="_320301F3-DE87-4088-8EE8-BF174A3692FCframe7" oryx:anchors="top left" x="0" y="4" style="opacity:1;fill:none;" width="22" height="12" stroke="#000000"/> 		<path id="_320301F3-DE87-4088-8EE8-BF174A3692FCframe8" oryx:anchors="top left" style="opacity:1;fill:none;" d="M 0 10 L 22 10" stroke="#000000"/> 		<path id="_320301F3-DE87-4088-8EE8-BF174A3692FCframe9" oryx:anchors="top left" style="opacity:1; fill:none;" d="M 7 4 L 7 16" stroke="#000000"/> 	</g> 	 	<g id="_320301F3-DE87-4088-8EE8-BF174A3692FCscriptTask" transform="scale(0.7,0.7) translate(8,8)" display="none"> 		<path oryx:anchors="top left" id="_320301F3-DE87-4088-8EE8-BF174A3692FCframe10" style="opacity:1;fill:none;" stroke="#000000" d="M6.402,0.5h14.5c0,0-5.833,2.833-5.833,5.583s4.417,6,4.417,9.167    s-4.167,5.083-4.167,5.083H0.235c0,0,5-2.667,5-5s-4.583-6.75-4.583-9.25S6.402,0.5,6.402,0.5z"/> 		<path oryx:anchors="top left" id="_320301F3-DE87-4088-8EE8-BF174A3692FCframe11" style="opacity:1;fill:none;stroke-width:1.5" d="M 3.5 4.5 L 13.5 4.5" stroke="#000000"/> 		<path oryx:anchors="top left" id="_320301F3-DE87-4088-8EE8-BF174A3692FCframe12" style="opacity:1;fill:none;stroke-width:1.5" d="M 3.8 8.5 L 13.8 8.5" stroke="#000000"/> 		<path oryx:anchors="top left" id="_320301F3-DE87-4088-8EE8-BF174A3692FCframe13" style="opacity:1;fill:none;stroke-width:1.5" d="M 6.3 12.5 L 16.3 12.5" stroke="#000000"/> 		<path oryx:anchors="top left" id="_320301F3-DE87-4088-8EE8-BF174A3692FCframe14" style="opacity:1;fill:none;stroke-width:1.5" d="M 6.5 16.5 L 16.5 16.5" stroke="#000000"/> 	</g> 	 	<g id="_320301F3-DE87-4088-8EE8-BF174A3692FCuserTask" transform="scale(0.7,0.7) translate(8,8)" display="none"> 		<path id="_320301F3-DE87-4088-8EE8-BF174A3692FCframe15" oryx:anchors="top left" style="opacity:1;fill:#F4F6F7" stroke="#000000" d="M0.585,24.167h24.083v-7.833c0,0-2.333-3.917-7.083-5.167h-9.25    c-4.417,1.333-7.833,5.75-7.833,5.75L0.585,24.167z"/> 		<path id="_320301F3-DE87-4088-8EE8-BF174A3692FCframe16" oryx:anchors="top left" style="opacity:1;fill:none" d="M 6 20 L 6 24" stroke="#000000"/> 		<path id="_320301F3-DE87-4088-8EE8-BF174A3692FCframe17" oryx:anchors="top left" style="opacity:1;fill:none" d="M 20 20 L 20 24" stroke="#000000"/> 		<circle id="_320301F3-DE87-4088-8EE8-BF174A3692FCframe18" oryx:anchors="top left" fill="black" cx="13.002" cy="5.916" r="5.417" stroke="#000000"/> 		<path id="_320301F3-DE87-4088-8EE8-BF174A3692FCframe19" oryx:anchors="top left" style="opacity:1;fill:#F0EFF0;" stroke="#000000" d="M8.043,7.083c0,0,2.814-2.426,5.376-1.807s4.624-0.693,4.624-0.693    c0.25,1.688,0.042,3.75-1.458,5.584c0,0,1.083,0.75,1.083,1.5s0.125,1.875-1,3s-5.5,1.25-6.75,0S8.668,12.834,8.668,12    s0.583-1.25,1.25-1.917C8.835,9.5,7.419,7.708,8.043,7.083z"/> 	</g> 	 	<g id="_320301F3-DE87-4088-8EE8-BF174A3692FCserviceTask" transform="scale(0.7,0.7) translate(8,8)" display="none"> 		<polygon oryx:anchors="top left" id="_320301F3-DE87-4088-8EE8-BF174A3692FCframe20" style="opacity:1;fill:#ffffff" stroke="#000000" points="15.392,5.064 17.954,2.502 20.347,4.895 17.786,7.455     18.729,9.732 22.353,9.732 22.353,13.115 18.731,13.115 17.788,15.392 20.351,17.955 17.958,20.347 15.397,17.786 13.12,18.729     13.12,22.353 9.737,22.353 9.737,18.731 7.46,17.788 4.897,20.35 2.506,17.958 5.066,15.397 4.124,13.12 0.5,13.12 0.5,9.737     4.121,9.737 5.065,7.461 2.503,4.898 4.895,2.506 7.455,5.066 9.732,4.125 9.732,0.5 13.116,0.5 13.116,4.121 "/> 		<circle oryx:anchors="top left" id="_320301F3-DE87-4088-8EE8-BF174A3692FCframe21" style="opacity:1;fill:none" stroke="#000000" cx="11.427" cy="11.426" r="3.714"/> 		<polygon oryx:anchors="top left" id="_320301F3-DE87-4088-8EE8-BF174A3692FCframe22" style="opacity:1;fill:#ffffff" stroke="#000000" points="21.392,11.064 23.954,8.502 26.347,10.895 23.786,13.455     24.729,15.732 28.353,15.732 28.353,19.115 24.731,19.115 23.788,21.392 26.351,23.955 23.958,26.347 21.397,23.786 19.12,24.729     19.12,28.353 15.737,28.353 15.737,24.731 13.46,23.788 10.897,26.35 8.506,23.958 11.066,21.397 10.124,19.12 6.5,19.12     6.5,15.737 10.121,15.737 11.065,13.461 8.503,10.898 10.895,8.506 13.455,11.066 15.732,10.125 15.732,6.5 19.116,6.5     19.116,10.121 "/> 		<circle oryx:anchors="top left" id="_320301F3-DE87-4088-8EE8-BF174A3692FCframe23" style="opacity:1;fill:none;" stroke="#000000" cx="17.427" cy="17.426" r="3.714"/> 	</g> 	 	<g id="_320301F3-DE87-4088-8EE8-BF174A3692FCsendTask" display="none"> 		<path id="_320301F3-DE87-4088-8EE8-BF174A3692FCstframe24" oryx:anchors="left top" stroke="#FFFFFF" fill="black" stroke-width="1" d="M8,11 L8,21 L24,21 L24,11 L16,17z"/> 		<path id="_320301F3-DE87-4088-8EE8-BF174A3692FCstframe25" oryx:anchors="left top" stroke="#FFFFFF" fill="black" stroke-width="1" d="M7,10 L16,17 L25 10z"/> 	</g> 	 	<g id="_320301F3-DE87-4088-8EE8-BF174A3692FCreceiveTask" display="none"> 		<path id="_320301F3-DE87-4088-8EE8-BF174A3692FCframe26" oryx:anchors="left top" stroke="#000000" fill="none" stroke-width="1" d="M8,11 L8,21 L24,21 L24,11z M8,11 L16,17 L24,11"/> 	</g> 	 	<g id="_320301F3-DE87-4088-8EE8-BF174A3692FCnone" display="inherit"/>  	<g id="_320301F3-DE87-4088-8EE8-BF174A3692FCsequential" display="none">         <path oryx:anchors="bottom" fill="none" stroke="#000000" stroke-width="2" d="M46,76h10M46,72h10 M46,68h10" id="_320301F3-DE87-4088-8EE8-BF174A3692FC__320301F3-DE87-4088-8EE8-BF174A3692FC_20"/>     </g>   </g></g><g class="children" style="overflow:hidden"/><g class="edge"/></g><g class="controls"><g class="dockers"/><g class="magnets" transform="translate(240, 140)"><g pointer-events="all" display="none" transform="translate(-7, 12)"><circle cx="8" cy="8" r="4" stroke="none" fill="red" fill-opacity="0.3"/></g><g pointer-events="all" display="none" transform="translate(-7, 32)"><circle cx="8" cy="8" r="4" stroke="none" fill="red" fill-opacity="0.3"/></g><g pointer-events="all" display="none" transform="translate(-7, 52)"><circle cx="8" cy="8" r="4" stroke="none" fill="red" fill-opacity="0.3"/></g><g pointer-events="all" display="none" transform="translate(17, 71)"><circle cx="8" cy="8" r="4" stroke="none" fill="red" fill-opacity="0.3"/></g><g pointer-events="all" display="none" transform="translate(42, 71)"><circle cx="8" cy="8" r="4" stroke="none" fill="red" fill-opacity="0.3"/></g><g pointer-events="all" display="none" transform="translate(67, 71)"><circle cx="8" cy="8" r="4" stroke="none" fill="red" fill-opacity="0.3"/></g><g pointer-events="all" display="none" transform="translate(91, 12)"><circle cx="8" cy="8" r="4" stroke="none" fill="red" fill-opacity="0.3"/></g><g pointer-events="all" display="none" transform="translate(91, 32)"><circle cx="8" cy="8" r="4" stroke="none" fill="red" fill-opacity="0.3"/></g><g pointer-events="all" display="none" transform="translate(91, 52)"><circle cx="8" cy="8" r="4" stroke="none" fill="red" fill-opacity="0.3"/></g><g pointer-events="all" display="none" transform="translate(17, -7)"><circle cx="8" cy="8" r="4" stroke="none" fill="red" fill-opacity="0.3"/></g><g pointer-events="all" display="none" transform="translate(42, -7)"><circle cx="8" cy="8" r="4" stroke="none" fill="red" fill-opacity="0.3"/></g><g pointer-events="all" display="none" transform="translate(67, -7)"><circle cx="8" cy="8" r="4" stroke="none" fill="red" fill-opacity="0.3"/></g><g pointer-events="all" display="none" transform="translate(42, 32)"><circle cx="8" cy="8" r="4" stroke="none" fill="red" fill-opacity="0.3"/></g></g></g></g><g id="_1C3ABC35-3890-4570-BEE9-0116D458247F" bpmn2nodeid="_8FED164F-8547-4754-9DF0-D61316C7CB06"><g class="stencils" transform="translate(571, 285)"><g class="me"><g pointer-events="fill" id="_1C3ABC35-3890-4570-BEE9-0116D458247F">      <defs id="_1C3ABC35-3890-4570-BEE9-0116D458247F__1C3ABC35-3890-4570-BEE9-0116D458247F_5"> 		<radialGradient id="_1C3ABC35-3890-4570-BEE9-0116D458247Fbackground" cx="10%" cy="10%" r="100%" fx="10%" fy="10%"> 			<stop offset="0%" stop-color="#ffffff" stop-opacity="1" id="_1C3ABC35-3890-4570-BEE9-0116D458247F__1C3ABC35-3890-4570-BEE9-0116D458247F_6"/> 			<stop id="_1C3ABC35-3890-4570-BEE9-0116D458247Ffill_el" offset="100%" stop-color="#ff6347" stop-opacity="1"/> 		</radialGradient> 	</defs> 	     <circle id="_1C3ABC35-3890-4570-BEE9-0116D458247Fbg_frame" cx="14" cy="14" r="14" stroke="#000000" fill="url(#_1C3ABC35-3890-4570-BEE9-0116D458247Fbackground) white" stroke-width="3"/> 	<text font-size="11" id="_1C3ABC35-3890-4570-BEE9-0116D458247Ftext_name" x="14" y="30" oryx:align="top center" stroke="black" stroke-width="0pt" letter-spacing="-0.01px" fill="#000000" text-anchor="middle" transform="rotate(0 14 30)" visibility="inherit" oryx:fontSize="11"/>   </g></g><g class="children" style="overflow:hidden"/><g class="edge"/></g><g class="controls"><g class="dockers"/><g class="magnets" transform="translate(571, 285)"><g pointer-events="all" display="none" transform="translate(6, 6)"><circle cx="8" cy="8" r="4" stroke="none" fill="red" fill-opacity="0.3"/></g></g></g></g><g id="_2EB96734-448A-4764-B7A1-8E65413F47EC" bpmn2nodeid="_5DF14411-8123-4A74-B354-1019CD87CDA0"><g class="stencils" transform="translate(420, 140)"><g class="me"><g pointer-events="fill" oryx:minimumSize="50 40" id="_2EB96734-448A-4764-B7A1-8E65413F47EC">   	<defs id="_2EB96734-448A-4764-B7A1-8E65413F47EC__2EB96734-448A-4764-B7A1-8E65413F47EC_17"> 		<radialGradient id="_2EB96734-448A-4764-B7A1-8E65413F47ECbackground" cx="10%" cy="10%" r="100%" fx="10%" fy="10%"> 			<stop offset="0%" stop-color="#ffffff" stop-opacity="1" id="_2EB96734-448A-4764-B7A1-8E65413F47EC__2EB96734-448A-4764-B7A1-8E65413F47EC_18"/> 			<stop id="_2EB96734-448A-4764-B7A1-8E65413F47ECfill_el" offset="100%" stop-color="#fafad2" stop-opacity="1"/> 		</radialGradient> 		<radialGradient id="_2EB96734-448A-4764-B7A1-8E65413F47ECborderbackground" cx="10%" cy="10%" r="100%" fx="10%" fy="10%"> 			<stop offset="0%" stop-color="#ffffff" stop-opacity="1" id="_2EB96734-448A-4764-B7A1-8E65413F47EC__2EB96734-448A-4764-B7A1-8E65413F47EC_19"/> 			<stop id="_2EB96734-448A-4764-B7A1-8E65413F47ECfill_border" offset="100%" stop-color="#000000" stop-opacity="1" stroke="#000000"/> 		</radialGradient> 	</defs> 	 	<rect id="_2EB96734-448A-4764-B7A1-8E65413F47ECtext_frame" oryx:anchors="bottom top right left" x="1" y="1" width="94" height="79" rx="10" ry="10" stroke="none" stroke-width="0" fill="none"/> 	<rect id="_2EB96734-448A-4764-B7A1-8E65413F47ECbg_frame" oryx:resize="vertical horizontal" x="0" y="0" width="100" height="80" rx="10" ry="10" stroke="#000000" stroke-width="1" fill="url(#_2EB96734-448A-4764-B7A1-8E65413F47ECbackground) #ffffcc"/> 		<text font-size="12" id="_2EB96734-448A-4764-B7A1-8E65413F47ECtext_name" x="50" y="40" oryx:align="middle center" oryx:fittoelem="text_frame" stroke="black" text-anchor="middle" stroke-width="0pt" letter-spacing="-0.01px" fill="#000000" transform="rotate(0 50 40)" visibility="inherit" oryx:fontSize="12"><tspan x="50" y="40" dy="5" id="ext-gen1036">Valid Order</tspan></text>     <g id="_2EB96734-448A-4764-B7A1-8E65413F47ECmanualTask" transform="scale(0.7,0.7) translate(8,8)" display="none">     	<path oryx:anchors="top left" id="_2EB96734-448A-4764-B7A1-8E65413F47ECframe" style="opacity:1;fill:none;fill-opacity:1;stroke-width:1" d="M0.5,3.751l4.083-3.25c0,0,11.166,0.083,12.083,0.083s-2.417,2.917-1.5,2.917     s11.667,0,12.584,0c1.166,1.708-0.168,3.167-0.834,3.667s0.875,1.917-1,4.417c-0.75,0.25,0.75,1.875-1.333,3.333     c-1.167,0.583,0.583,1.542-1.25,2.833c-1.167,0-20.833,0.083-20.833,0.083l-2-1.333V3.751z" stroke="#000000"/> 		<path id="_2EB96734-448A-4764-B7A1-8E65413F47ECframe2" oryx:anchors="top left" style="opacity:1;fill:none;stroke-width:2" d="M 13.5 7 L 27 7" stroke="#000000"/> 		<path id="_2EB96734-448A-4764-B7A1-8E65413F47ECframe3" oryx:anchors="top left" style="opacity:1;fill:none;stroke-width:2" d="M 13.5 11 L 26 11" stroke="#000000"/> 		<path id="_2EB96734-448A-4764-B7A1-8E65413F47ECframe4" oryx:anchors="top left" style="opacity:1;fill:none;stroke-width:1.5" d="M 14 14.5 L 25 14.5" stroke="#000000"/> 		<path id="_2EB96734-448A-4764-B7A1-8E65413F47ECframe5" oryx:anchors="top left" style="opacity:1;fill:none;stroke-width:1.5" d="M 8.2 3.1 L 15 3.1" stroke="#000000"/> 	</g> 	 	<g id="_2EB96734-448A-4764-B7A1-8E65413F47ECbusinessRuleTask" transform="scale(0.7,0.7) translate(8,8)" display="inherit"> 		<rect id="_2EB96734-448A-4764-B7A1-8E65413F47ECframe6" oryx:anchors="top left" x="0" y="0" width="22" height="4" style="opacity:1;fill:#B3B1B3;fill-opacity:1;" stroke="#000000"/> 		<rect id="_2EB96734-448A-4764-B7A1-8E65413F47ECframe7" oryx:anchors="top left" x="0" y="4" style="opacity:1;fill:none;" width="22" height="12" stroke="#000000"/> 		<path id="_2EB96734-448A-4764-B7A1-8E65413F47ECframe8" oryx:anchors="top left" style="opacity:1;fill:none;" d="M 0 10 L 22 10" stroke="#000000"/> 		<path id="_2EB96734-448A-4764-B7A1-8E65413F47ECframe9" oryx:anchors="top left" style="opacity:1; fill:none;" d="M 7 4 L 7 16" stroke="#000000"/> 	</g> 	 	<g id="_2EB96734-448A-4764-B7A1-8E65413F47ECscriptTask" transform="scale(0.7,0.7) translate(8,8)" display="none"> 		<path oryx:anchors="top left" id="_2EB96734-448A-4764-B7A1-8E65413F47ECframe10" style="opacity:1;fill:none;" stroke="#000000" d="M6.402,0.5h14.5c0,0-5.833,2.833-5.833,5.583s4.417,6,4.417,9.167    s-4.167,5.083-4.167,5.083H0.235c0,0,5-2.667,5-5s-4.583-6.75-4.583-9.25S6.402,0.5,6.402,0.5z"/> 		<path oryx:anchors="top left" id="_2EB96734-448A-4764-B7A1-8E65413F47ECframe11" style="opacity:1;fill:none;stroke-width:1.5" d="M 3.5 4.5 L 13.5 4.5" stroke="#000000"/> 		<path oryx:anchors="top left" id="_2EB96734-448A-4764-B7A1-8E65413F47ECframe12" style="opacity:1;fill:none;stroke-width:1.5" d="M 3.8 8.5 L 13.8 8.5" stroke="#000000"/> 		<path oryx:anchors="top left" id="_2EB96734-448A-4764-B7A1-8E65413F47ECframe13" style="opacity:1;fill:none;stroke-width:1.5" d="M 6.3 12.5 L 16.3 12.5" stroke="#000000"/> 		<path oryx:anchors="top left" id="_2EB96734-448A-4764-B7A1-8E65413F47ECframe14" style="opacity:1;fill:none;stroke-width:1.5" d="M 6.5 16.5 L 16.5 16.5" stroke="#000000"/> 	</g> 	 	<g id="_2EB96734-448A-4764-B7A1-8E65413F47ECuserTask" transform="scale(0.7,0.7) translate(8,8)" display="none"> 		<path id="_2EB96734-448A-4764-B7A1-8E65413F47ECframe15" oryx:anchors="top left" style="opacity:1;fill:#F4F6F7" stroke="#000000" d="M0.585,24.167h24.083v-7.833c0,0-2.333-3.917-7.083-5.167h-9.25    c-4.417,1.333-7.833,5.75-7.833,5.75L0.585,24.167z"/> 		<path id="_2EB96734-448A-4764-B7A1-8E65413F47ECframe16" oryx:anchors="top left" style="opacity:1;fill:none" d="M 6 20 L 6 24" stroke="#000000"/> 		<path id="_2EB96734-448A-4764-B7A1-8E65413F47ECframe17" oryx:anchors="top left" style="opacity:1;fill:none" d="M 20 20 L 20 24" stroke="#000000"/> 		<circle id="_2EB96734-448A-4764-B7A1-8E65413F47ECframe18" oryx:anchors="top left" fill="black" cx="13.002" cy="5.916" r="5.417" stroke="#000000"/> 		<path id="_2EB96734-448A-4764-B7A1-8E65413F47ECframe19" oryx:anchors="top left" style="opacity:1;fill:#F0EFF0;" stroke="#000000" d="M8.043,7.083c0,0,2.814-2.426,5.376-1.807s4.624-0.693,4.624-0.693    c0.25,1.688,0.042,3.75-1.458,5.584c0,0,1.083,0.75,1.083,1.5s0.125,1.875-1,3s-5.5,1.25-6.75,0S8.668,12.834,8.668,12    s0.583-1.25,1.25-1.917C8.835,9.5,7.419,7.708,8.043,7.083z"/> 	</g> 	 	<g id="_2EB96734-448A-4764-B7A1-8E65413F47ECserviceTask" transform="scale(0.7,0.7) translate(8,8)" display="none"> 		<polygon oryx:anchors="top left" id="_2EB96734-448A-4764-B7A1-8E65413F47ECframe20" style="opacity:1;fill:#ffffff" stroke="#000000" points="15.392,5.064 17.954,2.502 20.347,4.895 17.786,7.455     18.729,9.732 22.353,9.732 22.353,13.115 18.731,13.115 17.788,15.392 20.351,17.955 17.958,20.347 15.397,17.786 13.12,18.729     13.12,22.353 9.737,22.353 9.737,18.731 7.46,17.788 4.897,20.35 2.506,17.958 5.066,15.397 4.124,13.12 0.5,13.12 0.5,9.737     4.121,9.737 5.065,7.461 2.503,4.898 4.895,2.506 7.455,5.066 9.732,4.125 9.732,0.5 13.116,0.5 13.116,4.121 "/> 		<circle oryx:anchors="top left" id="_2EB96734-448A-4764-B7A1-8E65413F47ECframe21" style="opacity:1;fill:none" stroke="#000000" cx="11.427" cy="11.426" r="3.714"/> 		<polygon oryx:anchors="top left" id="_2EB96734-448A-4764-B7A1-8E65413F47ECframe22" style="opacity:1;fill:#ffffff" stroke="#000000" points="21.392,11.064 23.954,8.502 26.347,10.895 23.786,13.455     24.729,15.732 28.353,15.732 28.353,19.115 24.731,19.115 23.788,21.392 26.351,23.955 23.958,26.347 21.397,23.786 19.12,24.729     19.12,28.353 15.737,28.353 15.737,24.731 13.46,23.788 10.897,26.35 8.506,23.958 11.066,21.397 10.124,19.12 6.5,19.12     6.5,15.737 10.121,15.737 11.065,13.461 8.503,10.898 10.895,8.506 13.455,11.066 15.732,10.125 15.732,6.5 19.116,6.5     19.116,10.121 "/> 		<circle oryx:anchors="top left" id="_2EB96734-448A-4764-B7A1-8E65413F47ECframe23" style="opacity:1;fill:none;" stroke="#000000" cx="17.427" cy="17.426" r="3.714"/> 	</g> 	 	<g id="_2EB96734-448A-4764-B7A1-8E65413F47ECsendTask" display="none"> 		<path id="_2EB96734-448A-4764-B7A1-8E65413F47ECstframe24" oryx:anchors="left top" stroke="#FFFFFF" fill="black" stroke-width="1" d="M8,11 L8,21 L24,21 L24,11 L16,17z"/> 		<path id="_2EB96734-448A-4764-B7A1-8E65413F47ECstframe25" oryx:anchors="left top" stroke="#FFFFFF" fill="black" stroke-width="1" d="M7,10 L16,17 L25 10z"/> 	</g> 	 	<g id="_2EB96734-448A-4764-B7A1-8E65413F47ECreceiveTask" display="none"> 		<path id="_2EB96734-448A-4764-B7A1-8E65413F47ECframe26" oryx:anchors="left top" stroke="#000000" fill="none" stroke-width="1" d="M8,11 L8,21 L24,21 L24,11z M8,11 L16,17 L24,11"/> 	</g> 	 	<g id="_2EB96734-448A-4764-B7A1-8E65413F47ECnone" display="inherit"/>  	<g id="_2EB96734-448A-4764-B7A1-8E65413F47ECsequential" display="none">         <path oryx:anchors="bottom" fill="none" stroke="#000000" stroke-width="2" d="M46,76h10M46,72h10 M46,68h10" id="_2EB96734-448A-4764-B7A1-8E65413F47EC__2EB96734-448A-4764-B7A1-8E65413F47EC_20"/>     </g>   </g></g><g class="children" style="overflow:hidden"/><g class="edge"/></g><g class="controls"><g class="dockers"/><g class="magnets" transform="translate(420, 140)"><g pointer-events="all" display="none" transform="translate(-7, 12)"><circle cx="8" cy="8" r="4" stroke="none" fill="red" fill-opacity="0.3"/></g><g pointer-events="all" display="none" transform="translate(-7, 32)"><circle cx="8" cy="8" r="4" stroke="none" fill="red" fill-opacity="0.3"/></g><g pointer-events="all" display="none" transform="translate(-7, 52)"><circle cx="8" cy="8" r="4" stroke="none" fill="red" fill-opacity="0.3"/></g><g pointer-events="all" display="none" transform="translate(17, 71)"><circle cx="8" cy="8" r="4" stroke="none" fill="red" fill-opacity="0.3"/></g><g pointer-events="all" display="none" transform="translate(42, 71)"><circle cx="8" cy="8" r="4" stroke="none" fill="red" fill-opacity="0.3"/></g><g pointer-events="all" display="none" transform="translate(67, 71)"><circle cx="8" cy="8" r="4" stroke="none" fill="red" fill-opacity="0.3"/></g><g pointer-events="all" display="none" transform="translate(91, 12)"><circle cx="8" cy="8" r="4" stroke="none" fill="red" fill-opacity="0.3"/></g><g pointer-events="all" display="none" transform="translate(91, 32)"><circle cx="8" cy="8" r="4" stroke="none" fill="red" fill-opacity="0.3"/></g><g pointer-events="all" display="none" transform="translate(91, 52)"><circle cx="8" cy="8" r="4" stroke="none" fill="red" fill-opacity="0.3"/></g><g pointer-events="all" display="none" transform="translate(17, -7)"><circle cx="8" cy="8" r="4" stroke="none" fill="red" fill-opacity="0.3"/></g><g pointer-events="all" display="none" transform="translate(42, -7)"><circle cx="8" cy="8" r="4" stroke="none" fill="red" fill-opacity="0.3"/></g><g pointer-events="all" display="none" transform="translate(67, -7)"><circle cx="8" cy="8" r="4" stroke="none" fill="red" fill-opacity="0.3"/></g><g pointer-events="all" display="none" transform="translate(42, 32)"><circle cx="8" cy="8" r="4" stroke="none" fill="red" fill-opacity="0.3"/></g></g></g></g><g id="_09411E08-64E8-488B-927E-7C906D0848BA" bpmn2nodeid="_BD74BE8C-08DE-45BE-838C-9B6E03D4D72A"><g class="stencils" transform="translate(565, 160)"><g class="me"><g id="_09411E08-64E8-488B-927E-7C906D0848BA">        <defs id="_09411E08-64E8-488B-927E-7C906D0848BA__09411E08-64E8-488B-927E-7C906D0848BA_4"> 		<radialGradient id="_09411E08-64E8-488B-927E-7C906D0848BAbackground" cx="10%" cy="10%" r="100%" fx="10%" fy="10%"> 			<stop offset="0%" stop-color="#ffffff" stop-opacity="1" id="_09411E08-64E8-488B-927E-7C906D0848BA__09411E08-64E8-488B-927E-7C906D0848BA_5"/> 			<stop id="_09411E08-64E8-488B-927E-7C906D0848BAfill_el" offset="100%" stop-color="#f0e68c" stop-opacity="1"/> 		</radialGradient> 		<radialGradient id="_09411E08-64E8-488B-927E-7C906D0848BAborderbackground" cx="10%" cy="10%" r="100%" fx="10%" fy="10%"> 			<stop offset="0%" stop-color="#ffffff" stop-opacity="1" id="_09411E08-64E8-488B-927E-7C906D0848BA__09411E08-64E8-488B-927E-7C906D0848BA_6"/> 			<stop id="_09411E08-64E8-488B-927E-7C906D0848BAfill_border" offset="100%" stop-color="#a67f00" stop-opacity="1" stroke="#a67f00"/> 		</radialGradient> 	</defs> 	     <path d=" M0 20.5  L20.5 0  L40 20.5  L20.5 40  z" id="_09411E08-64E8-488B-927E-7C906D0848BAbg_frame" fill="url(#_09411E08-64E8-488B-927E-7C906D0848BAbackground) white" style="stroke-width:1" stroke="#a67f00"/>     <g id="_09411E08-64E8-488B-927E-7C906D0848BAframe" stroke="#a67f00">       <path id="_09411E08-64E8-488B-927E-7C906D0848BAframe2" d=" M13.25 12.05  L17.25 12.05  L27.65 28.95  L23.75 28.95  z" style="stroke-width:1" stroke="#a67f00" fill="url(#_09411E08-64E8-488B-927E-7C906D0848BAborderbackground)"/>       <path id="_09411E08-64E8-488B-927E-7C906D0848BAframe3" d=" M13.25 28.95  L23.75 12.05  L27.65 12.05  L17.25 28.95  z" style="stroke-width:1" stroke="#a67f00" fill="url(#_09411E08-64E8-488B-927E-7C906D0848BAborderbackground)"/>     </g> 	 	<text id="_09411E08-64E8-488B-927E-7C906D0848BAtext_name" x="30.5" y="30.5" oryx:align="left top" stroke-width="0pt" letter-spacing="-0.01px" fill="#000000" text-anchor="start" transform="rotate(0 30.5 30.5)" visibility="inherit" oryx:fontSize="12"/> 	   </g></g><g class="children" style="overflow:hidden"/><g class="edge"/></g><g class="controls"><g class="dockers"/><g class="magnets" transform="translate(565, 160)"><g pointer-events="all" display="none" transform="translate(12.5, 12.5)"><circle cx="8" cy="8" r="4" stroke="none" fill="red" fill-opacity="0.3"/></g></g></g></g><g id="_22DED2EB-F5D6-4886-9E71-41D44296B09F" bpmn2nodeid="_29858477-35B6-4E45-9AFE-C079D7EAFDC2"><g class="stencils" transform="translate(675, 166)"><g class="me"><g pointer-events="fill" id="_22DED2EB-F5D6-4886-9E71-41D44296B09F">      <defs id="_22DED2EB-F5D6-4886-9E71-41D44296B09F__22DED2EB-F5D6-4886-9E71-41D44296B09F_5"> 		<radialGradient id="_22DED2EB-F5D6-4886-9E71-41D44296B09Fbackground" cx="10%" cy="10%" r="100%" fx="10%" fy="10%"> 			<stop offset="0%" stop-color="#ffffff" stop-opacity="1" id="_22DED2EB-F5D6-4886-9E71-41D44296B09F__22DED2EB-F5D6-4886-9E71-41D44296B09F_6"/> 			<stop id="_22DED2EB-F5D6-4886-9E71-41D44296B09Ffill_el" offset="100%" stop-color="#ff6347" stop-opacity="1"/> 		</radialGradient> 	</defs> 	     <circle id="_22DED2EB-F5D6-4886-9E71-41D44296B09Fbg_frame" cx="14" cy="14" r="14" stroke="#000000" fill="url(#_22DED2EB-F5D6-4886-9E71-41D44296B09Fbackground) white" stroke-width="3"/> 	<text font-size="11" id="_22DED2EB-F5D6-4886-9E71-41D44296B09Ftext_name" x="14" y="30" oryx:align="top center" stroke="black" stroke-width="0pt" letter-spacing="-0.01px" fill="#000000" text-anchor="middle" transform="rotate(0 14 30)" visibility="inherit" oryx:fontSize="11"/>   </g></g><g class="children" style="overflow:hidden"/><g class="edge"/></g><g class="controls"><g class="dockers"/><g class="magnets" transform="translate(675, 166)"><g pointer-events="all" display="none" transform="translate(6, 6)"><circle cx="8" cy="8" r="4" stroke="none" fill="red" fill-opacity="0.3"/></g></g></g></g></g><g class="edge"><g id="_4D6BC499-3C51-412B-8F4F-A1C107872B65" bpmn2nodeid="_AF94964A-1267-4488-858C-85066638283C"><g class="stencils"><g class="me"><g pointer-events="painted" bpmn2nodeid="_89FD07CA-42DC-40D6-BBBB-69D2D63C68AA"><path id="_4D6BC499-3C51-412B-8F4F-A1C107872B65_1" d="M150.53125 180L239.3515625 180 " stroke="#000000" fill="none" stroke-width="2" stroke-linecap="round" stroke-linejoin="round" marker-start="url(#_4D6BC499-3C51-412B-8F4F-A1C107872B65start)" marker-end="url(#_4D6BC499-3C51-412B-8F4F-A1C107872B65end)"/></g><text id="_4D6BC499-3C51-412B-8F4F-A1C107872B65text_name" font-size="12" x="164.53125" y="166" oryx:edgePosition="startTop" stroke-width="0pt" letter-spacing="-0.01px" fill="#000000" text-anchor="start" transform="rotate(360 150.53125 180)" visibility="inherit" oryx:fontSize="12"/></g><g class="children" style="overflow:hidden"/><g class="edge"/></g><g class="controls"><g class="dockers"/><g class="magnets"/></g></g><g id="_A39DE5CA-0778-4111-850E-2DB62F9BF774" bpmn2nodeid="_A645634C-81FD-47BD-AD69-463786216DD1"><g class="stencils"><g class="me"><g pointer-events="painted" bpmn2nodeid="_66D99AA9-087B-485D-B3A5-B8A9EE13DA91"><path id="_A39DE5CA-0778-4111-850E-2DB62F9BF774_1" d="M340.125 180L420 180 " stroke="#000000" fill="none" stroke-width="2" stroke-linecap="round" stroke-linejoin="round" marker-start="url(#_A39DE5CA-0778-4111-850E-2DB62F9BF774start)" marker-end="url(#_A39DE5CA-0778-4111-850E-2DB62F9BF774end)"/></g><text id="_A39DE5CA-0778-4111-850E-2DB62F9BF774text_name" font-size="12" x="354.125" y="166" oryx:edgePosition="startTop" stroke-width="0pt" letter-spacing="-0.01px" fill="#000000" text-anchor="start" transform="rotate(360 340.125 180)" visibility="inherit" oryx:fontSize="12"/></g><g class="children" style="overflow:hidden"/><g class="edge"/></g><g class="controls"><g class="dockers"/><g class="magnets"/></g></g><g id="_E3C9F89F-AED2-4741-B755-7E3A8917726A" bpmn2nodeid="_B2EF91E6-494F-4958-AB99-CABBAE93B7C2"><g class="stencils"><g class="me"><g pointer-events="painted" bpmn2nodeid="_B2EF91E6-494F-4958-AB99-CABBAE93B7C2"><path id="_E3C9F89F-AED2-4741-B755-7E3A8917726A_1" d="M520.6288968799925 180.2191727137662L564.6484468700075 180.4097335362338 " stroke="#000000" fill="none" stroke-width="2" stroke-linecap="round" stroke-linejoin="round" marker-start="url(#_E3C9F89F-AED2-4741-B755-7E3A8917726Astart)" marker-end="url(#_E3C9F89F-AED2-4741-B755-7E3A8917726Aend)"/></g><text id="_E3C9F89F-AED2-4741-B755-7E3A8917726Atext_name" font-size="12" x="534.6288968799925" y="166.2191727137662" oryx:edgePosition="startTop" stroke-width="0pt" letter-spacing="-0.01px" fill="#000000" text-anchor="start" transform="rotate(0.24803212815652387 520.6288968799925 180.2191727137662)" visibility="inherit" oryx:fontSize="12"/></g><g class="children" style="overflow:hidden"/><g class="edge"/></g><g class="controls"><g class="dockers"/><g class="magnets"/></g></g><g id="_FDE91752-51CA-40E6-8817-8392DCABA6A2" bpmn2nodeid="_F2F63060-1F4D-4A2D-98B8-F4499EA794E8"><g class="stencils"><g class="me"><g pointer-events="painted" bpmn2nodeid="_F2F63060-1F4D-4A2D-98B8-F4499EA794E8"><path id="_FDE91752-51CA-40E6-8817-8392DCABA6A2_1" d="M605.9062383313205 180.40141913849604L674.2539179186795 180.07123711150396 " stroke="#000000" fill="none" stroke-width="2" stroke-linecap="round" stroke-linejoin="round" marker-start="url(#_FDE91752-51CA-40E6-8817-8392DCABA6A2start)" marker-end="url(#_FDE91752-51CA-40E6-8817-8392DCABA6A2end)"/></g><text id="_FDE91752-51CA-40E6-8817-8392DCABA6A2text_name" font-size="12" x="619.9062383313205" y="166.40141913849604" oryx:edgePosition="startTop" stroke-width="0pt" letter-spacing="-0.01px" fill="#000000" text-anchor="start" transform="rotate(359.7232109478222 605.9062383313205 180.40141913849604)" visibility="inherit" oryx:fontSize="12"><tspan x="619.9062383313205" y="166.40141913849604" dy="0">yes</tspan></text></g><g class="children" style="overflow:hidden"/><g class="edge"/></g><g class="controls"><g class="dockers"/><g class="magnets"/></g></g><g id="_55E07841-4D7F-4907-84D1-F04CE288418B" bpmn2nodeid="_E4EC965B-4B62-4825-A60E-6AEB989BDE8A"><g class="stencils"><g class="me"><g pointer-events="painted" bpmn2nodeid="_E4EC965B-4B62-4825-A60E-6AEB989BDE8A"><path id="_55E07841-4D7F-4907-84D1-F04CE288418B_1" d="M585.4176556282767 200.0156160984115L585.0628131217233 284.1132901515885 " stroke="#000000" fill="none" stroke-width="2" stroke-linecap="round" stroke-linejoin="round" marker-start="url(#_55E07841-4D7F-4907-84D1-F04CE288418Bstart)" marker-end="url(#_55E07841-4D7F-4907-84D1-F04CE288418Bend)"/></g><text id="_55E07841-4D7F-4907-84D1-F04CE288418Btext_name" font-size="12" x="571.4176556282767" y="186.0156160984115" oryx:edgePosition="startTop" stroke-width="0pt" letter-spacing="-0.01px" fill="#000000" text-anchor="end" transform="rotate(-89.75824709073328 585.4176556282767 200.0156160984115)" visibility="inherit" oryx:fontSize="12"><tspan x="571.4176556282767" y="186.0156160984115" dy="0" id="ext-gen2397">no</tspan></text></g><g class="children" style="overflow:hidden"/><g class="edge"/></g><g class="controls"><g class="dockers"/><g class="magnets"/></g></g></g><text id="_486458DD-0718-4685-974F-3C57C0228F89" style="stroke-width:1;fill:rgb(177,194,214);font-family:arial;font-weight:bold" font-size="12" onclick="ORYX.Plugins.CanvasTitle.openTextualAnalysis()" onmouseover="ORYX.Plugins.CanvasTitle.addToolTip('_486458DD-0718-4685-974F-3C57C0228F89')" transform="translate(10, 20)">DMServiceManifestoProcess v.1.0 (com.myspace.pocservicemanifesto.DMServiceManifestoProcess)</text></g></g></svg>